<svg width="37" height="36" viewBox="0 0 37 36" fill="none" xmlns="http://www.w3.org/2000/svg">
<path d="M30.3726 19.0929H22.7431V16.9072H30.3726C30.0592 14.4133 28.2814 11.452 26.5041 9.67475C24.7269 7.89747 22.087 6.25988 19.5931 5.94646V13.7572H17.4074V5.94646C14.9136 6.25988 11.9523 7.89747 10.175 9.67475C8.39772 11.452 6.94141 14.4133 6.62799 16.9072H14.2574V19.0929H6.62799C6.94141 21.5867 8.39772 24.548 10.175 26.3253C11.9523 28.1026 14.9136 29.5589 17.4074 29.8723V22.2429H19.5931V29.8723C22.087 29.5589 25.0483 28.1026 26.8256 26.3253C28.6028 24.548 30.0592 21.5867 30.3726 19.0929ZM18.5003 32.1429C14.7494 32.1429 11.1521 30.6528 8.49977 28.0005C5.84747 25.3482 4.35742 21.751 4.35742 18C4.35742 14.2491 5.84747 10.6518 8.49977 7.99952C11.1521 5.34722 14.7494 3.85718 18.5003 3.85718C22.2512 3.85718 25.8485 5.34722 28.5008 7.99952C31.1531 10.6518 32.6431 14.2491 32.6431 18C32.6431 21.751 31.1531 25.3482 28.5008 28.0005C25.8485 30.6528 22.2512 32.1429 18.5003 32.1429Z" fill="#96C2AF"/>
</svg>
