<svg width="1166" height="482" viewBox="0 0 1166 482" fill="none" xmlns="http://www.w3.org/2000/svg">
<rect width="32" height="32" transform="translate(34 399)" fill="#1E2C26"/>
<rect width="32" height="32" transform="translate(34 399)" fill="#1E2C26"/>
<path fill-rule="evenodd" clip-rule="evenodd" d="M38.453 413L44.2265 403L50 413L45.2265 413L45.2265 427L43.2265 427L43.2265 413L38.453 413Z" fill="#354E43"/>
<path fill-rule="evenodd" clip-rule="evenodd" d="M61.547 417L55.7735 427L50 417L54.7735 417L54.7735 403L56.7735 403L56.7735 417L61.547 417Z" fill="#354E43"/>
<rect x="34" y="399" width="32" height="32" stroke="#5A8C77"/>
<path d="M29.904 440.2V457H28.176V441.736H24.216V440.2H29.904ZM38.4319 457.12C37.4079 457.12 36.4239 456.976 35.4799 456.688C34.5519 456.384 33.8239 456.008 33.2959 455.56L34.0639 454.216C34.5919 454.632 35.2559 454.976 36.0559 455.248C36.8559 455.504 37.6879 455.632 38.5519 455.632C39.7039 455.632 40.5519 455.456 41.0959 455.104C41.6559 454.736 41.9359 454.224 41.9359 453.568C41.9359 453.104 41.7839 452.744 41.4799 452.488C41.1759 452.216 40.7919 452.016 40.3279 451.888C39.8639 451.744 39.2479 451.608 38.4799 451.48C37.4559 451.288 36.6319 451.096 36.0079 450.904C35.3839 450.696 34.8479 450.352 34.3999 449.872C33.9679 449.392 33.7519 448.728 33.7519 447.88C33.7519 446.824 34.1919 445.96 35.0719 445.288C35.9519 444.616 37.1759 444.28 38.7439 444.28C39.5599 444.28 40.3759 444.392 41.1919 444.616C42.0079 444.824 42.6799 445.104 43.2079 445.456L42.4639 446.824C41.4239 446.104 40.1839 445.744 38.7439 445.744C37.6559 445.744 36.8319 445.936 36.2719 446.32C35.7279 446.704 35.4559 447.208 35.4559 447.832C35.4559 448.312 35.6079 448.696 35.9119 448.984C36.2319 449.272 36.6239 449.488 37.0879 449.632C37.5519 449.76 38.1919 449.896 39.0079 450.04C40.0159 450.232 40.8239 450.424 41.4319 450.616C42.0399 450.808 42.5599 451.136 42.9919 451.6C43.4239 452.064 43.6399 452.704 43.6399 453.52C43.6399 454.624 43.1759 455.504 42.2479 456.16C41.3359 456.8 40.0639 457.12 38.4319 457.12Z" fill="#71AA91"/>
<rect width="32" height="32" transform="translate(101 370)" fill="#1E2C26"/>
<rect width="32" height="32" transform="translate(101 370)" fill="#1E2C26"/>
<path fill-rule="evenodd" clip-rule="evenodd" d="M105.453 384L111.226 374L117 384L112.226 384L112.226 398L110.226 398L110.226 384L105.453 384Z" fill="#354E43"/>
<path fill-rule="evenodd" clip-rule="evenodd" d="M128.547 388L122.774 398L117 388L121.774 388L121.774 374L123.774 374L123.774 388L128.547 388Z" fill="#354E43"/>
<rect x="101" y="370" width="32" height="32" stroke="#5A8C77" stroke-width="1.2"/>
<path d="M108.72 423.464V425H96.936V423.776L103.92 416.936C104.8 416.072 105.392 415.328 105.696 414.704C106.016 414.064 106.176 413.424 106.176 412.784C106.176 411.792 105.832 411.024 105.144 410.48C104.472 409.92 103.504 409.64 102.24 409.64C100.272 409.64 98.744 410.264 97.656 411.512L96.432 410.456C97.088 409.688 97.92 409.096 98.928 408.68C99.952 408.264 101.104 408.056 102.384 408.056C104.096 408.056 105.448 408.464 106.44 409.28C107.448 410.08 107.952 411.184 107.952 412.592C107.952 413.456 107.76 414.288 107.376 415.088C106.992 415.888 106.264 416.808 105.192 417.848L99.48 423.464H108.72ZM115.401 425.12C114.377 425.12 113.393 424.976 112.449 424.688C111.521 424.384 110.793 424.008 110.265 423.56L111.033 422.216C111.561 422.632 112.225 422.976 113.025 423.248C113.825 423.504 114.657 423.632 115.521 423.632C116.673 423.632 117.521 423.456 118.065 423.104C118.625 422.736 118.905 422.224 118.905 421.568C118.905 421.104 118.753 420.744 118.449 420.488C118.145 420.216 117.761 420.016 117.297 419.888C116.833 419.744 116.217 419.608 115.449 419.48C114.425 419.288 113.601 419.096 112.977 418.904C112.353 418.696 111.817 418.352 111.369 417.872C110.937 417.392 110.721 416.728 110.721 415.88C110.721 414.824 111.161 413.96 112.041 413.288C112.921 412.616 114.145 412.28 115.713 412.28C116.529 412.28 117.345 412.392 118.161 412.616C118.977 412.824 119.649 413.104 120.177 413.456L119.433 414.824C118.393 414.104 117.153 413.744 115.713 413.744C114.625 413.744 113.801 413.936 113.241 414.32C112.697 414.704 112.425 415.208 112.425 415.832C112.425 416.312 112.577 416.696 112.881 416.984C113.201 417.272 113.593 417.488 114.057 417.632C114.521 417.76 115.161 417.896 115.977 418.04C116.985 418.232 117.793 418.424 118.401 418.616C119.009 418.808 119.529 419.136 119.961 419.6C120.393 420.064 120.609 420.704 120.609 421.52C120.609 422.624 120.145 423.504 119.217 424.16C118.305 424.8 117.033 425.12 115.401 425.12Z" fill="#71AA91"/>
<rect width="96" height="32" transform="translate(71 312)" fill="#1E2C26"/>
<rect width="32" height="32" transform="translate(71 312)" fill="#1E2C26"/>
<path fill-rule="evenodd" clip-rule="evenodd" d="M75.453 326L81.2265 316L87 326L82.2265 326L82.2265 340L80.2265 340L80.2265 326L75.453 326Z" fill="#354E43"/>
<path fill-rule="evenodd" clip-rule="evenodd" d="M98.547 330L92.7735 340L87 330L91.7735 330L91.7735 316L93.7735 316L93.7735 330L98.547 330Z" fill="#354E43"/>
<rect x="71" y="312" width="32" height="32" stroke="#5A8C77" stroke-width="1.2"/>
<rect width="32" height="32" transform="translate(103 312)" fill="#1E2C26"/>
<path fill-rule="evenodd" clip-rule="evenodd" d="M107.453 326L113.226 316L119 326L114.226 326L114.226 340L112.226 340L112.226 326L107.453 326Z" fill="#354E43"/>
<path fill-rule="evenodd" clip-rule="evenodd" d="M130.547 330L124.774 340L119 330L123.774 330L123.774 316L125.774 316L125.774 330L130.547 330Z" fill="#354E43"/>
<rect x="103" y="312" width="32" height="32" stroke="#5A8C77" stroke-width="1.2"/>
<rect width="32" height="32" transform="translate(135 312)" fill="#1E2C26"/>
<path fill-rule="evenodd" clip-rule="evenodd" d="M139.453 326L145.226 316L151 326L146.226 326L146.226 340L144.226 340L144.226 326L139.453 326Z" fill="#354E43"/>
<path fill-rule="evenodd" clip-rule="evenodd" d="M162.547 330L156.774 340L151 330L155.774 330L155.774 316L157.774 316L157.774 330L162.547 330Z" fill="#354E43"/>
<rect x="135" y="312" width="32" height="32" stroke="#5A8C77" stroke-width="1.2"/>
<path d="M78.72 365.464V367H66.936V365.776L73.92 358.936C74.8 358.072 75.392 357.328 75.696 356.704C76.016 356.064 76.176 355.424 76.176 354.784C76.176 353.792 75.832 353.024 75.144 352.48C74.472 351.92 73.504 351.64 72.24 351.64C70.272 351.64 68.744 352.264 67.656 353.512L66.432 352.456C67.088 351.688 67.92 351.096 68.928 350.68C69.952 350.264 71.104 350.056 72.384 350.056C74.096 350.056 75.448 350.464 76.44 351.28C77.448 352.08 77.952 353.184 77.952 354.592C77.952 355.456 77.76 356.288 77.376 357.088C76.992 357.888 76.264 358.808 75.192 359.848L69.48 365.464H78.72ZM88.5206 354.28C89.7046 354.28 90.7766 354.552 91.7366 355.096C92.6966 355.624 93.4486 356.376 93.9926 357.352C94.5366 358.328 94.8086 359.44 94.8086 360.688C94.8086 361.952 94.5366 363.072 93.9926 364.048C93.4486 365.024 92.6966 365.784 91.7366 366.328C90.7926 366.856 89.7206 367.12 88.5206 367.12C87.4966 367.12 86.5686 366.912 85.7366 366.496C84.9206 366.064 84.2486 365.44 83.7206 364.624V371.656H82.0166V354.376H83.6486V356.872C84.1606 356.04 84.8326 355.4 85.6646 354.952C86.5126 354.504 87.4646 354.28 88.5206 354.28ZM88.4006 365.608C89.2806 365.608 90.0806 365.408 90.8006 365.008C91.5206 364.592 92.0806 364.008 92.4806 363.256C92.8966 362.504 93.1046 361.648 93.1046 360.688C93.1046 359.728 92.8966 358.88 92.4806 358.144C92.0806 357.392 91.5206 356.808 90.8006 356.392C90.0806 355.976 89.2806 355.768 88.4006 355.768C87.5046 355.768 86.6966 355.976 85.9766 356.392C85.2726 356.808 84.7126 357.392 84.2966 358.144C83.8966 358.88 83.6966 359.728 83.6966 360.688C83.6966 361.648 83.8966 362.504 84.2966 363.256C84.7126 364.008 85.2726 364.592 85.9766 365.008C86.6966 365.408 87.5046 365.608 88.4006 365.608Z" fill="#71AA91"/>
<rect width="32" height="32" transform="translate(241.5 312)" fill="#1E2C26"/>
<rect width="32" height="32" transform="translate(241.5 312)" fill="#1E2C26"/>
<path fill-rule="evenodd" clip-rule="evenodd" d="M245.953 326L251.726 316L257.5 326L252.726 326L252.726 340L250.726 340L250.726 326L245.953 326Z" fill="#354E43"/>
<path fill-rule="evenodd" clip-rule="evenodd" d="M269.047 330L263.274 340L257.5 330L262.274 330L262.274 316L264.274 316L264.274 330L269.047 330Z" fill="#354E43"/>
<rect x="241.5" y="312" width="32" height="32" stroke="#5A8C77" stroke-width="1.2"/>
<path d="M243.46 357.4C245.22 357.496 246.556 357.976 247.468 358.84C248.396 359.688 248.86 360.8 248.86 362.176C248.86 363.136 248.628 363.992 248.164 364.744C247.7 365.48 247.012 366.064 246.1 366.496C245.188 366.928 244.076 367.144 242.764 367.144C241.548 367.144 240.396 366.952 239.308 366.568C238.236 366.168 237.372 365.64 236.716 364.984L237.556 363.616C238.116 364.192 238.86 364.664 239.788 365.032C240.716 365.384 241.708 365.56 242.764 365.56C244.14 365.56 245.204 365.264 245.956 364.672C246.708 364.064 247.084 363.232 247.084 362.176C247.084 361.136 246.708 360.32 245.956 359.728C245.204 359.136 244.068 358.84 242.548 358.84H241.348V357.568L246.004 351.736H237.412V350.2H248.212V351.424L243.46 357.4ZM255.807 367.12C254.783 367.12 253.799 366.976 252.855 366.688C251.927 366.384 251.199 366.008 250.671 365.56L251.439 364.216C251.967 364.632 252.631 364.976 253.431 365.248C254.231 365.504 255.063 365.632 255.927 365.632C257.079 365.632 257.927 365.456 258.471 365.104C259.031 364.736 259.311 364.224 259.311 363.568C259.311 363.104 259.159 362.744 258.855 362.488C258.551 362.216 258.167 362.016 257.703 361.888C257.239 361.744 256.623 361.608 255.855 361.48C254.831 361.288 254.007 361.096 253.383 360.904C252.759 360.696 252.223 360.352 251.775 359.872C251.343 359.392 251.127 358.728 251.127 357.88C251.127 356.824 251.567 355.96 252.447 355.288C253.327 354.616 254.551 354.28 256.119 354.28C256.935 354.28 257.751 354.392 258.567 354.616C259.383 354.824 260.055 355.104 260.583 355.456L259.839 356.824C258.799 356.104 257.559 355.744 256.119 355.744C255.031 355.744 254.207 355.936 253.647 356.32C253.103 356.704 252.831 357.208 252.831 357.832C252.831 358.312 252.983 358.696 253.287 358.984C253.607 359.272 253.999 359.488 254.463 359.632C254.927 359.76 255.567 359.896 256.383 360.04C257.391 360.232 258.199 360.424 258.807 360.616C259.415 360.808 259.935 361.136 260.367 361.6C260.799 362.064 261.015 362.704 261.015 363.52C261.015 364.624 260.551 365.504 259.623 366.16C258.711 366.8 257.439 367.12 255.807 367.12Z" fill="#71AA91"/>
<rect width="96" height="32" transform="translate(209 254)" fill="#1E2C26"/>
<rect width="32" height="32" transform="translate(209 254)" fill="#1E2C26"/>
<path fill-rule="evenodd" clip-rule="evenodd" d="M213.453 268L219.226 258L225 268L220.226 268L220.226 282L218.226 282L218.226 268L213.453 268Z" fill="#354E43"/>
<path fill-rule="evenodd" clip-rule="evenodd" d="M236.547 272L230.774 282L225 272L229.774 272L229.774 258L231.774 258L231.774 272L236.547 272Z" fill="#354E43"/>
<rect x="209" y="254" width="32" height="32" stroke="#5A8C77" stroke-width="1.2"/>
<rect width="32" height="32" transform="translate(241 254)" fill="#1E2C26"/>
<path fill-rule="evenodd" clip-rule="evenodd" d="M245.453 268L251.226 258L257 268L252.226 268L252.226 282L250.226 282L250.226 268L245.453 268Z" fill="#354E43"/>
<path fill-rule="evenodd" clip-rule="evenodd" d="M268.547 272L262.774 282L257 272L261.774 272L261.774 258L263.774 258L263.774 272L268.547 272Z" fill="#354E43"/>
<rect x="241" y="254" width="32" height="32" stroke="#5A8C77" stroke-width="1.2"/>
<rect width="32" height="32" transform="translate(273 254)" fill="#1E2C26"/>
<path fill-rule="evenodd" clip-rule="evenodd" d="M277.453 268L283.226 258L289 268L284.226 268L284.226 282L282.226 282L282.226 268L277.453 268Z" fill="#354E43"/>
<path fill-rule="evenodd" clip-rule="evenodd" d="M300.547 272L294.774 282L289 272L293.774 272L293.774 258L295.774 258L295.774 272L300.547 272Z" fill="#354E43"/>
<rect x="273" y="254" width="32" height="32" stroke="#5A8C77" stroke-width="1.2"/>
<path d="M210.96 299.4C212.72 299.496 214.056 299.976 214.968 300.84C215.896 301.688 216.36 302.8 216.36 304.176C216.36 305.136 216.128 305.992 215.664 306.744C215.2 307.48 214.512 308.064 213.6 308.496C212.688 308.928 211.576 309.144 210.264 309.144C209.048 309.144 207.896 308.952 206.808 308.568C205.736 308.168 204.872 307.64 204.216 306.984L205.056 305.616C205.616 306.192 206.36 306.664 207.288 307.032C208.216 307.384 209.208 307.56 210.264 307.56C211.64 307.56 212.704 307.264 213.456 306.672C214.208 306.064 214.584 305.232 214.584 304.176C214.584 303.136 214.208 302.32 213.456 301.728C212.704 301.136 211.568 300.84 210.048 300.84H208.848V299.568L213.504 293.736H204.912V292.2H215.712V293.424L210.96 299.4ZM226.427 296.28C227.611 296.28 228.683 296.552 229.643 297.096C230.603 297.624 231.355 298.376 231.899 299.352C232.443 300.328 232.715 301.44 232.715 302.688C232.715 303.952 232.443 305.072 231.899 306.048C231.355 307.024 230.603 307.784 229.643 308.328C228.699 308.856 227.627 309.12 226.427 309.12C225.403 309.12 224.475 308.912 223.643 308.496C222.827 308.064 222.155 307.44 221.627 306.624V313.656H219.923V296.376H221.555V298.872C222.067 298.04 222.739 297.4 223.571 296.952C224.419 296.504 225.371 296.28 226.427 296.28ZM226.307 307.608C227.187 307.608 227.987 307.408 228.707 307.008C229.427 306.592 229.987 306.008 230.387 305.256C230.803 304.504 231.011 303.648 231.011 302.688C231.011 301.728 230.803 300.88 230.387 300.144C229.987 299.392 229.427 298.808 228.707 298.392C227.987 297.976 227.187 297.768 226.307 297.768C225.411 297.768 224.603 297.976 223.883 298.392C223.179 298.808 222.619 299.392 222.203 300.144C221.803 300.88 221.603 301.728 221.603 302.688C221.603 303.648 221.803 304.504 222.203 305.256C222.619 306.008 223.179 306.592 223.883 307.008C224.603 307.408 225.411 307.608 226.307 307.608Z" fill="#71AA91"/>
<rect width="160" height="32" transform="translate(177 196)" fill="#1E2C26"/>
<rect width="32" height="32" transform="translate(177 196)" fill="#1E2C26"/>
<path fill-rule="evenodd" clip-rule="evenodd" d="M181.453 210L187.226 200L193 210L188.226 210L188.226 224L186.226 224L186.226 210L181.453 210Z" fill="#354E43"/>
<path fill-rule="evenodd" clip-rule="evenodd" d="M204.547 214L198.774 224L193 214L197.774 214L197.774 200L199.774 200L199.774 214L204.547 214Z" fill="#354E43"/>
<rect x="177" y="196" width="32" height="32" stroke="#5A8C77" stroke-width="1.2"/>
<rect width="32" height="32" transform="translate(209 196)" fill="#1E2C26"/>
<path fill-rule="evenodd" clip-rule="evenodd" d="M213.453 210L219.226 200L225 210L220.226 210L220.226 224L218.226 224L218.226 210L213.453 210Z" fill="#354E43"/>
<path fill-rule="evenodd" clip-rule="evenodd" d="M236.547 214L230.774 224L225 214L229.774 214L229.774 200L231.774 200L231.774 214L236.547 214Z" fill="#354E43"/>
<rect x="209" y="196" width="32" height="32" stroke="#5A8C77" stroke-width="1.2"/>
<rect width="32" height="32" transform="translate(241 196)" fill="#1E2C26"/>
<path fill-rule="evenodd" clip-rule="evenodd" d="M245.453 210L251.226 200L257 210L252.226 210L252.226 224L250.226 224L250.226 210L245.453 210Z" fill="#354E43"/>
<path fill-rule="evenodd" clip-rule="evenodd" d="M268.547 214L262.774 224L257 214L261.774 214L261.774 200L263.774 200L263.774 214L268.547 214Z" fill="#354E43"/>
<rect x="241" y="196" width="32" height="32" stroke="#5A8C77" stroke-width="1.2"/>
<rect width="32" height="32" transform="translate(273 196)" fill="#1E2C26"/>
<path fill-rule="evenodd" clip-rule="evenodd" d="M277.453 210L283.226 200L289 210L284.226 210L284.226 224L282.226 224L282.226 210L277.453 210Z" fill="#354E43"/>
<path fill-rule="evenodd" clip-rule="evenodd" d="M300.547 214L294.774 224L289 214L293.774 214L293.774 200L295.774 200L295.774 214L300.547 214Z" fill="#354E43"/>
<rect x="273" y="196" width="32" height="32" stroke="#5A8C77" stroke-width="1.2"/>
<rect width="32" height="32" transform="translate(305 196)" fill="#1E2C26"/>
<path fill-rule="evenodd" clip-rule="evenodd" d="M309.453 210L315.226 200L321 210L316.226 210L316.226 224L314.226 224L314.226 210L309.453 210Z" fill="#354E43"/>
<path fill-rule="evenodd" clip-rule="evenodd" d="M332.547 214L326.774 224L321 214L325.774 214L325.774 200L327.774 200L327.774 214L332.547 214Z" fill="#354E43"/>
<rect x="305" y="196" width="32" height="32" stroke="#5A8C77" stroke-width="1.2"/>
<path d="M178.96 241.4C180.72 241.496 182.056 241.976 182.968 242.84C183.896 243.688 184.36 244.8 184.36 246.176C184.36 247.136 184.128 247.992 183.664 248.744C183.2 249.48 182.512 250.064 181.6 250.496C180.688 250.928 179.576 251.144 178.264 251.144C177.048 251.144 175.896 250.952 174.808 250.568C173.736 250.168 172.872 249.64 172.216 248.984L173.056 247.616C173.616 248.192 174.36 248.664 175.288 249.032C176.216 249.384 177.208 249.56 178.264 249.56C179.64 249.56 180.704 249.264 181.456 248.672C182.208 248.064 182.584 247.232 182.584 246.176C182.584 245.136 182.208 244.32 181.456 243.728C180.704 243.136 179.568 242.84 178.048 242.84H176.848V241.568L181.504 235.736H172.912V234.2H183.712V235.424L178.96 241.4ZM199.443 233.192V251H197.811V248.504C197.299 249.352 196.619 250 195.771 250.448C194.939 250.896 193.995 251.12 192.939 251.12C191.755 251.12 190.683 250.848 189.723 250.304C188.763 249.76 188.011 249 187.467 248.024C186.923 247.048 186.651 245.936 186.651 244.688C186.651 243.44 186.923 242.328 187.467 241.352C188.011 240.376 188.763 239.624 189.723 239.096C190.683 238.552 191.755 238.28 192.939 238.28C193.963 238.28 194.883 238.496 195.699 238.928C196.531 239.344 197.211 239.96 197.739 240.776V233.192H199.443ZM193.083 249.608C193.963 249.608 194.755 249.408 195.459 249.008C196.179 248.592 196.739 248.008 197.139 247.256C197.555 246.504 197.763 245.648 197.763 244.688C197.763 243.728 197.555 242.872 197.139 242.12C196.739 241.368 196.179 240.792 195.459 240.392C194.755 239.976 193.963 239.768 193.083 239.768C192.187 239.768 191.379 239.976 190.659 240.392C189.955 240.792 189.395 241.368 188.979 242.12C188.579 242.872 188.379 243.728 188.379 244.688C188.379 245.648 188.579 246.504 188.979 247.256C189.395 248.008 189.955 248.592 190.659 249.008C191.379 249.408 192.187 249.608 193.083 249.608Z" fill="#71AA91"/>
<rect width="32" height="32" transform="translate(905.5 138)" fill="#1E2C26"/>
<rect width="32" height="32" transform="translate(905.5 138)" fill="#1E2C26"/>
<path fill-rule="evenodd" clip-rule="evenodd" d="M909.953 152L915.726 142L921.5 152L916.726 152L916.726 166L914.726 166L914.726 152L909.953 152Z" fill="#354E43"/>
<path fill-rule="evenodd" clip-rule="evenodd" d="M933.047 156L927.274 166L921.5 156L926.274 156L926.274 142L928.274 142L928.274 156L933.047 156Z" fill="#354E43"/>
<rect x="905.5" y="138" width="32" height="32" stroke="#5A8C77" stroke-width="1.2"/>
<path d="M908.708 182.944C909.812 182.944 910.788 183.152 911.636 183.568C912.5 183.984 913.172 184.576 913.652 185.344C914.132 186.096 914.372 186.976 914.372 187.984C914.372 189.008 914.124 189.912 913.628 190.696C913.132 191.48 912.444 192.088 911.564 192.52C910.7 192.936 909.724 193.144 908.636 193.144C906.412 193.144 904.708 192.416 903.524 190.96C902.34 189.488 901.748 187.416 901.748 184.744C901.748 182.872 902.068 181.288 902.708 179.992C903.348 178.696 904.244 177.72 905.396 177.064C906.548 176.392 907.892 176.056 909.428 176.056C911.092 176.056 912.42 176.36 913.412 176.968L912.716 178.36C911.916 177.832 910.828 177.568 909.452 177.568C907.596 177.568 906.14 178.16 905.084 179.344C904.028 180.512 903.5 182.216 903.5 184.456C903.5 184.856 903.524 185.312 903.572 185.824C903.988 184.912 904.652 184.208 905.564 183.712C906.476 183.2 907.524 182.944 908.708 182.944ZM908.564 191.68C909.78 191.68 910.764 191.352 911.516 190.696C912.284 190.024 912.668 189.136 912.668 188.032C912.668 186.928 912.284 186.048 911.516 185.392C910.764 184.736 909.74 184.408 908.444 184.408C907.596 184.408 906.844 184.568 906.188 184.888C905.548 185.208 905.044 185.648 904.676 186.208C904.308 186.768 904.124 187.392 904.124 188.08C904.124 188.72 904.292 189.312 904.628 189.856C904.98 190.4 905.492 190.84 906.164 191.176C906.836 191.512 907.636 191.68 908.564 191.68ZM920.885 193.12C919.861 193.12 918.877 192.976 917.933 192.688C917.005 192.384 916.277 192.008 915.749 191.56L916.517 190.216C917.045 190.632 917.709 190.976 918.509 191.248C919.309 191.504 920.141 191.632 921.005 191.632C922.157 191.632 923.005 191.456 923.549 191.104C924.109 190.736 924.389 190.224 924.389 189.568C924.389 189.104 924.237 188.744 923.933 188.488C923.629 188.216 923.245 188.016 922.781 187.888C922.317 187.744 921.701 187.608 920.933 187.48C919.909 187.288 919.085 187.096 918.461 186.904C917.837 186.696 917.301 186.352 916.853 185.872C916.421 185.392 916.205 184.728 916.205 183.88C916.205 182.824 916.645 181.96 917.525 181.288C918.405 180.616 919.629 180.28 921.197 180.28C922.013 180.28 922.829 180.392 923.645 180.616C924.461 180.824 925.133 181.104 925.661 181.456L924.917 182.824C923.877 182.104 922.637 181.744 921.197 181.744C920.109 181.744 919.285 181.936 918.725 182.32C918.181 182.704 917.909 183.208 917.909 183.832C917.909 184.312 918.061 184.696 918.365 184.984C918.685 185.272 919.077 185.488 919.541 185.632C920.005 185.76 920.645 185.896 921.461 186.04C922.469 186.232 923.277 186.424 923.885 186.616C924.493 186.808 925.013 187.136 925.445 187.6C925.877 188.064 926.093 188.704 926.093 189.52C926.093 190.624 925.629 191.504 924.701 192.16C923.789 192.8 922.517 193.12 920.885 193.12Z" fill="#71AA91"/>
<rect width="96" height="32" transform="translate(873 80)" fill="#1E2C26"/>
<rect width="32" height="32" transform="translate(873 80)" fill="#1E2C26"/>
<path fill-rule="evenodd" clip-rule="evenodd" d="M877.453 94L883.226 84L889 94L884.226 94L884.226 108L882.226 108L882.226 94L877.453 94Z" fill="#354E43"/>
<path fill-rule="evenodd" clip-rule="evenodd" d="M900.547 98L894.774 108L889 98L893.774 98L893.774 84L895.774 84L895.774 98L900.547 98Z" fill="#354E43"/>
<rect x="873" y="80" width="32" height="32" stroke="#5A8C77" stroke-width="1.2"/>
<rect width="32" height="32" transform="translate(905 80)" fill="#1E2C26"/>
<path fill-rule="evenodd" clip-rule="evenodd" d="M909.453 94L915.226 84L921 94L916.226 94L916.226 108L914.226 108L914.226 94L909.453 94Z" fill="#354E43"/>
<path fill-rule="evenodd" clip-rule="evenodd" d="M932.547 98L926.774 108L921 98L925.774 98L925.774 84L927.774 84L927.774 98L932.547 98Z" fill="#354E43"/>
<rect x="905" y="80" width="32" height="32" stroke="#5A8C77" stroke-width="1.2"/>
<rect width="32" height="32" transform="translate(937 80)" fill="#1E2C26"/>
<path fill-rule="evenodd" clip-rule="evenodd" d="M941.453 94L947.226 84L953 94L948.226 94L948.226 108L946.226 108L946.226 94L941.453 94Z" fill="#354E43"/>
<path fill-rule="evenodd" clip-rule="evenodd" d="M964.547 98L958.774 108L953 98L957.774 98L957.774 84L959.774 84L959.774 98L964.547 98Z" fill="#354E43"/>
<rect x="937" y="80" width="32" height="32" stroke="#5A8C77" stroke-width="1.2"/>
<path d="M876.208 124.944C877.312 124.944 878.288 125.152 879.136 125.568C880 125.984 880.672 126.576 881.152 127.344C881.632 128.096 881.872 128.976 881.872 129.984C881.872 131.008 881.624 131.912 881.128 132.696C880.632 133.48 879.944 134.088 879.064 134.52C878.2 134.936 877.224 135.144 876.136 135.144C873.912 135.144 872.208 134.416 871.024 132.96C869.84 131.488 869.248 129.416 869.248 126.744C869.248 124.872 869.568 123.288 870.208 121.992C870.848 120.696 871.744 119.72 872.896 119.064C874.048 118.392 875.392 118.056 876.928 118.056C878.592 118.056 879.92 118.36 880.912 118.968L880.216 120.36C879.416 119.832 878.328 119.568 876.952 119.568C875.096 119.568 873.64 120.16 872.584 121.344C871.528 122.512 871 124.216 871 126.456C871 126.856 871.024 127.312 871.072 127.824C871.488 126.912 872.152 126.208 873.064 125.712C873.976 125.2 875.024 124.944 876.208 124.944ZM876.064 133.68C877.28 133.68 878.264 133.352 879.016 132.696C879.784 132.024 880.168 131.136 880.168 130.032C880.168 128.928 879.784 128.048 879.016 127.392C878.264 126.736 877.24 126.408 875.944 126.408C875.096 126.408 874.344 126.568 873.688 126.888C873.048 127.208 872.544 127.648 872.176 128.208C871.808 128.768 871.624 129.392 871.624 130.08C871.624 130.72 871.792 131.312 872.128 131.856C872.48 132.4 872.992 132.84 873.664 133.176C874.336 133.512 875.136 133.68 876.064 133.68ZM891.505 122.28C892.689 122.28 893.761 122.552 894.721 123.096C895.681 123.624 896.433 124.376 896.977 125.352C897.521 126.328 897.793 127.44 897.793 128.688C897.793 129.952 897.521 131.072 896.977 132.048C896.433 133.024 895.681 133.784 894.721 134.328C893.777 134.856 892.705 135.12 891.505 135.12C890.481 135.12 889.553 134.912 888.721 134.496C887.905 134.064 887.233 133.44 886.705 132.624V139.656H885.001V122.376H886.633V124.872C887.145 124.04 887.817 123.4 888.649 122.952C889.497 122.504 890.449 122.28 891.505 122.28ZM891.385 133.608C892.265 133.608 893.065 133.408 893.785 133.008C894.505 132.592 895.065 132.008 895.465 131.256C895.881 130.504 896.089 129.648 896.089 128.688C896.089 127.728 895.881 126.88 895.465 126.144C895.065 125.392 894.505 124.808 893.785 124.392C893.065 123.976 892.265 123.768 891.385 123.768C890.489 123.768 889.681 123.976 888.961 124.392C888.257 124.808 887.697 125.392 887.281 126.144C886.881 126.88 886.681 127.728 886.681 128.688C886.681 129.648 886.881 130.504 887.281 131.256C887.697 132.008 888.257 132.592 888.961 133.008C889.681 133.408 890.489 133.608 891.385 133.608Z" fill="#71AA91"/>
<rect width="160" height="32" transform="translate(841 22)" fill="#1E2C26"/>
<rect width="32" height="32" transform="translate(841 22)" fill="#1E2C26"/>
<path fill-rule="evenodd" clip-rule="evenodd" d="M845.453 36L851.226 26L857 36L852.226 36L852.226 50L850.226 50L850.226 36L845.453 36Z" fill="#354E43"/>
<path fill-rule="evenodd" clip-rule="evenodd" d="M868.547 40L862.774 50L857 40L861.774 40L861.774 26L863.774 26L863.774 40L868.547 40Z" fill="#354E43"/>
<rect x="841" y="22" width="32" height="32" stroke="#5A8C77" stroke-width="1.2"/>
<rect width="32" height="32" transform="translate(873 22)" fill="#1E2C26"/>
<path fill-rule="evenodd" clip-rule="evenodd" d="M877.453 36L883.226 26L889 36L884.226 36L884.226 50L882.226 50L882.226 36L877.453 36Z" fill="#354E43"/>
<path fill-rule="evenodd" clip-rule="evenodd" d="M900.547 40L894.774 50L889 40L893.774 40L893.774 26L895.774 26L895.774 40L900.547 40Z" fill="#354E43"/>
<rect x="873" y="22" width="32" height="32" stroke="#5A8C77" stroke-width="1.2"/>
<rect width="32" height="32" transform="translate(905 22)" fill="#1E2C26"/>
<path fill-rule="evenodd" clip-rule="evenodd" d="M909.453 36L915.226 26L921 36L916.226 36L916.226 50L914.226 50L914.226 36L909.453 36Z" fill="#354E43"/>
<path fill-rule="evenodd" clip-rule="evenodd" d="M932.547 40L926.774 50L921 40L925.774 40L925.774 26L927.774 26L927.774 40L932.547 40Z" fill="#354E43"/>
<rect x="905" y="22" width="32" height="32" stroke="#5A8C77" stroke-width="1.2"/>
<rect width="32" height="32" transform="translate(937 22)" fill="#1E2C26"/>
<path fill-rule="evenodd" clip-rule="evenodd" d="M941.453 36L947.226 26L953 36L948.226 36L948.226 50L946.226 50L946.226 36L941.453 36Z" fill="#354E43"/>
<path fill-rule="evenodd" clip-rule="evenodd" d="M964.547 40L958.774 50L953 40L957.774 40L957.774 26L959.774 26L959.774 40L964.547 40Z" fill="#354E43"/>
<rect x="937" y="22" width="32" height="32" stroke="#5A8C77" stroke-width="1.2"/>
<rect width="32" height="32" transform="translate(969 22)" fill="#1E2C26"/>
<path fill-rule="evenodd" clip-rule="evenodd" d="M973.453 36L979.226 26L985 36L980.226 36L980.226 50L978.226 50L978.226 36L973.453 36Z" fill="#354E43"/>
<path fill-rule="evenodd" clip-rule="evenodd" d="M996.547 40L990.774 50L985 40L989.774 40L989.774 26L991.774 26L991.774 40L996.547 40Z" fill="#354E43"/>
<rect x="969" y="22" width="32" height="32" stroke="#5A8C77" stroke-width="1.2"/>
<path d="M844.208 66.944C845.312 66.944 846.288 67.152 847.136 67.568C848 67.984 848.672 68.576 849.152 69.344C849.632 70.096 849.872 70.976 849.872 71.984C849.872 73.008 849.624 73.912 849.128 74.696C848.632 75.48 847.944 76.088 847.064 76.52C846.2 76.936 845.224 77.144 844.136 77.144C841.912 77.144 840.208 76.416 839.024 74.96C837.84 73.488 837.248 71.416 837.248 68.744C837.248 66.872 837.568 65.288 838.208 63.992C838.848 62.696 839.744 61.72 840.896 61.064C842.048 60.392 843.392 60.056 844.928 60.056C846.592 60.056 847.92 60.36 848.912 60.968L848.216 62.36C847.416 61.832 846.328 61.568 844.952 61.568C843.096 61.568 841.64 62.16 840.584 63.344C839.528 64.512 839 66.216 839 68.456C839 68.856 839.024 69.312 839.072 69.824C839.488 68.912 840.152 68.208 841.064 67.712C841.976 67.2 843.024 66.944 844.208 66.944ZM844.064 75.68C845.28 75.68 846.264 75.352 847.016 74.696C847.784 74.024 848.168 73.136 848.168 72.032C848.168 70.928 847.784 70.048 847.016 69.392C846.264 68.736 845.24 68.408 843.944 68.408C843.096 68.408 842.344 68.568 841.688 68.888C841.048 69.208 840.544 69.648 840.176 70.208C839.808 70.768 839.624 71.392 839.624 72.08C839.624 72.72 839.792 73.312 840.128 73.856C840.48 74.4 840.992 74.84 841.664 75.176C842.336 75.512 843.136 75.68 844.064 75.68ZM864.732 59.192V77H863.1V74.504C862.588 75.352 861.908 76 861.06 76.448C860.228 76.896 859.284 77.12 858.228 77.12C857.044 77.12 855.972 76.848 855.012 76.304C854.052 75.76 853.3 75 852.756 74.024C852.212 73.048 851.94 71.936 851.94 70.688C851.94 69.44 852.212 68.328 852.756 67.352C853.3 66.376 854.052 65.624 855.012 65.096C855.972 64.552 857.044 64.28 858.228 64.28C859.252 64.28 860.172 64.496 860.988 64.928C861.82 65.344 862.5 65.96 863.028 66.776V59.192H864.732ZM858.372 75.608C859.252 75.608 860.044 75.408 860.748 75.008C861.468 74.592 862.028 74.008 862.428 73.256C862.844 72.504 863.052 71.648 863.052 70.688C863.052 69.728 862.844 68.872 862.428 68.12C862.028 67.368 861.468 66.792 860.748 66.392C860.044 65.976 859.252 65.768 858.372 65.768C857.476 65.768 856.668 65.976 855.948 66.392C855.244 66.792 854.684 67.368 854.268 68.12C853.868 68.872 853.668 69.728 853.668 70.688C853.668 71.648 853.868 72.504 854.268 73.256C854.684 74.008 855.244 74.592 855.948 75.008C856.668 75.408 857.476 75.608 858.372 75.608Z" fill="#71AA91"/>
<rect width="32" height="32" transform="translate(443.5 254)" fill="#1E2C26"/>
<rect width="32" height="32" transform="translate(443.5 254)" fill="#1E2C26"/>
<path fill-rule="evenodd" clip-rule="evenodd" d="M447.953 268L453.726 258L459.5 268L454.726 268L454.726 282L452.726 282L452.726 268L447.953 268Z" fill="#354E43"/>
<path fill-rule="evenodd" clip-rule="evenodd" d="M471.047 272L465.274 282L459.5 272L464.274 272L464.274 258L466.274 258L466.274 272L471.047 272Z" fill="#354E43"/>
<rect x="443.5" y="254" width="32" height="32" stroke="#5A8C77" stroke-width="1.2"/>
<path d="M454.028 304.584H450.668V309H448.94V304.584H439.46V303.336L448.364 292.2H450.284L441.692 303.048H448.988V299.16H450.668V303.048H454.028V304.584ZM460.127 309.12C459.103 309.12 458.119 308.976 457.175 308.688C456.247 308.384 455.519 308.008 454.991 307.56L455.759 306.216C456.287 306.632 456.951 306.976 457.751 307.248C458.551 307.504 459.383 307.632 460.247 307.632C461.399 307.632 462.247 307.456 462.791 307.104C463.351 306.736 463.631 306.224 463.631 305.568C463.631 305.104 463.479 304.744 463.175 304.488C462.871 304.216 462.487 304.016 462.023 303.888C461.559 303.744 460.943 303.608 460.175 303.48C459.151 303.288 458.327 303.096 457.703 302.904C457.079 302.696 456.543 302.352 456.095 301.872C455.663 301.392 455.447 300.728 455.447 299.88C455.447 298.824 455.887 297.96 456.767 297.288C457.647 296.616 458.871 296.28 460.439 296.28C461.255 296.28 462.071 296.392 462.887 296.616C463.703 296.824 464.375 297.104 464.903 297.456L464.159 298.824C463.119 298.104 461.879 297.744 460.439 297.744C459.351 297.744 458.527 297.936 457.967 298.32C457.423 298.704 457.151 299.208 457.151 299.832C457.151 300.312 457.303 300.696 457.607 300.984C457.927 301.272 458.319 301.488 458.783 301.632C459.247 301.76 459.887 301.896 460.703 302.04C461.711 302.232 462.519 302.424 463.127 302.616C463.735 302.808 464.255 303.136 464.687 303.6C465.119 304.064 465.335 304.704 465.335 305.52C465.335 306.624 464.871 307.504 463.943 308.16C463.031 308.8 461.759 309.12 460.127 309.12Z" fill="#71AA91"/>
<rect width="96" height="32" transform="translate(411 196)" fill="#1E2C26"/>
<rect width="32" height="32" transform="translate(411 196)" fill="#1E2C26"/>
<path fill-rule="evenodd" clip-rule="evenodd" d="M415.453 210L421.226 200L427 210L422.226 210L422.226 224L420.226 224L420.226 210L415.453 210Z" fill="#354E43"/>
<path fill-rule="evenodd" clip-rule="evenodd" d="M438.547 214L432.774 224L427 214L431.774 214L431.774 200L433.774 200L433.774 214L438.547 214Z" fill="#354E43"/>
<rect x="411" y="196" width="32" height="32" stroke="#5A8C77" stroke-width="1.2"/>
<rect width="32" height="32" transform="translate(443 196)" fill="#1E2C26"/>
<path fill-rule="evenodd" clip-rule="evenodd" d="M447.453 210L453.226 200L459 210L454.226 210L454.226 224L452.226 224L452.226 210L447.453 210Z" fill="#354E43"/>
<path fill-rule="evenodd" clip-rule="evenodd" d="M470.547 214L464.774 224L459 214L463.774 214L463.774 200L465.774 200L465.774 214L470.547 214Z" fill="#354E43"/>
<rect x="443" y="196" width="32" height="32" stroke="#5A8C77" stroke-width="1.2"/>
<rect width="32" height="32" transform="translate(475 196)" fill="#1E2C26"/>
<path fill-rule="evenodd" clip-rule="evenodd" d="M479.453 210L485.226 200L491 210L486.226 210L486.226 224L484.226 224L484.226 210L479.453 210Z" fill="#354E43"/>
<path fill-rule="evenodd" clip-rule="evenodd" d="M502.547 214L496.774 224L491 214L495.774 214L495.774 200L497.774 200L497.774 214L502.547 214Z" fill="#354E43"/>
<rect x="475" y="196" width="32" height="32" stroke="#5A8C77" stroke-width="1.2"/>
<path d="M421.528 246.584H418.168V251H416.44V246.584H406.96V245.336L415.864 234.2H417.784L409.192 245.048H416.488V241.16H418.168V245.048H421.528V246.584ZM430.747 238.28C431.931 238.28 433.003 238.552 433.963 239.096C434.923 239.624 435.675 240.376 436.219 241.352C436.763 242.328 437.035 243.44 437.035 244.688C437.035 245.952 436.763 247.072 436.219 248.048C435.675 249.024 434.923 249.784 433.963 250.328C433.019 250.856 431.947 251.12 430.747 251.12C429.723 251.12 428.795 250.912 427.963 250.496C427.147 250.064 426.475 249.44 425.947 248.624V255.656H424.243V238.376H425.875V240.872C426.387 240.04 427.059 239.4 427.891 238.952C428.739 238.504 429.691 238.28 430.747 238.28ZM430.627 249.608C431.507 249.608 432.307 249.408 433.027 249.008C433.747 248.592 434.307 248.008 434.707 247.256C435.123 246.504 435.331 245.648 435.331 244.688C435.331 243.728 435.123 242.88 434.707 242.144C434.307 241.392 433.747 240.808 433.027 240.392C432.307 239.976 431.507 239.768 430.627 239.768C429.731 239.768 428.923 239.976 428.203 240.392C427.499 240.808 426.939 241.392 426.523 242.144C426.123 242.88 425.923 243.728 425.923 244.688C425.923 245.648 426.123 246.504 426.523 247.256C426.939 248.008 427.499 248.592 428.203 249.008C428.923 249.408 429.731 249.608 430.627 249.608Z" fill="#71AA91"/>
<rect width="160" height="32" transform="translate(379 138)" fill="#1E2C26"/>
<rect width="32" height="32" transform="translate(379 138)" fill="#1E2C26"/>
<path fill-rule="evenodd" clip-rule="evenodd" d="M383.453 152L389.226 142L395 152L390.226 152L390.226 166L388.226 166L388.226 152L383.453 152Z" fill="#354E43"/>
<path fill-rule="evenodd" clip-rule="evenodd" d="M406.547 156L400.774 166L395 156L399.774 156L399.774 142L401.774 142L401.774 156L406.547 156Z" fill="#354E43"/>
<rect x="379" y="138" width="32" height="32" stroke="#5A8C77" stroke-width="1.2"/>
<rect width="32" height="32" transform="translate(411 138)" fill="#1E2C26"/>
<path fill-rule="evenodd" clip-rule="evenodd" d="M415.453 152L421.226 142L427 152L422.226 152L422.226 166L420.226 166L420.226 152L415.453 152Z" fill="#354E43"/>
<path fill-rule="evenodd" clip-rule="evenodd" d="M438.547 156L432.774 166L427 156L431.774 156L431.774 142L433.774 142L433.774 156L438.547 156Z" fill="#354E43"/>
<rect x="411" y="138" width="32" height="32" stroke="#5A8C77" stroke-width="1.2"/>
<rect width="32" height="32" transform="translate(443 138)" fill="#1E2C26"/>
<path fill-rule="evenodd" clip-rule="evenodd" d="M447.453 152L453.226 142L459 152L454.226 152L454.226 166L452.226 166L452.226 152L447.453 152Z" fill="#354E43"/>
<path fill-rule="evenodd" clip-rule="evenodd" d="M470.547 156L464.774 166L459 156L463.774 156L463.774 142L465.774 142L465.774 156L470.547 156Z" fill="#354E43"/>
<rect x="443" y="138" width="32" height="32" stroke="#5A8C77" stroke-width="1.2"/>
<rect width="32" height="32" transform="translate(475 138)" fill="#1E2C26"/>
<path fill-rule="evenodd" clip-rule="evenodd" d="M479.453 152L485.226 142L491 152L486.226 152L486.226 166L484.226 166L484.226 152L479.453 152Z" fill="#354E43"/>
<path fill-rule="evenodd" clip-rule="evenodd" d="M502.547 156L496.774 166L491 156L495.774 156L495.774 142L497.774 142L497.774 156L502.547 156Z" fill="#354E43"/>
<rect x="475" y="138" width="32" height="32" stroke="#5A8C77" stroke-width="1.2"/>
<rect width="32" height="32" transform="translate(507 138)" fill="#1E2C26"/>
<path fill-rule="evenodd" clip-rule="evenodd" d="M511.453 152L517.226 142L523 152L518.226 152L518.226 166L516.226 166L516.226 152L511.453 152Z" fill="#354E43"/>
<path fill-rule="evenodd" clip-rule="evenodd" d="M534.547 156L528.774 166L523 156L527.774 156L527.774 142L529.774 142L529.774 156L534.547 156Z" fill="#354E43"/>
<rect x="507" y="138" width="32" height="32" stroke="#5A8C77" stroke-width="1.2"/>
<path d="M389.528 188.584H386.168V193H384.44V188.584H374.96V187.336L383.864 176.2H385.784L377.192 187.048H384.488V183.16H386.168V187.048H389.528V188.584ZM404.044 175.192V193H402.412V190.504C401.9 191.352 401.22 192 400.372 192.448C399.54 192.896 398.596 193.12 397.54 193.12C396.356 193.12 395.284 192.848 394.324 192.304C393.364 191.76 392.612 191 392.068 190.024C391.524 189.048 391.252 187.936 391.252 186.688C391.252 185.44 391.524 184.328 392.068 183.352C392.612 182.376 393.364 181.624 394.324 181.096C395.284 180.552 396.356 180.28 397.54 180.28C398.564 180.28 399.484 180.496 400.3 180.928C401.132 181.344 401.812 181.96 402.34 182.776V175.192H404.044ZM397.684 191.608C398.564 191.608 399.356 191.408 400.06 191.008C400.78 190.592 401.34 190.008 401.74 189.256C402.156 188.504 402.364 187.648 402.364 186.688C402.364 185.728 402.156 184.872 401.74 184.12C401.34 183.368 400.78 182.792 400.06 182.392C399.356 181.976 398.564 181.768 397.684 181.768C396.788 181.768 395.98 181.976 395.26 182.392C394.556 182.792 393.996 183.368 393.58 184.12C393.18 184.872 392.98 185.728 392.98 186.688C392.98 187.648 393.18 188.504 393.58 189.256C393.996 190.008 394.556 190.592 395.26 191.008C395.98 191.408 396.788 191.608 397.684 191.608Z" fill="#71AA91"/>
<rect width="224" height="32" transform="translate(347 80)" fill="#1E2C26"/>
<rect width="32" height="32" transform="translate(347 80)" fill="#1E2C26"/>
<path fill-rule="evenodd" clip-rule="evenodd" d="M351.453 94L357.226 84L363 94L358.226 94L358.226 108L356.226 108L356.226 94L351.453 94Z" fill="#354E43"/>
<path fill-rule="evenodd" clip-rule="evenodd" d="M374.547 98L368.774 108L363 98L367.774 98L367.774 84L369.774 84L369.774 98L374.547 98Z" fill="#354E43"/>
<rect x="347" y="80" width="32" height="32" stroke="#5A8C77" stroke-width="1.2"/>
<rect width="32" height="32" transform="translate(379 80)" fill="#1E2C26"/>
<path fill-rule="evenodd" clip-rule="evenodd" d="M383.453 94L389.226 84L395 94L390.226 94L390.226 108L388.226 108L388.226 94L383.453 94Z" fill="#354E43"/>
<path fill-rule="evenodd" clip-rule="evenodd" d="M406.547 98L400.774 108L395 98L399.774 98L399.774 84L401.774 84L401.774 98L406.547 98Z" fill="#354E43"/>
<rect x="379" y="80" width="32" height="32" stroke="#5A8C77" stroke-width="1.2"/>
<rect width="32" height="32" transform="translate(411 80)" fill="#1E2C26"/>
<path fill-rule="evenodd" clip-rule="evenodd" d="M415.453 94L421.226 84L427 94L422.226 94L422.226 108L420.226 108L420.226 94L415.453 94Z" fill="#354E43"/>
<path fill-rule="evenodd" clip-rule="evenodd" d="M438.547 98L432.774 108L427 98L431.774 98L431.774 84L433.774 84L433.774 98L438.547 98Z" fill="#354E43"/>
<rect x="411" y="80" width="32" height="32" stroke="#5A8C77" stroke-width="1.2"/>
<rect width="32" height="32" transform="translate(443 80)" fill="#1E2C26"/>
<path fill-rule="evenodd" clip-rule="evenodd" d="M447.453 94L453.226 84L459 94L454.226 94L454.226 108L452.226 108L452.226 94L447.453 94Z" fill="#354E43"/>
<path fill-rule="evenodd" clip-rule="evenodd" d="M470.547 98L464.774 108L459 98L463.774 98L463.774 84L465.774 84L465.774 98L470.547 98Z" fill="#354E43"/>
<rect x="443" y="80" width="32" height="32" stroke="#5A8C77" stroke-width="1.2"/>
<rect width="32" height="32" transform="translate(475 80)" fill="#1E2C26"/>
<path fill-rule="evenodd" clip-rule="evenodd" d="M479.453 94L485.226 84L491 94L486.226 94L486.226 108L484.226 108L484.226 94L479.453 94Z" fill="#354E43"/>
<path fill-rule="evenodd" clip-rule="evenodd" d="M502.547 98L496.774 108L491 98L495.774 98L495.774 84L497.774 84L497.774 98L502.547 98Z" fill="#354E43"/>
<rect x="475" y="80" width="32" height="32" stroke="#5A8C77" stroke-width="1.2"/>
<rect width="32" height="32" transform="translate(507 80)" fill="#1E2C26"/>
<path fill-rule="evenodd" clip-rule="evenodd" d="M511.453 94L517.226 84L523 94L518.226 94L518.226 108L516.226 108L516.226 94L511.453 94Z" fill="#354E43"/>
<path fill-rule="evenodd" clip-rule="evenodd" d="M534.547 98L528.774 108L523 98L527.774 98L527.774 84L529.774 84L529.774 98L534.547 98Z" fill="#354E43"/>
<rect x="507" y="80" width="32" height="32" stroke="#5A8C77" stroke-width="1.2"/>
<rect width="32" height="32" transform="translate(539 80)" fill="#1E2C26"/>
<path fill-rule="evenodd" clip-rule="evenodd" d="M543.453 94L549.226 84L555 94L550.226 94L550.226 108L548.226 108L548.226 94L543.453 94Z" fill="#354E43"/>
<path fill-rule="evenodd" clip-rule="evenodd" d="M566.547 98L560.774 108L555 98L559.774 98L559.774 84L561.774 84L561.774 98L566.547 98Z" fill="#354E43"/>
<rect x="539" y="80" width="32" height="32" stroke="#5A8C77" stroke-width="1.2"/>
<path d="M357.528 130.584H354.168V135H352.44V130.584H342.96V129.336L351.864 118.2H353.784L345.192 129.048H352.488V125.16H354.168V129.048H357.528V130.584ZM364.419 118.512C363.683 118.512 363.123 118.712 362.739 119.112C362.371 119.512 362.187 120.104 362.187 120.888V122.376H366.075V123.816H362.235V135H360.531V123.816H358.275V122.376H360.531V120.816C360.531 119.664 360.859 118.752 361.515 118.08C362.187 117.408 363.131 117.072 364.347 117.072C364.827 117.072 365.291 117.144 365.739 117.288C366.187 117.416 366.563 117.608 366.867 117.864L366.291 119.136C365.795 118.72 365.171 118.512 364.419 118.512Z" fill="#71AA91"/>
<rect width="32" height="32" transform="translate(690.5 196)" fill="#1E2C26"/>
<rect width="32" height="32" transform="translate(690.5 196)" fill="#1E2C26"/>
<path fill-rule="evenodd" clip-rule="evenodd" d="M694.953 210L700.726 200L706.5 210L701.726 210L701.726 224L699.726 224L699.726 210L694.953 210Z" fill="#354E43"/>
<path fill-rule="evenodd" clip-rule="evenodd" d="M718.047 214L712.274 224L706.5 214L711.274 214L711.274 200L713.274 200L713.274 214L718.047 214Z" fill="#354E43"/>
<rect x="690.5" y="196" width="32" height="32" stroke="#5A8C77" stroke-width="1.2"/>
<path d="M691.164 241.088C693.596 241.088 695.364 241.528 696.468 242.408C697.588 243.272 698.148 244.488 698.148 246.056C698.148 247.032 697.916 247.904 697.452 248.672C697.004 249.44 696.324 250.048 695.412 250.496C694.5 250.928 693.38 251.144 692.052 251.144C690.852 251.144 689.708 250.952 688.62 250.568C687.548 250.168 686.684 249.64 686.028 248.984L686.868 247.616C687.428 248.192 688.164 248.664 689.076 249.032C689.988 249.384 690.972 249.56 692.028 249.56C693.42 249.56 694.492 249.248 695.244 248.624C696.012 248 696.396 247.168 696.396 246.128C696.396 244.976 695.964 244.104 695.1 243.512C694.252 242.92 692.812 242.624 690.78 242.624H687.204L688.068 234.2H697.26V235.736H689.58L689.004 241.088H691.164ZM704.854 251.12C703.83 251.12 702.846 250.976 701.902 250.688C700.974 250.384 700.246 250.008 699.718 249.56L700.486 248.216C701.014 248.632 701.678 248.976 702.478 249.248C703.278 249.504 704.11 249.632 704.974 249.632C706.126 249.632 706.974 249.456 707.518 249.104C708.078 248.736 708.358 248.224 708.358 247.568C708.358 247.104 708.206 246.744 707.902 246.488C707.598 246.216 707.214 246.016 706.75 245.888C706.286 245.744 705.67 245.608 704.902 245.48C703.878 245.288 703.054 245.096 702.43 244.904C701.806 244.696 701.27 244.352 700.822 243.872C700.39 243.392 700.174 242.728 700.174 241.88C700.174 240.824 700.614 239.96 701.494 239.288C702.374 238.616 703.598 238.28 705.166 238.28C705.982 238.28 706.798 238.392 707.614 238.616C708.43 238.824 709.102 239.104 709.63 239.456L708.886 240.824C707.846 240.104 706.606 239.744 705.166 239.744C704.078 239.744 703.254 239.936 702.694 240.32C702.15 240.704 701.878 241.208 701.878 241.832C701.878 242.312 702.03 242.696 702.334 242.984C702.654 243.272 703.046 243.488 703.51 243.632C703.974 243.76 704.614 243.896 705.43 244.04C706.438 244.232 707.246 244.424 707.854 244.616C708.462 244.808 708.982 245.136 709.414 245.6C709.846 246.064 710.062 246.704 710.062 247.52C710.062 248.624 709.598 249.504 708.67 250.16C707.758 250.8 706.486 251.12 704.854 251.12Z" fill="#71AA91"/>
<rect width="96" height="32" transform="translate(658 138)" fill="#1E2C26"/>
<rect width="32" height="32" transform="translate(658 138)" fill="#1E2C26"/>
<path fill-rule="evenodd" clip-rule="evenodd" d="M662.453 152L668.226 142L674 152L669.226 152L669.226 166L667.226 166L667.226 152L662.453 152Z" fill="#354E43"/>
<path fill-rule="evenodd" clip-rule="evenodd" d="M685.547 156L679.774 166L674 156L678.774 156L678.774 142L680.774 142L680.774 156L685.547 156Z" fill="#354E43"/>
<rect x="658" y="138" width="32" height="32" stroke="#5A8C77" stroke-width="1.2"/>
<rect width="32" height="32" transform="translate(690 138)" fill="#1E2C26"/>
<path fill-rule="evenodd" clip-rule="evenodd" d="M694.453 152L700.226 142L706 152L701.226 152L701.226 166L699.226 166L699.226 152L694.453 152Z" fill="#354E43"/>
<path fill-rule="evenodd" clip-rule="evenodd" d="M717.547 156L711.774 166L706 156L710.774 156L710.774 142L712.774 142L712.774 156L717.547 156Z" fill="#354E43"/>
<rect x="690" y="138" width="32" height="32" stroke="#5A8C77" stroke-width="1.2"/>
<rect width="32" height="32" transform="translate(722 138)" fill="#1E2C26"/>
<path fill-rule="evenodd" clip-rule="evenodd" d="M726.453 152L732.226 142L738 152L733.226 152L733.226 166L731.226 166L731.226 152L726.453 152Z" fill="#354E43"/>
<path fill-rule="evenodd" clip-rule="evenodd" d="M749.547 156L743.774 166L738 156L742.774 156L742.774 142L744.774 142L744.774 156L749.547 156Z" fill="#354E43"/>
<rect x="722" y="138" width="32" height="32" stroke="#5A8C77" stroke-width="1.2"/>
<path d="M658.664 183.088C661.096 183.088 662.864 183.528 663.968 184.408C665.088 185.272 665.648 186.488 665.648 188.056C665.648 189.032 665.416 189.904 664.952 190.672C664.504 191.44 663.824 192.048 662.912 192.496C662 192.928 660.88 193.144 659.552 193.144C658.352 193.144 657.208 192.952 656.12 192.568C655.048 192.168 654.184 191.64 653.528 190.984L654.368 189.616C654.928 190.192 655.664 190.664 656.576 191.032C657.488 191.384 658.472 191.56 659.528 191.56C660.92 191.56 661.992 191.248 662.744 190.624C663.512 190 663.896 189.168 663.896 188.128C663.896 186.976 663.464 186.104 662.6 185.512C661.752 184.92 660.312 184.624 658.28 184.624H654.704L655.568 176.2H664.76V177.736H657.08L656.504 183.088H658.664ZM675.474 180.28C676.658 180.28 677.73 180.552 678.69 181.096C679.65 181.624 680.402 182.376 680.946 183.352C681.49 184.328 681.762 185.44 681.762 186.688C681.762 187.952 681.49 189.072 680.946 190.048C680.402 191.024 679.65 191.784 678.69 192.328C677.746 192.856 676.674 193.12 675.474 193.12C674.45 193.12 673.522 192.912 672.69 192.496C671.874 192.064 671.202 191.44 670.674 190.624V197.656H668.97V180.376H670.602V182.872C671.114 182.04 671.786 181.4 672.618 180.952C673.466 180.504 674.418 180.28 675.474 180.28ZM675.354 191.608C676.234 191.608 677.034 191.408 677.754 191.008C678.474 190.592 679.034 190.008 679.434 189.256C679.85 188.504 680.058 187.648 680.058 186.688C680.058 185.728 679.85 184.88 679.434 184.144C679.034 183.392 678.474 182.808 677.754 182.392C677.034 181.976 676.234 181.768 675.354 181.768C674.458 181.768 673.65 181.976 672.93 182.392C672.226 182.808 671.666 183.392 671.25 184.144C670.85 184.88 670.65 185.728 670.65 186.688C670.65 187.648 670.85 188.504 671.25 189.256C671.666 190.008 672.226 190.592 672.93 191.008C673.65 191.408 674.458 191.608 675.354 191.608Z" fill="#71AA91"/>
<rect width="160" height="32" transform="translate(626 80)" fill="#1E2C26"/>
<rect width="32" height="32" transform="translate(626 80)" fill="#1E2C26"/>
<path fill-rule="evenodd" clip-rule="evenodd" d="M630.453 94L636.226 84L642 94L637.226 94L637.226 108L635.226 108L635.226 94L630.453 94Z" fill="#354E43"/>
<path fill-rule="evenodd" clip-rule="evenodd" d="M653.547 98L647.774 108L642 98L646.774 98L646.774 84L648.774 84L648.774 98L653.547 98Z" fill="#354E43"/>
<rect x="626" y="80" width="32" height="32" stroke="#5A8C77" stroke-width="1.2"/>
<rect width="32" height="32" transform="translate(658 80)" fill="#1E2C26"/>
<path fill-rule="evenodd" clip-rule="evenodd" d="M662.453 94L668.226 84L674 94L669.226 94L669.226 108L667.226 108L667.226 94L662.453 94Z" fill="#354E43"/>
<path fill-rule="evenodd" clip-rule="evenodd" d="M685.547 98L679.774 108L674 98L678.774 98L678.774 84L680.774 84L680.774 98L685.547 98Z" fill="#354E43"/>
<rect x="658" y="80" width="32" height="32" stroke="#5A8C77" stroke-width="1.2"/>
<rect width="32" height="32" transform="translate(690 80)" fill="#1E2C26"/>
<path fill-rule="evenodd" clip-rule="evenodd" d="M694.453 94L700.226 84L706 94L701.226 94L701.226 108L699.226 108L699.226 94L694.453 94Z" fill="#354E43"/>
<path fill-rule="evenodd" clip-rule="evenodd" d="M717.547 98L711.774 108L706 98L710.774 98L710.774 84L712.774 84L712.774 98L717.547 98Z" fill="#354E43"/>
<rect x="690" y="80" width="32" height="32" stroke="#5A8C77" stroke-width="1.2"/>
<rect width="32" height="32" transform="translate(722 80)" fill="#1E2C26"/>
<path fill-rule="evenodd" clip-rule="evenodd" d="M726.453 94L732.226 84L738 94L733.226 94L733.226 108L731.226 108L731.226 94L726.453 94Z" fill="#354E43"/>
<path fill-rule="evenodd" clip-rule="evenodd" d="M749.547 98L743.774 108L738 98L742.774 98L742.774 84L744.774 84L744.774 98L749.547 98Z" fill="#354E43"/>
<rect x="722" y="80" width="32" height="32" stroke="#5A8C77" stroke-width="1.2"/>
<rect width="32" height="32" transform="translate(754 80)" fill="#1E2C26"/>
<path fill-rule="evenodd" clip-rule="evenodd" d="M758.453 94L764.226 84L770 94L765.226 94L765.226 108L763.226 108L763.226 94L758.453 94Z" fill="#354E43"/>
<path fill-rule="evenodd" clip-rule="evenodd" d="M781.547 98L775.774 108L770 98L774.774 98L774.774 84L776.774 84L776.774 98L781.547 98Z" fill="#354E43"/>
<rect x="754" y="80" width="32" height="32" stroke="#5A8C77" stroke-width="1.2"/>
<path d="M626.664 125.088C629.096 125.088 630.864 125.528 631.968 126.408C633.088 127.272 633.648 128.488 633.648 130.056C633.648 131.032 633.416 131.904 632.952 132.672C632.504 133.44 631.824 134.048 630.912 134.496C630 134.928 628.88 135.144 627.552 135.144C626.352 135.144 625.208 134.952 624.12 134.568C623.048 134.168 622.184 133.64 621.528 132.984L622.368 131.616C622.928 132.192 623.664 132.664 624.576 133.032C625.488 133.384 626.472 133.56 627.528 133.56C628.92 133.56 629.992 133.248 630.744 132.624C631.512 132 631.896 131.168 631.896 130.128C631.896 128.976 631.464 128.104 630.6 127.512C629.752 126.92 628.312 126.624 626.28 126.624H622.704L623.568 118.2H632.76V119.736H625.08L624.504 125.088H626.664ZM648.49 117.192V135H646.858V132.504C646.346 133.352 645.666 134 644.818 134.448C643.986 134.896 643.042 135.12 641.986 135.12C640.802 135.12 639.73 134.848 638.77 134.304C637.81 133.76 637.058 133 636.514 132.024C635.97 131.048 635.698 129.936 635.698 128.688C635.698 127.44 635.97 126.328 636.514 125.352C637.058 124.376 637.81 123.624 638.77 123.096C639.73 122.552 640.802 122.28 641.986 122.28C643.01 122.28 643.93 122.496 644.746 122.928C645.578 123.344 646.258 123.96 646.786 124.776V117.192H648.49ZM642.13 133.608C643.01 133.608 643.802 133.408 644.506 133.008C645.226 132.592 645.786 132.008 646.186 131.256C646.602 130.504 646.81 129.648 646.81 128.688C646.81 127.728 646.602 126.872 646.186 126.12C645.786 125.368 645.226 124.792 644.506 124.392C643.802 123.976 643.01 123.768 642.13 123.768C641.234 123.768 640.426 123.976 639.706 124.392C639.002 124.792 638.442 125.368 638.026 126.12C637.626 126.872 637.426 127.728 637.426 128.688C637.426 129.648 637.626 130.504 638.026 131.256C638.442 132.008 639.002 132.592 639.706 133.008C640.426 133.408 641.234 133.608 642.13 133.608Z" fill="#71AA91"/>
<rect width="224" height="32" transform="translate(594 22)" fill="#1E2C26"/>
<rect width="32" height="32" transform="translate(594 22)" fill="#1E2C26"/>
<path fill-rule="evenodd" clip-rule="evenodd" d="M598.453 36L604.226 26L610 36L605.226 36L605.226 50L603.226 50L603.226 36L598.453 36Z" fill="#354E43"/>
<path fill-rule="evenodd" clip-rule="evenodd" d="M621.547 40L615.774 50L610 40L614.774 40L614.774 26L616.774 26L616.774 40L621.547 40Z" fill="#354E43"/>
<rect x="594" y="22" width="32" height="32" stroke="#5A8C77" stroke-width="1.2"/>
<rect width="32" height="32" transform="translate(626 22)" fill="#1E2C26"/>
<path fill-rule="evenodd" clip-rule="evenodd" d="M630.453 36L636.226 26L642 36L637.226 36L637.226 50L635.226 50L635.226 36L630.453 36Z" fill="#354E43"/>
<path fill-rule="evenodd" clip-rule="evenodd" d="M653.547 40L647.774 50L642 40L646.774 40L646.774 26L648.774 26L648.774 40L653.547 40Z" fill="#354E43"/>
<rect x="626" y="22" width="32" height="32" stroke="#5A8C77" stroke-width="1.2"/>
<rect width="32" height="32" transform="translate(658 22)" fill="#1E2C26"/>
<path fill-rule="evenodd" clip-rule="evenodd" d="M662.453 36L668.226 26L674 36L669.226 36L669.226 50L667.226 50L667.226 36L662.453 36Z" fill="#354E43"/>
<path fill-rule="evenodd" clip-rule="evenodd" d="M685.547 40L679.774 50L674 40L678.774 40L678.774 26L680.774 26L680.774 40L685.547 40Z" fill="#354E43"/>
<rect x="658" y="22" width="32" height="32" stroke="#5A8C77" stroke-width="1.2"/>
<rect width="32" height="32" transform="translate(690 22)" fill="#1E2C26"/>
<path fill-rule="evenodd" clip-rule="evenodd" d="M694.453 36L700.226 26L706 36L701.226 36L701.226 50L699.226 50L699.226 36L694.453 36Z" fill="#354E43"/>
<path fill-rule="evenodd" clip-rule="evenodd" d="M717.547 40L711.774 50L706 40L710.774 40L710.774 26L712.774 26L712.774 40L717.547 40Z" fill="#354E43"/>
<rect x="690" y="22" width="32" height="32" stroke="#5A8C77" stroke-width="1.2"/>
<rect width="32" height="32" transform="translate(722 22)" fill="#1E2C26"/>
<path fill-rule="evenodd" clip-rule="evenodd" d="M726.453 36L732.226 26L738 36L733.226 36L733.226 50L731.226 50L731.226 36L726.453 36Z" fill="#354E43"/>
<path fill-rule="evenodd" clip-rule="evenodd" d="M749.547 40L743.774 50L738 40L742.774 40L742.774 26L744.774 26L744.774 40L749.547 40Z" fill="#354E43"/>
<rect x="722" y="22" width="32" height="32" stroke="#5A8C77" stroke-width="1.2"/>
<rect width="32" height="32" transform="translate(754 22)" fill="#1E2C26"/>
<path fill-rule="evenodd" clip-rule="evenodd" d="M758.453 36L764.226 26L770 36L765.226 36L765.226 50L763.226 50L763.226 36L758.453 36Z" fill="#354E43"/>
<path fill-rule="evenodd" clip-rule="evenodd" d="M781.547 40L775.774 50L770 40L774.774 40L774.774 26L776.774 26L776.774 40L781.547 40Z" fill="#354E43"/>
<rect x="754" y="22" width="32" height="32" stroke="#5A8C77" stroke-width="1.2"/>
<rect width="32" height="32" transform="translate(786 22)" fill="#1E2C26"/>
<path fill-rule="evenodd" clip-rule="evenodd" d="M790.453 36L796.226 26L802 36L797.226 36L797.226 50L795.226 50L795.226 36L790.453 36Z" fill="#354E43"/>
<path fill-rule="evenodd" clip-rule="evenodd" d="M813.547 40L807.774 50L802 40L806.774 40L806.774 26L808.774 26L808.774 40L813.547 40Z" fill="#354E43"/>
<rect x="786" y="22" width="32" height="32" stroke="#5A8C77" stroke-width="1.2"/>
<path d="M594.664 67.088C597.096 67.088 598.864 67.528 599.968 68.408C601.088 69.272 601.648 70.488 601.648 72.056C601.648 73.032 601.416 73.904 600.952 74.672C600.504 75.44 599.824 76.048 598.912 76.496C598 76.928 596.88 77.144 595.552 77.144C594.352 77.144 593.208 76.952 592.12 76.568C591.048 76.168 590.184 75.64 589.528 74.984L590.368 73.616C590.928 74.192 591.664 74.664 592.576 75.032C593.488 75.384 594.472 75.56 595.528 75.56C596.92 75.56 597.992 75.248 598.744 74.624C599.512 74 599.896 73.168 599.896 72.128C599.896 70.976 599.464 70.104 598.6 69.512C597.752 68.92 596.312 68.624 594.28 68.624H590.704L591.568 60.2H600.76V61.736H593.08L592.504 67.088H594.664ZM609.146 60.512C608.41 60.512 607.85 60.712 607.466 61.112C607.098 61.512 606.914 62.104 606.914 62.888V64.376H610.802V65.816H606.962V77H605.258V65.816H603.002V64.376H605.258V62.816C605.258 61.664 605.586 60.752 606.242 60.08C606.914 59.408 607.858 59.072 609.074 59.072C609.554 59.072 610.018 59.144 610.466 59.288C610.914 59.416 611.29 59.608 611.594 59.864L611.018 61.136C610.522 60.72 609.898 60.512 609.146 60.512Z" fill="#71AA91"/>
<rect width="32" height="32" transform="translate(1054 80)" fill="#1E2C26"/>
<rect width="32" height="32" transform="translate(1054 80)" fill="#1E2C26"/>
<path fill-rule="evenodd" clip-rule="evenodd" d="M1058.45 94L1064.23 84L1070 94L1065.23 94L1065.23 108L1063.23 108L1063.23 94L1058.45 94Z" fill="#354E43"/>
<path fill-rule="evenodd" clip-rule="evenodd" d="M1081.55 98L1075.77 108L1070 98L1074.77 98L1074.77 84L1076.77 84L1076.77 98L1081.55 98Z" fill="#354E43"/>
<rect x="1054" y="80" width="32" height="32" stroke="#5A8C77" stroke-width="1.2"/>
<path d="M1062.1 118.2V119.424L1055.07 135H1053.2L1060.11 119.736H1051.47V122.88H1049.77V118.2H1062.1ZM1068.17 135.12C1067.14 135.12 1066.16 134.976 1065.21 134.688C1064.29 134.384 1063.56 134.008 1063.03 133.56L1063.8 132.216C1064.33 132.632 1064.99 132.976 1065.79 133.248C1066.59 133.504 1067.42 133.632 1068.29 133.632C1069.44 133.632 1070.29 133.456 1070.83 133.104C1071.39 132.736 1071.67 132.224 1071.67 131.568C1071.67 131.104 1071.52 130.744 1071.21 130.488C1070.91 130.216 1070.53 130.016 1070.06 129.888C1069.6 129.744 1068.98 129.608 1068.21 129.48C1067.19 129.288 1066.37 129.096 1065.74 128.904C1065.12 128.696 1064.58 128.352 1064.13 127.872C1063.7 127.392 1063.49 126.728 1063.49 125.88C1063.49 124.824 1063.93 123.96 1064.81 123.288C1065.69 122.616 1066.91 122.28 1068.48 122.28C1069.29 122.28 1070.11 122.392 1070.93 122.616C1071.74 122.824 1072.41 123.104 1072.94 123.456L1072.2 124.824C1071.16 124.104 1069.92 123.744 1068.48 123.744C1067.39 123.744 1066.57 123.936 1066.01 124.32C1065.46 124.704 1065.19 125.208 1065.19 125.832C1065.19 126.312 1065.34 126.696 1065.65 126.984C1065.97 127.272 1066.36 127.488 1066.82 127.632C1067.29 127.76 1067.93 127.896 1068.74 128.04C1069.75 128.232 1070.56 128.424 1071.17 128.616C1071.77 128.808 1072.29 129.136 1072.73 129.6C1073.16 130.064 1073.37 130.704 1073.37 131.52C1073.37 132.624 1072.91 133.504 1071.98 134.16C1071.07 134.8 1069.8 135.12 1068.17 135.12Z" fill="#71AA91"/>
<rect width="96" height="32" transform="translate(1024 22)" fill="#1E2C26"/>
<rect width="32" height="32" transform="translate(1024 22)" fill="#1E2C26"/>
<path fill-rule="evenodd" clip-rule="evenodd" d="M1028.45 36L1034.23 26L1040 36L1035.23 36L1035.23 50L1033.23 50L1033.23 36L1028.45 36Z" fill="#354E43"/>
<path fill-rule="evenodd" clip-rule="evenodd" d="M1051.55 40L1045.77 50L1040 40L1044.77 40L1044.77 26L1046.77 26L1046.77 40L1051.55 40Z" fill="#354E43"/>
<rect x="1024" y="22" width="32" height="32" stroke="#5A8C77" stroke-width="1.2"/>
<rect width="32" height="32" transform="translate(1056 22)" fill="#1E2C26"/>
<path fill-rule="evenodd" clip-rule="evenodd" d="M1060.45 36L1066.23 26L1072 36L1067.23 36L1067.23 50L1065.23 50L1065.23 36L1060.45 36Z" fill="#354E43"/>
<path fill-rule="evenodd" clip-rule="evenodd" d="M1083.55 40L1077.77 50L1072 40L1076.77 40L1076.77 26L1078.77 26L1078.77 40L1083.55 40Z" fill="#354E43"/>
<rect x="1056" y="22" width="32" height="32" stroke="#5A8C77" stroke-width="1.2"/>
<rect width="32" height="32" transform="translate(1088 22)" fill="#1E2C26"/>
<path fill-rule="evenodd" clip-rule="evenodd" d="M1092.45 36L1098.23 26L1104 36L1099.23 36L1099.23 50L1097.23 50L1097.23 36L1092.45 36Z" fill="#354E43"/>
<path fill-rule="evenodd" clip-rule="evenodd" d="M1115.55 40L1109.77 50L1104 40L1108.77 40L1108.77 26L1110.77 26L1110.77 40L1115.55 40Z" fill="#354E43"/>
<rect x="1088" y="22" width="32" height="32" stroke="#5A8C77" stroke-width="1.2"/>
<path d="M1032.1 60.2V61.424L1025.07 77H1023.2L1030.11 61.736H1021.47V64.88H1019.77V60.2H1032.1ZM1041.38 64.28C1042.56 64.28 1043.64 64.552 1044.6 65.096C1045.56 65.624 1046.31 66.376 1046.85 67.352C1047.4 68.328 1047.67 69.44 1047.67 70.688C1047.67 71.952 1047.4 73.072 1046.85 74.048C1046.31 75.024 1045.56 75.784 1044.6 76.328C1043.65 76.856 1042.58 77.12 1041.38 77.12C1040.36 77.12 1039.43 76.912 1038.6 76.496C1037.78 76.064 1037.11 75.44 1036.58 74.624V81.656H1034.88V64.376H1036.51V66.872C1037.02 66.04 1037.69 65.4 1038.52 64.952C1039.37 64.504 1040.32 64.28 1041.38 64.28ZM1041.26 75.608C1042.14 75.608 1042.94 75.408 1043.66 75.008C1044.38 74.592 1044.94 74.008 1045.34 73.256C1045.76 72.504 1045.96 71.648 1045.96 70.688C1045.96 69.728 1045.76 68.88 1045.34 68.144C1044.94 67.392 1044.38 66.808 1043.66 66.392C1042.94 65.976 1042.14 65.768 1041.26 65.768C1040.36 65.768 1039.56 65.976 1038.84 66.392C1038.13 66.808 1037.57 67.392 1037.16 68.144C1036.76 68.88 1036.56 69.728 1036.56 70.688C1036.56 71.648 1036.76 72.504 1037.16 73.256C1037.57 74.008 1038.13 74.592 1038.84 75.008C1039.56 75.408 1040.36 75.608 1041.26 75.608Z" fill="#71AA91"/>
</svg>
