<svg width="36" height="36" viewBox="0 0 36 36" fill="none" xmlns="http://www.w3.org/2000/svg">
<path d="M21 33H15V31.5H21V33ZM19.5 15V10.5H16.5V15L15 17.25V30H21V17.25L19.5 15ZM18 3C18 3 16.5 4.5 16.5 7.5V9H19.5V7.5C19.5 7.5 19.5 4.5 18 3Z" fill="#96C2AF"/>
<path d="M31.7998 33.24H25.7998V31.74H31.7998V33.24ZM30.2998 15.24V10.74H27.2998V15.24L25.7998 17.49V30.24H31.7998V17.49L30.2998 15.24ZM28.7998 3.24002C28.7998 3.24002 27.2998 4.74002 27.2998 7.74002V9.24002H30.2998V7.74002C30.2998 7.74002 30.2998 4.74002 28.7998 3.24002Z" fill="#96C2AF"/>
<path d="M10.2002 32.88H4.2002V31.38H10.2002V32.88ZM8.7002 14.88V10.38H5.7002V14.88L4.2002 17.13V29.88H10.2002V17.13L8.7002 14.88ZM7.2002 2.88004C7.2002 2.88004 5.7002 4.38004 5.7002 7.38003V8.88003H8.7002V7.38003C8.7002 7.38003 8.7002 4.38004 7.2002 2.88004Z" fill="#96C2AF"/>
</svg>
