<svg viewBox="0 0 1166 482" fill="none" xmlns="http://www.w3.org/2000/svg">
<rect width="32" height="32" transform="translate(34 399)" fill="#1E2C26"/>
<rect width="32" height="32" transform="translate(34 399)" fill="#1E2C26"/>
<path fill-rule="evenodd" clip-rule="evenodd" d="M38.453 413L44.2265 403L50 413L45.2265 413L45.2265 427L43.2265 427L43.2265 413L38.453 413Z" fill="#354E43"/>
<path fill-rule="evenodd" clip-rule="evenodd" d="M61.547 417L55.7735 427L50 417L54.7735 417L54.7735 403L56.7735 403L56.7735 417L61.547 417Z" fill="#354E43"/>
<rect x="34" y="399" width="32" height="32" stroke="#5A8C77"/>
<path d="M28.176 457V440.92L28.944 441.736H24.216V440.2H29.904V457H28.176ZM38.4319 457.12C37.3919 457.12 36.4079 456.976 35.4799 456.688C34.5519 456.384 33.8239 456.008 33.2959 455.56L34.0639 454.216C34.5759 454.6 35.2319 454.936 36.0319 455.224C36.8319 455.496 37.6719 455.632 38.5519 455.632C39.7519 455.632 40.6159 455.448 41.1439 455.08C41.6719 454.696 41.9359 454.192 41.9359 453.568C41.9359 453.104 41.7839 452.744 41.4799 452.488C41.1919 452.216 40.8079 452.016 40.3279 451.888C39.8479 451.744 39.3119 451.624 38.7199 451.528C38.1279 451.432 37.5359 451.32 36.9439 451.192C36.3679 451.064 35.8399 450.88 35.3599 450.64C34.8799 450.384 34.4879 450.04 34.1839 449.608C33.8959 449.176 33.7519 448.6 33.7519 447.88C33.7519 447.192 33.9439 446.576 34.3279 446.032C34.7119 445.488 35.2719 445.064 36.0079 444.76C36.7599 444.44 37.6719 444.28 38.7439 444.28C39.5599 444.28 40.3759 444.392 41.1919 444.616C42.0079 444.824 42.6799 445.104 43.2079 445.456L42.4639 446.824C41.9039 446.44 41.3039 446.168 40.6639 446.008C40.0239 445.832 39.3839 445.744 38.7439 445.744C37.6079 445.744 36.7679 445.944 36.2239 446.344C35.6959 446.728 35.4319 447.224 35.4319 447.832C35.4319 448.312 35.5759 448.688 35.8639 448.96C36.1679 449.232 36.5599 449.448 37.0399 449.608C37.5359 449.752 38.0719 449.872 38.6479 449.968C39.2399 450.064 39.8239 450.184 40.3999 450.328C40.9919 450.456 41.5279 450.64 42.0079 450.88C42.5039 451.104 42.8959 451.432 43.1839 451.864C43.4879 452.28 43.6399 452.832 43.6399 453.52C43.6399 454.256 43.4319 454.896 43.0159 455.44C42.6159 455.968 42.0239 456.384 41.2399 456.688C40.4719 456.976 39.5359 457.12 38.4319 457.12Z" fill="#71AA91"/>
<rect width="32" height="32" transform="translate(101 370)" fill="#1E2C26"/>
<rect width="32" height="32" transform="translate(101 370)" fill="#1E2C26"/>
<path fill-rule="evenodd" clip-rule="evenodd" d="M105.453 384L111.226 374L117 384L112.226 384L112.226 398L110.226 398L110.226 384L105.453 384Z" fill="#354E43"/>
<path fill-rule="evenodd" clip-rule="evenodd" d="M128.547 388L122.774 398L117 388L121.774 388L121.774 374L123.774 374L123.774 388L128.547 388Z" fill="#354E43"/>
<rect x="101" y="370" width="32" height="32" stroke="#5A8C77" stroke-width="1.2"/>
<path d="M96.936 425V423.776L103.92 416.936C104.56 416.312 105.04 415.768 105.36 415.304C105.68 414.824 105.896 414.376 106.008 413.96C106.12 413.544 106.176 413.152 106.176 412.784C106.176 411.808 105.84 411.04 105.168 410.48C104.512 409.92 103.536 409.64 102.24 409.64C101.248 409.64 100.368 409.792 99.6 410.096C98.848 410.4 98.2 410.872 97.656 411.512L96.432 410.456C97.088 409.688 97.928 409.096 98.952 408.68C99.976 408.264 101.12 408.056 102.384 408.056C103.52 408.056 104.504 408.24 105.336 408.608C106.168 408.96 106.808 409.48 107.256 410.168C107.72 410.856 107.952 411.664 107.952 412.592C107.952 413.136 107.872 413.672 107.712 414.2C107.568 414.728 107.296 415.288 106.896 415.88C106.512 416.456 105.944 417.112 105.192 417.848L98.784 424.136L98.304 423.464H108.72V425H96.936ZM115.401 425.12C114.361 425.12 113.377 424.976 112.449 424.688C111.521 424.384 110.793 424.008 110.265 423.56L111.033 422.216C111.545 422.6 112.201 422.936 113.001 423.224C113.801 423.496 114.641 423.632 115.521 423.632C116.721 423.632 117.585 423.448 118.113 423.08C118.641 422.696 118.905 422.192 118.905 421.568C118.905 421.104 118.753 420.744 118.449 420.488C118.161 420.216 117.777 420.016 117.297 419.888C116.817 419.744 116.281 419.624 115.689 419.528C115.097 419.432 114.505 419.32 113.913 419.192C113.337 419.064 112.809 418.88 112.329 418.64C111.849 418.384 111.457 418.04 111.153 417.608C110.865 417.176 110.721 416.6 110.721 415.88C110.721 415.192 110.913 414.576 111.297 414.032C111.681 413.488 112.241 413.064 112.977 412.76C113.729 412.44 114.641 412.28 115.713 412.28C116.529 412.28 117.345 412.392 118.161 412.616C118.977 412.824 119.649 413.104 120.177 413.456L119.433 414.824C118.873 414.44 118.273 414.168 117.633 414.008C116.993 413.832 116.353 413.744 115.713 413.744C114.577 413.744 113.737 413.944 113.193 414.344C112.665 414.728 112.401 415.224 112.401 415.832C112.401 416.312 112.545 416.688 112.833 416.96C113.137 417.232 113.529 417.448 114.009 417.608C114.505 417.752 115.041 417.872 115.617 417.968C116.209 418.064 116.793 418.184 117.369 418.328C117.961 418.456 118.497 418.64 118.977 418.88C119.473 419.104 119.865 419.432 120.153 419.864C120.457 420.28 120.609 420.832 120.609 421.52C120.609 422.256 120.401 422.896 119.985 423.44C119.585 423.968 118.993 424.384 118.209 424.688C117.441 424.976 116.505 425.12 115.401 425.12Z" fill="#71AA91"/>
<rect width="96" height="32" transform="translate(71 312)" fill="#1E2C26"/>
<rect width="32" height="32" transform="translate(71 312)" fill="#1E2C26"/>
<path fill-rule="evenodd" clip-rule="evenodd" d="M75.453 326L81.2265 316L87 326L82.2265 326L82.2265 340L80.2265 340L80.2265 326L75.453 326Z" fill="#354E43"/>
<path fill-rule="evenodd" clip-rule="evenodd" d="M98.547 330L92.7735 340L87 330L91.7735 330L91.7735 316L93.7735 316L93.7735 330L98.547 330Z" fill="#354E43"/>
<rect x="71" y="312" width="32" height="32" stroke="#5A8C77" stroke-width="1.2"/>
<rect width="32" height="32" transform="translate(103 312)" fill="#1E2C26"/>
<path fill-rule="evenodd" clip-rule="evenodd" d="M107.453 326L113.226 316L119 326L114.226 326L114.226 340L112.226 340L112.226 326L107.453 326Z" fill="#354E43"/>
<path fill-rule="evenodd" clip-rule="evenodd" d="M130.547 330L124.774 340L119 330L123.774 330L123.774 316L125.774 316L125.774 330L130.547 330Z" fill="#354E43"/>
<rect x="103" y="312" width="32" height="32" stroke="#5A8C77" stroke-width="1.2"/>
<rect width="32" height="32" transform="translate(135 312)" fill="#1E2C26"/>
<path fill-rule="evenodd" clip-rule="evenodd" d="M139.453 326L145.226 316L151 326L146.226 326L146.226 340L144.226 340L144.226 326L139.453 326Z" fill="#354E43"/>
<path fill-rule="evenodd" clip-rule="evenodd" d="M162.547 330L156.774 340L151 330L155.774 330L155.774 316L157.774 316L157.774 330L162.547 330Z" fill="#354E43"/>
<rect x="135" y="312" width="32" height="32" stroke="#5A8C77" stroke-width="1.2"/>
<path d="M66.936 367V365.776L73.92 358.936C74.56 358.312 75.04 357.768 75.36 357.304C75.68 356.824 75.896 356.376 76.008 355.96C76.12 355.544 76.176 355.152 76.176 354.784C76.176 353.808 75.84 353.04 75.168 352.48C74.512 351.92 73.536 351.64 72.24 351.64C71.248 351.64 70.368 351.792 69.6 352.096C68.848 352.4 68.2 352.872 67.656 353.512L66.432 352.456C67.088 351.688 67.928 351.096 68.952 350.68C69.976 350.264 71.12 350.056 72.384 350.056C73.52 350.056 74.504 350.24 75.336 350.608C76.168 350.96 76.808 351.48 77.256 352.168C77.72 352.856 77.952 353.664 77.952 354.592C77.952 355.136 77.872 355.672 77.712 356.2C77.568 356.728 77.296 357.288 76.896 357.88C76.512 358.456 75.944 359.112 75.192 359.848L68.784 366.136L68.304 365.464H78.72V367H66.936ZM88.5206 367.12C87.4326 367.12 86.4486 366.872 85.5686 366.376C84.6886 365.864 83.9846 365.136 83.4566 364.192C82.9446 363.232 82.6886 362.064 82.6886 360.688C82.6886 359.312 82.9446 358.152 83.4566 357.208C83.9686 356.248 84.6646 355.52 85.5446 355.024C86.4246 354.528 87.4166 354.28 88.5206 354.28C89.7206 354.28 90.7926 354.552 91.7366 355.096C92.6966 355.624 93.4486 356.376 93.9926 357.352C94.5366 358.312 94.8086 359.424 94.8086 360.688C94.8086 361.968 94.5366 363.088 93.9926 364.048C93.4486 365.008 92.6966 365.76 91.7366 366.304C90.7926 366.848 89.7206 367.12 88.5206 367.12ZM82.0166 371.656V354.4H83.6486V358.192L83.4806 360.712L83.7206 363.256V371.656H82.0166ZM88.4006 365.608C89.2966 365.608 90.0966 365.408 90.8006 365.008C91.5046 364.592 92.0646 364.016 92.4806 363.28C92.8966 362.528 93.1046 361.664 93.1046 360.688C93.1046 359.712 92.8966 358.856 92.4806 358.12C92.0646 357.384 91.5046 356.808 90.8006 356.392C90.0966 355.976 89.2966 355.768 88.4006 355.768C87.5046 355.768 86.6966 355.976 85.9766 356.392C85.2726 356.808 84.7126 357.384 84.2966 358.12C83.8966 358.856 83.6966 359.712 83.6966 360.688C83.6966 361.664 83.8966 362.528 84.2966 363.28C84.7126 364.016 85.2726 364.592 85.9766 365.008C86.6966 365.408 87.5046 365.608 88.4006 365.608Z" fill="#71AA91"/>
<rect width="32" height="32" transform="translate(241.5 312)" fill="#1E2C26"/>
<rect width="32" height="32" transform="translate(241.5 312)" fill="#1E2C26"/>
<path fill-rule="evenodd" clip-rule="evenodd" d="M245.953 326L251.726 316L257.5 326L252.726 326L252.726 340L250.726 340L250.726 326L245.953 326Z" fill="#354E43"/>
<path fill-rule="evenodd" clip-rule="evenodd" d="M269.047 330L263.274 340L257.5 330L262.274 330L262.274 316L264.274 316L264.274 330L269.047 330Z" fill="#354E43"/>
<rect x="241.5" y="312" width="32" height="32" stroke="#5A8C77" stroke-width="1.2"/>
<path d="M242.764 367.144C241.548 367.144 240.396 366.952 239.308 366.568C238.236 366.168 237.372 365.64 236.716 364.984L237.556 363.616C238.1 364.176 238.828 364.64 239.74 365.008C240.668 365.376 241.676 365.56 242.764 365.56C244.156 365.56 245.22 365.256 245.956 364.648C246.708 364.04 247.084 363.224 247.084 362.2C247.084 361.176 246.716 360.36 245.98 359.752C245.26 359.144 244.116 358.84 242.548 358.84H241.348V357.568L246.532 351.064L246.772 351.736H237.412V350.2H248.212V351.424L243.028 357.928L242.188 357.376H242.836C244.852 357.376 246.356 357.824 247.348 358.72C248.356 359.616 248.86 360.768 248.86 362.176C248.86 363.12 248.636 363.968 248.188 364.72C247.74 365.472 247.06 366.064 246.148 366.496C245.252 366.928 244.124 367.144 242.764 367.144ZM255.807 367.12C254.767 367.12 253.783 366.976 252.855 366.688C251.927 366.384 251.199 366.008 250.671 365.56L251.439 364.216C251.951 364.6 252.607 364.936 253.407 365.224C254.207 365.496 255.047 365.632 255.927 365.632C257.127 365.632 257.991 365.448 258.519 365.08C259.047 364.696 259.311 364.192 259.311 363.568C259.311 363.104 259.159 362.744 258.855 362.488C258.567 362.216 258.183 362.016 257.703 361.888C257.223 361.744 256.687 361.624 256.095 361.528C255.503 361.432 254.911 361.32 254.319 361.192C253.743 361.064 253.215 360.88 252.735 360.64C252.255 360.384 251.863 360.04 251.559 359.608C251.271 359.176 251.127 358.6 251.127 357.88C251.127 357.192 251.319 356.576 251.703 356.032C252.087 355.488 252.647 355.064 253.383 354.76C254.135 354.44 255.047 354.28 256.119 354.28C256.935 354.28 257.751 354.392 258.567 354.616C259.383 354.824 260.055 355.104 260.583 355.456L259.839 356.824C259.279 356.44 258.679 356.168 258.039 356.008C257.399 355.832 256.759 355.744 256.119 355.744C254.983 355.744 254.143 355.944 253.599 356.344C253.071 356.728 252.807 357.224 252.807 357.832C252.807 358.312 252.951 358.688 253.239 358.96C253.543 359.232 253.935 359.448 254.415 359.608C254.911 359.752 255.447 359.872 256.023 359.968C256.615 360.064 257.199 360.184 257.775 360.328C258.367 360.456 258.903 360.64 259.383 360.88C259.879 361.104 260.271 361.432 260.559 361.864C260.863 362.28 261.015 362.832 261.015 363.52C261.015 364.256 260.807 364.896 260.391 365.44C259.991 365.968 259.399 366.384 258.615 366.688C257.847 366.976 256.911 367.12 255.807 367.12Z" fill="#71AA91"/>
<rect width="96" height="32" transform="translate(209 254)" fill="#1E2C26"/>
<rect width="32" height="32" transform="translate(209 254)" fill="#1E2C26"/>
<path fill-rule="evenodd" clip-rule="evenodd" d="M213.453 268L219.226 258L225 268L220.226 268L220.226 282L218.226 282L218.226 268L213.453 268Z" fill="#354E43"/>
<path fill-rule="evenodd" clip-rule="evenodd" d="M236.547 272L230.774 282L225 272L229.774 272L229.774 258L231.774 258L231.774 272L236.547 272Z" fill="#354E43"/>
<rect x="209" y="254" width="32" height="32" stroke="#5A8C77" stroke-width="1.2"/>
<rect width="32" height="32" transform="translate(241 254)" fill="#1E2C26"/>
<path fill-rule="evenodd" clip-rule="evenodd" d="M245.453 268L251.226 258L257 268L252.226 268L252.226 282L250.226 282L250.226 268L245.453 268Z" fill="#354E43"/>
<path fill-rule="evenodd" clip-rule="evenodd" d="M268.547 272L262.774 282L257 272L261.774 272L261.774 258L263.774 258L263.774 272L268.547 272Z" fill="#354E43"/>
<rect x="241" y="254" width="32" height="32" stroke="#5A8C77" stroke-width="1.2"/>
<rect width="32" height="32" transform="translate(273 254)" fill="#1E2C26"/>
<path fill-rule="evenodd" clip-rule="evenodd" d="M277.453 268L283.226 258L289 268L284.226 268L284.226 282L282.226 282L282.226 268L277.453 268Z" fill="#354E43"/>
<path fill-rule="evenodd" clip-rule="evenodd" d="M300.547 272L294.774 282L289 272L293.774 272L293.774 258L295.774 258L295.774 272L300.547 272Z" fill="#354E43"/>
<rect x="273" y="254" width="32" height="32" stroke="#5A8C77" stroke-width="1.2"/>
<path d="M210.264 309.144C209.048 309.144 207.896 308.952 206.808 308.568C205.736 308.168 204.872 307.64 204.216 306.984L205.056 305.616C205.6 306.176 206.328 306.64 207.24 307.008C208.168 307.376 209.176 307.56 210.264 307.56C211.656 307.56 212.72 307.256 213.456 306.648C214.208 306.04 214.584 305.224 214.584 304.2C214.584 303.176 214.216 302.36 213.48 301.752C212.76 301.144 211.616 300.84 210.048 300.84H208.848V299.568L214.032 293.064L214.272 293.736H204.912V292.2H215.712V293.424L210.528 299.928L209.688 299.376H210.336C212.352 299.376 213.856 299.824 214.848 300.72C215.856 301.616 216.36 302.768 216.36 304.176C216.36 305.12 216.136 305.968 215.688 306.72C215.24 307.472 214.56 308.064 213.648 308.496C212.752 308.928 211.624 309.144 210.264 309.144ZM226.427 309.12C225.339 309.12 224.355 308.872 223.475 308.376C222.595 307.864 221.891 307.136 221.363 306.192C220.851 305.232 220.595 304.064 220.595 302.688C220.595 301.312 220.851 300.152 221.363 299.208C221.875 298.248 222.571 297.52 223.451 297.024C224.331 296.528 225.323 296.28 226.427 296.28C227.627 296.28 228.699 296.552 229.643 297.096C230.603 297.624 231.355 298.376 231.899 299.352C232.443 300.312 232.715 301.424 232.715 302.688C232.715 303.968 232.443 305.088 231.899 306.048C231.355 307.008 230.603 307.76 229.643 308.304C228.699 308.848 227.627 309.12 226.427 309.12ZM219.923 313.656V296.4H221.555V300.192L221.387 302.712L221.627 305.256V313.656H219.923ZM226.307 307.608C227.203 307.608 228.003 307.408 228.707 307.008C229.411 306.592 229.971 306.016 230.387 305.28C230.803 304.528 231.011 303.664 231.011 302.688C231.011 301.712 230.803 300.856 230.387 300.12C229.971 299.384 229.411 298.808 228.707 298.392C228.003 297.976 227.203 297.768 226.307 297.768C225.411 297.768 224.603 297.976 223.883 298.392C223.179 298.808 222.619 299.384 222.203 300.12C221.803 300.856 221.603 301.712 221.603 302.688C221.603 303.664 221.803 304.528 222.203 305.28C222.619 306.016 223.179 306.592 223.883 307.008C224.603 307.408 225.411 307.608 226.307 307.608Z" fill="#71AA91"/>
<rect width="160" height="32" transform="translate(177 196)" fill="#1E2C26"/>
<rect width="32" height="32" transform="translate(177 196)" fill="#1E2C26"/>
<path fill-rule="evenodd" clip-rule="evenodd" d="M181.453 210L187.226 200L193 210L188.226 210L188.226 224L186.226 224L186.226 210L181.453 210Z" fill="#354E43"/>
<path fill-rule="evenodd" clip-rule="evenodd" d="M204.547 214L198.774 224L193 214L197.774 214L197.774 200L199.774 200L199.774 214L204.547 214Z" fill="#354E43"/>
<rect x="177" y="196" width="32" height="32" stroke="#5A8C77" stroke-width="1.2"/>
<rect width="32" height="32" transform="translate(209 196)" fill="#1E2C26"/>
<path fill-rule="evenodd" clip-rule="evenodd" d="M213.453 210L219.226 200L225 210L220.226 210L220.226 224L218.226 224L218.226 210L213.453 210Z" fill="#354E43"/>
<path fill-rule="evenodd" clip-rule="evenodd" d="M236.547 214L230.774 224L225 214L229.774 214L229.774 200L231.774 200L231.774 214L236.547 214Z" fill="#354E43"/>
<rect x="209" y="196" width="32" height="32" stroke="#5A8C77" stroke-width="1.2"/>
<rect width="32" height="32" transform="translate(241 196)" fill="#1E2C26"/>
<path fill-rule="evenodd" clip-rule="evenodd" d="M245.453 210L251.226 200L257 210L252.226 210L252.226 224L250.226 224L250.226 210L245.453 210Z" fill="#354E43"/>
<path fill-rule="evenodd" clip-rule="evenodd" d="M268.547 214L262.774 224L257 214L261.774 214L261.774 200L263.774 200L263.774 214L268.547 214Z" fill="#354E43"/>
<rect x="241" y="196" width="32" height="32" stroke="#5A8C77" stroke-width="1.2"/>
<rect width="32" height="32" transform="translate(273 196)" fill="#1E2C26"/>
<path fill-rule="evenodd" clip-rule="evenodd" d="M277.453 210L283.226 200L289 210L284.226 210L284.226 224L282.226 224L282.226 210L277.453 210Z" fill="#354E43"/>
<path fill-rule="evenodd" clip-rule="evenodd" d="M300.547 214L294.774 224L289 214L293.774 214L293.774 200L295.774 200L295.774 214L300.547 214Z" fill="#354E43"/>
<rect x="273" y="196" width="32" height="32" stroke="#5A8C77" stroke-width="1.2"/>
<rect width="32" height="32" transform="translate(305 196)" fill="#1E2C26"/>
<path fill-rule="evenodd" clip-rule="evenodd" d="M309.453 210L315.226 200L321 210L316.226 210L316.226 224L314.226 224L314.226 210L309.453 210Z" fill="#354E43"/>
<path fill-rule="evenodd" clip-rule="evenodd" d="M332.547 214L326.774 224L321 214L325.774 214L325.774 200L327.774 200L327.774 214L332.547 214Z" fill="#354E43"/>
<rect x="305" y="196" width="32" height="32" stroke="#5A8C77" stroke-width="1.2"/>
<path d="M178.264 251.144C177.048 251.144 175.896 250.952 174.808 250.568C173.736 250.168 172.872 249.64 172.216 248.984L173.056 247.616C173.6 248.176 174.328 248.64 175.24 249.008C176.168 249.376 177.176 249.56 178.264 249.56C179.656 249.56 180.72 249.256 181.456 248.648C182.208 248.04 182.584 247.224 182.584 246.2C182.584 245.176 182.216 244.36 181.48 243.752C180.76 243.144 179.616 242.84 178.048 242.84H176.848V241.568L182.032 235.064L182.272 235.736H172.912V234.2H183.712V235.424L178.528 241.928L177.688 241.376H178.336C180.352 241.376 181.856 241.824 182.848 242.72C183.856 243.616 184.36 244.768 184.36 246.176C184.36 247.12 184.136 247.968 183.688 248.72C183.24 249.472 182.56 250.064 181.648 250.496C180.752 250.928 179.624 251.144 178.264 251.144ZM192.939 251.12C191.739 251.12 190.659 250.848 189.699 250.304C188.755 249.76 188.011 249.008 187.467 248.048C186.923 247.072 186.651 245.952 186.651 244.688C186.651 243.408 186.923 242.288 187.467 241.328C188.011 240.368 188.755 239.624 189.699 239.096C190.659 238.552 191.739 238.28 192.939 238.28C194.043 238.28 195.027 238.528 195.891 239.024C196.771 239.52 197.467 240.248 197.979 241.208C198.507 242.152 198.771 243.312 198.771 244.688C198.771 246.048 198.515 247.208 198.003 248.168C197.491 249.128 196.795 249.864 195.915 250.376C195.051 250.872 194.059 251.12 192.939 251.12ZM193.059 249.608C193.955 249.608 194.755 249.408 195.459 249.008C196.179 248.592 196.739 248.016 197.139 247.28C197.555 246.528 197.763 245.664 197.763 244.688C197.763 243.696 197.555 242.832 197.139 242.096C196.739 241.36 196.179 240.792 195.459 240.392C194.755 239.976 193.955 239.768 193.059 239.768C192.179 239.768 191.387 239.976 190.683 240.392C189.979 240.792 189.419 241.36 189.003 242.096C188.587 242.832 188.379 243.696 188.379 244.688C188.379 245.664 188.587 246.528 189.003 247.28C189.419 248.016 189.979 248.592 190.683 249.008C191.387 249.408 192.179 249.608 193.059 249.608ZM197.811 251V247.208L197.979 244.664L197.739 242.12V233.192H199.443V251H197.811Z" fill="#71AA91"/>
<rect width="32" height="32" transform="translate(905.5 138)" fill="#1E2C26"/>
<rect width="32" height="32" transform="translate(905.5 138)" fill="#1E2C26"/>
<path fill-rule="evenodd" clip-rule="evenodd" d="M909.953 152L915.726 142L921.5 152L916.726 152L916.726 166L914.726 166L914.726 152L909.953 152Z" fill="#354E43"/>
<path fill-rule="evenodd" clip-rule="evenodd" d="M933.047 156L927.274 166L921.5 156L926.274 156L926.274 142L928.274 142L928.274 156L933.047 156Z" fill="#354E43"/>
<rect x="905.5" y="138" width="32" height="32" stroke="#5A8C77" stroke-width="1.2"/>
<path d="M908.636 193.144C907.148 193.144 905.892 192.816 904.868 192.16C903.844 191.488 903.068 190.528 902.54 189.28C902.012 188.016 901.748 186.504 901.748 184.744C901.748 182.84 902.068 181.248 902.708 179.968C903.364 178.672 904.268 177.696 905.42 177.04C906.572 176.384 907.908 176.056 909.428 176.056C910.18 176.056 910.9 176.128 911.588 176.272C912.276 176.416 912.884 176.648 913.412 176.968L912.716 178.36C912.284 178.072 911.788 177.872 911.228 177.76C910.668 177.632 910.076 177.568 909.452 177.568C907.644 177.568 906.196 178.144 905.108 179.296C904.036 180.448 903.5 182.168 903.5 184.456C903.5 184.808 903.516 185.248 903.548 185.776C903.596 186.288 903.692 186.8 903.836 187.312L903.236 186.856C903.412 186.024 903.756 185.32 904.268 184.744C904.78 184.152 905.42 183.704 906.188 183.4C906.956 183.096 907.796 182.944 908.708 182.944C909.828 182.944 910.812 183.152 911.66 183.568C912.508 183.984 913.172 184.568 913.652 185.32C914.132 186.072 914.372 186.96 914.372 187.984C914.372 189.024 914.124 189.936 913.628 190.72C913.132 191.488 912.444 192.088 911.564 192.52C910.7 192.936 909.724 193.144 908.636 193.144ZM908.564 191.68C909.364 191.68 910.068 191.536 910.676 191.248C911.3 190.944 911.788 190.52 912.14 189.976C912.492 189.416 912.668 188.768 912.668 188.032C912.668 186.928 912.284 186.048 911.516 185.392C910.764 184.736 909.74 184.408 908.444 184.408C907.58 184.408 906.828 184.568 906.188 184.888C905.548 185.208 905.044 185.648 904.676 186.208C904.308 186.752 904.124 187.376 904.124 188.08C904.124 188.688 904.292 189.272 904.628 189.832C904.964 190.376 905.46 190.824 906.116 191.176C906.788 191.512 907.604 191.68 908.564 191.68ZM920.885 193.12C919.845 193.12 918.861 192.976 917.933 192.688C917.005 192.384 916.277 192.008 915.749 191.56L916.517 190.216C917.029 190.6 917.685 190.936 918.485 191.224C919.285 191.496 920.125 191.632 921.005 191.632C922.205 191.632 923.069 191.448 923.597 191.08C924.125 190.696 924.389 190.192 924.389 189.568C924.389 189.104 924.237 188.744 923.933 188.488C923.645 188.216 923.261 188.016 922.781 187.888C922.301 187.744 921.765 187.624 921.173 187.528C920.581 187.432 919.989 187.32 919.397 187.192C918.821 187.064 918.293 186.88 917.813 186.64C917.333 186.384 916.941 186.04 916.637 185.608C916.349 185.176 916.205 184.6 916.205 183.88C916.205 183.192 916.397 182.576 916.781 182.032C917.165 181.488 917.725 181.064 918.461 180.76C919.213 180.44 920.125 180.28 921.197 180.28C922.013 180.28 922.829 180.392 923.645 180.616C924.461 180.824 925.133 181.104 925.661 181.456L924.917 182.824C924.357 182.44 923.757 182.168 923.117 182.008C922.477 181.832 921.837 181.744 921.197 181.744C920.061 181.744 919.221 181.944 918.677 182.344C918.149 182.728 917.885 183.224 917.885 183.832C917.885 184.312 918.029 184.688 918.317 184.96C918.621 185.232 919.013 185.448 919.493 185.608C919.989 185.752 920.525 185.872 921.101 185.968C921.693 186.064 922.277 186.184 922.853 186.328C923.445 186.456 923.981 186.64 924.461 186.88C924.957 187.104 925.349 187.432 925.637 187.864C925.941 188.28 926.093 188.832 926.093 189.52C926.093 190.256 925.885 190.896 925.469 191.44C925.069 191.968 924.477 192.384 923.693 192.688C922.925 192.976 921.989 193.12 920.885 193.12Z" fill="#71AA91"/>
<rect width="96" height="32" transform="translate(873 80)" fill="#1E2C26"/>
<rect width="32" height="32" transform="translate(873 80)" fill="#1E2C26"/>
<path fill-rule="evenodd" clip-rule="evenodd" d="M877.453 94L883.226 84L889 94L884.226 94L884.226 108L882.226 108L882.226 94L877.453 94Z" fill="#354E43"/>
<path fill-rule="evenodd" clip-rule="evenodd" d="M900.547 98L894.774 108L889 98L893.774 98L893.774 84L895.774 84L895.774 98L900.547 98Z" fill="#354E43"/>
<rect x="873" y="80" width="32" height="32" stroke="#5A8C77" stroke-width="1.2"/>
<rect width="32" height="32" transform="translate(905 80)" fill="#1E2C26"/>
<path fill-rule="evenodd" clip-rule="evenodd" d="M909.453 94L915.226 84L921 94L916.226 94L916.226 108L914.226 108L914.226 94L909.453 94Z" fill="#354E43"/>
<path fill-rule="evenodd" clip-rule="evenodd" d="M932.547 98L926.774 108L921 98L925.774 98L925.774 84L927.774 84L927.774 98L932.547 98Z" fill="#354E43"/>
<rect x="905" y="80" width="32" height="32" stroke="#5A8C77" stroke-width="1.2"/>
<rect width="32" height="32" transform="translate(937 80)" fill="#1E2C26"/>
<path fill-rule="evenodd" clip-rule="evenodd" d="M941.453 94L947.226 84L953 94L948.226 94L948.226 108L946.226 108L946.226 94L941.453 94Z" fill="#354E43"/>
<path fill-rule="evenodd" clip-rule="evenodd" d="M964.547 98L958.774 108L953 98L957.774 98L957.774 84L959.774 84L959.774 98L964.547 98Z" fill="#354E43"/>
<rect x="937" y="80" width="32" height="32" stroke="#5A8C77" stroke-width="1.2"/>
<path d="M876.136 135.144C874.648 135.144 873.392 134.816 872.368 134.16C871.344 133.488 870.568 132.528 870.04 131.28C869.512 130.016 869.248 128.504 869.248 126.744C869.248 124.84 869.568 123.248 870.208 121.968C870.864 120.672 871.768 119.696 872.92 119.04C874.072 118.384 875.408 118.056 876.928 118.056C877.68 118.056 878.4 118.128 879.088 118.272C879.776 118.416 880.384 118.648 880.912 118.968L880.216 120.36C879.784 120.072 879.288 119.872 878.728 119.76C878.168 119.632 877.576 119.568 876.952 119.568C875.144 119.568 873.696 120.144 872.608 121.296C871.536 122.448 871 124.168 871 126.456C871 126.808 871.016 127.248 871.048 127.776C871.096 128.288 871.192 128.8 871.336 129.312L870.736 128.856C870.912 128.024 871.256 127.32 871.768 126.744C872.28 126.152 872.92 125.704 873.688 125.4C874.456 125.096 875.296 124.944 876.208 124.944C877.328 124.944 878.312 125.152 879.16 125.568C880.008 125.984 880.672 126.568 881.152 127.32C881.632 128.072 881.872 128.96 881.872 129.984C881.872 131.024 881.624 131.936 881.128 132.72C880.632 133.488 879.944 134.088 879.064 134.52C878.2 134.936 877.224 135.144 876.136 135.144ZM876.064 133.68C876.864 133.68 877.568 133.536 878.176 133.248C878.8 132.944 879.288 132.52 879.64 131.976C879.992 131.416 880.168 130.768 880.168 130.032C880.168 128.928 879.784 128.048 879.016 127.392C878.264 126.736 877.24 126.408 875.944 126.408C875.08 126.408 874.328 126.568 873.688 126.888C873.048 127.208 872.544 127.648 872.176 128.208C871.808 128.752 871.624 129.376 871.624 130.08C871.624 130.688 871.792 131.272 872.128 131.832C872.464 132.376 872.96 132.824 873.616 133.176C874.288 133.512 875.104 133.68 876.064 133.68ZM891.505 135.12C890.417 135.12 889.433 134.872 888.553 134.376C887.673 133.864 886.969 133.136 886.441 132.192C885.929 131.232 885.673 130.064 885.673 128.688C885.673 127.312 885.929 126.152 886.441 125.208C886.953 124.248 887.649 123.52 888.529 123.024C889.409 122.528 890.401 122.28 891.505 122.28C892.705 122.28 893.777 122.552 894.721 123.096C895.681 123.624 896.433 124.376 896.977 125.352C897.521 126.312 897.793 127.424 897.793 128.688C897.793 129.968 897.521 131.088 896.977 132.048C896.433 133.008 895.681 133.76 894.721 134.304C893.777 134.848 892.705 135.12 891.505 135.12ZM885.001 139.656V122.4H886.633V126.192L886.465 128.712L886.705 131.256V139.656H885.001ZM891.385 133.608C892.281 133.608 893.081 133.408 893.785 133.008C894.489 132.592 895.049 132.016 895.465 131.28C895.881 130.528 896.089 129.664 896.089 128.688C896.089 127.712 895.881 126.856 895.465 126.12C895.049 125.384 894.489 124.808 893.785 124.392C893.081 123.976 892.281 123.768 891.385 123.768C890.489 123.768 889.681 123.976 888.961 124.392C888.257 124.808 887.697 125.384 887.281 126.12C886.881 126.856 886.681 127.712 886.681 128.688C886.681 129.664 886.881 130.528 887.281 131.28C887.697 132.016 888.257 132.592 888.961 133.008C889.681 133.408 890.489 133.608 891.385 133.608Z" fill="#71AA91"/>
<rect width="160" height="32" transform="translate(841 22)" fill="#1E2C26"/>
<rect width="32" height="32" transform="translate(841 22)" fill="#1E2C26"/>
<path fill-rule="evenodd" clip-rule="evenodd" d="M845.453 36L851.226 26L857 36L852.226 36L852.226 50L850.226 50L850.226 36L845.453 36Z" fill="#354E43"/>
<path fill-rule="evenodd" clip-rule="evenodd" d="M868.547 40L862.774 50L857 40L861.774 40L861.774 26L863.774 26L863.774 40L868.547 40Z" fill="#354E43"/>
<rect x="841" y="22" width="32" height="32" stroke="#5A8C77" stroke-width="1.2"/>
<rect width="32" height="32" transform="translate(873 22)" fill="#1E2C26"/>
<path fill-rule="evenodd" clip-rule="evenodd" d="M877.453 36L883.226 26L889 36L884.226 36L884.226 50L882.226 50L882.226 36L877.453 36Z" fill="#354E43"/>
<path fill-rule="evenodd" clip-rule="evenodd" d="M900.547 40L894.774 50L889 40L893.774 40L893.774 26L895.774 26L895.774 40L900.547 40Z" fill="#354E43"/>
<rect x="873" y="22" width="32" height="32" stroke="#5A8C77" stroke-width="1.2"/>
<rect width="32" height="32" transform="translate(905 22)" fill="#1E2C26"/>
<path fill-rule="evenodd" clip-rule="evenodd" d="M909.453 36L915.226 26L921 36L916.226 36L916.226 50L914.226 50L914.226 36L909.453 36Z" fill="#354E43"/>
<path fill-rule="evenodd" clip-rule="evenodd" d="M932.547 40L926.774 50L921 40L925.774 40L925.774 26L927.774 26L927.774 40L932.547 40Z" fill="#354E43"/>
<rect x="905" y="22" width="32" height="32" stroke="#5A8C77" stroke-width="1.2"/>
<rect width="32" height="32" transform="translate(937 22)" fill="#1E2C26"/>
<path fill-rule="evenodd" clip-rule="evenodd" d="M941.453 36L947.226 26L953 36L948.226 36L948.226 50L946.226 50L946.226 36L941.453 36Z" fill="#354E43"/>
<path fill-rule="evenodd" clip-rule="evenodd" d="M964.547 40L958.774 50L953 40L957.774 40L957.774 26L959.774 26L959.774 40L964.547 40Z" fill="#354E43"/>
<rect x="937" y="22" width="32" height="32" stroke="#5A8C77" stroke-width="1.2"/>
<rect width="32" height="32" transform="translate(969 22)" fill="#1E2C26"/>
<path fill-rule="evenodd" clip-rule="evenodd" d="M973.453 36L979.226 26L985 36L980.226 36L980.226 50L978.226 50L978.226 36L973.453 36Z" fill="#354E43"/>
<path fill-rule="evenodd" clip-rule="evenodd" d="M996.547 40L990.774 50L985 40L989.774 40L989.774 26L991.774 26L991.774 40L996.547 40Z" fill="#354E43"/>
<rect x="969" y="22" width="32" height="32" stroke="#5A8C77" stroke-width="1.2"/>
<path d="M844.136 77.144C842.648 77.144 841.392 76.816 840.368 76.16C839.344 75.488 838.568 74.528 838.04 73.28C837.512 72.016 837.248 70.504 837.248 68.744C837.248 66.84 837.568 65.248 838.208 63.968C838.864 62.672 839.768 61.696 840.92 61.04C842.072 60.384 843.408 60.056 844.928 60.056C845.68 60.056 846.4 60.128 847.088 60.272C847.776 60.416 848.384 60.648 848.912 60.968L848.216 62.36C847.784 62.072 847.288 61.872 846.728 61.76C846.168 61.632 845.576 61.568 844.952 61.568C843.144 61.568 841.696 62.144 840.608 63.296C839.536 64.448 839 66.168 839 68.456C839 68.808 839.016 69.248 839.048 69.776C839.096 70.288 839.192 70.8 839.336 71.312L838.736 70.856C838.912 70.024 839.256 69.32 839.768 68.744C840.28 68.152 840.92 67.704 841.688 67.4C842.456 67.096 843.296 66.944 844.208 66.944C845.328 66.944 846.312 67.152 847.16 67.568C848.008 67.984 848.672 68.568 849.152 69.32C849.632 70.072 849.872 70.96 849.872 71.984C849.872 73.024 849.624 73.936 849.128 74.72C848.632 75.488 847.944 76.088 847.064 76.52C846.2 76.936 845.224 77.144 844.136 77.144ZM844.064 75.68C844.864 75.68 845.568 75.536 846.176 75.248C846.8 74.944 847.288 74.52 847.64 73.976C847.992 73.416 848.168 72.768 848.168 72.032C848.168 70.928 847.784 70.048 847.016 69.392C846.264 68.736 845.24 68.408 843.944 68.408C843.08 68.408 842.328 68.568 841.688 68.888C841.048 69.208 840.544 69.648 840.176 70.208C839.808 70.752 839.624 71.376 839.624 72.08C839.624 72.688 839.792 73.272 840.128 73.832C840.464 74.376 840.96 74.824 841.616 75.176C842.288 75.512 843.104 75.68 844.064 75.68ZM858.228 77.12C857.028 77.12 855.948 76.848 854.988 76.304C854.044 75.76 853.3 75.008 852.756 74.048C852.212 73.072 851.94 71.952 851.94 70.688C851.94 69.408 852.212 68.288 852.756 67.328C853.3 66.368 854.044 65.624 854.988 65.096C855.948 64.552 857.028 64.28 858.228 64.28C859.332 64.28 860.316 64.528 861.18 65.024C862.06 65.52 862.756 66.248 863.268 67.208C863.796 68.152 864.06 69.312 864.06 70.688C864.06 72.048 863.804 73.208 863.292 74.168C862.78 75.128 862.084 75.864 861.204 76.376C860.34 76.872 859.348 77.12 858.228 77.12ZM858.348 75.608C859.244 75.608 860.044 75.408 860.748 75.008C861.468 74.592 862.028 74.016 862.428 73.28C862.844 72.528 863.052 71.664 863.052 70.688C863.052 69.696 862.844 68.832 862.428 68.096C862.028 67.36 861.468 66.792 860.748 66.392C860.044 65.976 859.244 65.768 858.348 65.768C857.468 65.768 856.676 65.976 855.972 66.392C855.268 66.792 854.708 67.36 854.292 68.096C853.876 68.832 853.668 69.696 853.668 70.688C853.668 71.664 853.876 72.528 854.292 73.28C854.708 74.016 855.268 74.592 855.972 75.008C856.676 75.408 857.468 75.608 858.348 75.608ZM863.1 77V73.208L863.268 70.664L863.028 68.12V59.192H864.732V77H863.1Z" fill="#71AA91"/>
<rect width="32" height="32" transform="translate(443.5 254)" fill="#1E2C26"/>
<rect width="32" height="32" transform="translate(443.5 254)" fill="#1E2C26"/>
<path fill-rule="evenodd" clip-rule="evenodd" d="M447.953 268L453.726 258L459.5 268L454.726 268L454.726 282L452.726 282L452.726 268L447.953 268Z" fill="#354E43"/>
<path fill-rule="evenodd" clip-rule="evenodd" d="M471.047 272L465.274 282L459.5 272L464.274 272L464.274 258L466.274 258L466.274 272L471.047 272Z" fill="#354E43"/>
<rect x="443.5" y="254" width="32" height="32" stroke="#5A8C77" stroke-width="1.2"/>
<path d="M439.46 304.584V303.336L448.364 292.2H450.284L441.452 303.336L440.516 303.048H454.028V304.584H439.46ZM448.94 309V304.584L448.988 303.048V299.16H450.668V309H448.94ZM460.127 309.12C459.087 309.12 458.103 308.976 457.175 308.688C456.247 308.384 455.519 308.008 454.991 307.56L455.759 306.216C456.271 306.6 456.927 306.936 457.727 307.224C458.527 307.496 459.367 307.632 460.247 307.632C461.447 307.632 462.311 307.448 462.839 307.08C463.367 306.696 463.631 306.192 463.631 305.568C463.631 305.104 463.479 304.744 463.175 304.488C462.887 304.216 462.503 304.016 462.023 303.888C461.543 303.744 461.007 303.624 460.415 303.528C459.823 303.432 459.231 303.32 458.639 303.192C458.063 303.064 457.535 302.88 457.055 302.64C456.575 302.384 456.183 302.04 455.879 301.608C455.591 301.176 455.447 300.6 455.447 299.88C455.447 299.192 455.639 298.576 456.023 298.032C456.407 297.488 456.967 297.064 457.703 296.76C458.455 296.44 459.367 296.28 460.439 296.28C461.255 296.28 462.071 296.392 462.887 296.616C463.703 296.824 464.375 297.104 464.903 297.456L464.159 298.824C463.599 298.44 462.999 298.168 462.359 298.008C461.719 297.832 461.079 297.744 460.439 297.744C459.303 297.744 458.463 297.944 457.919 298.344C457.391 298.728 457.127 299.224 457.127 299.832C457.127 300.312 457.271 300.688 457.559 300.96C457.863 301.232 458.255 301.448 458.735 301.608C459.231 301.752 459.767 301.872 460.343 301.968C460.935 302.064 461.519 302.184 462.095 302.328C462.687 302.456 463.223 302.64 463.703 302.88C464.199 303.104 464.591 303.432 464.879 303.864C465.183 304.28 465.335 304.832 465.335 305.52C465.335 306.256 465.127 306.896 464.711 307.44C464.311 307.968 463.719 308.384 462.935 308.688C462.167 308.976 461.231 309.12 460.127 309.12Z" fill="#71AA91"/>
<rect width="96" height="32" transform="translate(411 196)" fill="#1E2C26"/>
<rect width="32" height="32" transform="translate(411 196)" fill="#1E2C26"/>
<path fill-rule="evenodd" clip-rule="evenodd" d="M415.453 210L421.226 200L427 210L422.226 210L422.226 224L420.226 224L420.226 210L415.453 210Z" fill="#354E43"/>
<path fill-rule="evenodd" clip-rule="evenodd" d="M438.547 214L432.774 224L427 214L431.774 214L431.774 200L433.774 200L433.774 214L438.547 214Z" fill="#354E43"/>
<rect x="411" y="196" width="32" height="32" stroke="#5A8C77" stroke-width="1.2"/>
<rect width="32" height="32" transform="translate(443 196)" fill="#1E2C26"/>
<path fill-rule="evenodd" clip-rule="evenodd" d="M447.453 210L453.226 200L459 210L454.226 210L454.226 224L452.226 224L452.226 210L447.453 210Z" fill="#354E43"/>
<path fill-rule="evenodd" clip-rule="evenodd" d="M470.547 214L464.774 224L459 214L463.774 214L463.774 200L465.774 200L465.774 214L470.547 214Z" fill="#354E43"/>
<rect x="443" y="196" width="32" height="32" stroke="#5A8C77" stroke-width="1.2"/>
<rect width="32" height="32" transform="translate(475 196)" fill="#1E2C26"/>
<path fill-rule="evenodd" clip-rule="evenodd" d="M479.453 210L485.226 200L491 210L486.226 210L486.226 224L484.226 224L484.226 210L479.453 210Z" fill="#354E43"/>
<path fill-rule="evenodd" clip-rule="evenodd" d="M502.547 214L496.774 224L491 214L495.774 214L495.774 200L497.774 200L497.774 214L502.547 214Z" fill="#354E43"/>
<rect x="475" y="196" width="32" height="32" stroke="#5A8C77" stroke-width="1.2"/>
<path d="M406.96 246.584V245.336L415.864 234.2H417.784L408.952 245.336L408.016 245.048H421.528V246.584H406.96ZM416.44 251V246.584L416.488 245.048V241.16H418.168V251H416.44ZM430.747 251.12C429.659 251.12 428.675 250.872 427.795 250.376C426.915 249.864 426.211 249.136 425.683 248.192C425.171 247.232 424.915 246.064 424.915 244.688C424.915 243.312 425.171 242.152 425.683 241.208C426.195 240.248 426.891 239.52 427.771 239.024C428.651 238.528 429.643 238.28 430.747 238.28C431.947 238.28 433.019 238.552 433.963 239.096C434.923 239.624 435.675 240.376 436.219 241.352C436.763 242.312 437.035 243.424 437.035 244.688C437.035 245.968 436.763 247.088 436.219 248.048C435.675 249.008 434.923 249.76 433.963 250.304C433.019 250.848 431.947 251.12 430.747 251.12ZM424.243 255.656V238.4H425.875V242.192L425.707 244.712L425.947 247.256V255.656H424.243ZM430.627 249.608C431.523 249.608 432.323 249.408 433.027 249.008C433.731 248.592 434.291 248.016 434.707 247.28C435.123 246.528 435.331 245.664 435.331 244.688C435.331 243.712 435.123 242.856 434.707 242.12C434.291 241.384 433.731 240.808 433.027 240.392C432.323 239.976 431.523 239.768 430.627 239.768C429.731 239.768 428.923 239.976 428.203 240.392C427.499 240.808 426.939 241.384 426.523 242.12C426.123 242.856 425.923 243.712 425.923 244.688C425.923 245.664 426.123 246.528 426.523 247.28C426.939 248.016 427.499 248.592 428.203 249.008C428.923 249.408 429.731 249.608 430.627 249.608Z" fill="#71AA91"/>
<rect width="160" height="32" transform="translate(379 138)" fill="#1E2C26"/>
<rect width="32" height="32" transform="translate(379 138)" fill="#1E2C26"/>
<path fill-rule="evenodd" clip-rule="evenodd" d="M383.453 152L389.226 142L395 152L390.226 152L390.226 166L388.226 166L388.226 152L383.453 152Z" fill="#354E43"/>
<path fill-rule="evenodd" clip-rule="evenodd" d="M406.547 156L400.774 166L395 156L399.774 156L399.774 142L401.774 142L401.774 156L406.547 156Z" fill="#354E43"/>
<rect x="379" y="138" width="32" height="32" stroke="#5A8C77" stroke-width="1.2"/>
<rect width="32" height="32" transform="translate(411 138)" fill="#1E2C26"/>
<path fill-rule="evenodd" clip-rule="evenodd" d="M415.453 152L421.226 142L427 152L422.226 152L422.226 166L420.226 166L420.226 152L415.453 152Z" fill="#354E43"/>
<path fill-rule="evenodd" clip-rule="evenodd" d="M438.547 156L432.774 166L427 156L431.774 156L431.774 142L433.774 142L433.774 156L438.547 156Z" fill="#354E43"/>
<rect x="411" y="138" width="32" height="32" stroke="#5A8C77" stroke-width="1.2"/>
<rect width="32" height="32" transform="translate(443 138)" fill="#1E2C26"/>
<path fill-rule="evenodd" clip-rule="evenodd" d="M447.453 152L453.226 142L459 152L454.226 152L454.226 166L452.226 166L452.226 152L447.453 152Z" fill="#354E43"/>
<path fill-rule="evenodd" clip-rule="evenodd" d="M470.547 156L464.774 166L459 156L463.774 156L463.774 142L465.774 142L465.774 156L470.547 156Z" fill="#354E43"/>
<rect x="443" y="138" width="32" height="32" stroke="#5A8C77" stroke-width="1.2"/>
<rect width="32" height="32" transform="translate(475 138)" fill="#1E2C26"/>
<path fill-rule="evenodd" clip-rule="evenodd" d="M479.453 152L485.226 142L491 152L486.226 152L486.226 166L484.226 166L484.226 152L479.453 152Z" fill="#354E43"/>
<path fill-rule="evenodd" clip-rule="evenodd" d="M502.547 156L496.774 166L491 156L495.774 156L495.774 142L497.774 142L497.774 156L502.547 156Z" fill="#354E43"/>
<rect x="475" y="138" width="32" height="32" stroke="#5A8C77" stroke-width="1.2"/>
<rect width="32" height="32" transform="translate(507 138)" fill="#1E2C26"/>
<path fill-rule="evenodd" clip-rule="evenodd" d="M511.453 152L517.226 142L523 152L518.226 152L518.226 166L516.226 166L516.226 152L511.453 152Z" fill="#354E43"/>
<path fill-rule="evenodd" clip-rule="evenodd" d="M534.547 156L528.774 166L523 156L527.774 156L527.774 142L529.774 142L529.774 156L534.547 156Z" fill="#354E43"/>
<rect x="507" y="138" width="32" height="32" stroke="#5A8C77" stroke-width="1.2"/>
<path d="M374.96 188.584V187.336L383.864 176.2H385.784L376.952 187.336L376.016 187.048H389.528V188.584H374.96ZM384.44 193V188.584L384.488 187.048V183.16H386.168V193H384.44ZM397.54 193.12C396.34 193.12 395.26 192.848 394.3 192.304C393.356 191.76 392.612 191.008 392.068 190.048C391.524 189.072 391.252 187.952 391.252 186.688C391.252 185.408 391.524 184.288 392.068 183.328C392.612 182.368 393.356 181.624 394.3 181.096C395.26 180.552 396.34 180.28 397.54 180.28C398.644 180.28 399.628 180.528 400.492 181.024C401.372 181.52 402.068 182.248 402.58 183.208C403.108 184.152 403.372 185.312 403.372 186.688C403.372 188.048 403.116 189.208 402.604 190.168C402.092 191.128 401.396 191.864 400.516 192.376C399.652 192.872 398.66 193.12 397.54 193.12ZM397.66 191.608C398.556 191.608 399.356 191.408 400.06 191.008C400.78 190.592 401.34 190.016 401.74 189.28C402.156 188.528 402.364 187.664 402.364 186.688C402.364 185.696 402.156 184.832 401.74 184.096C401.34 183.36 400.78 182.792 400.06 182.392C399.356 181.976 398.556 181.768 397.66 181.768C396.78 181.768 395.988 181.976 395.284 182.392C394.58 182.792 394.02 183.36 393.604 184.096C393.188 184.832 392.98 185.696 392.98 186.688C392.98 187.664 393.188 188.528 393.604 189.28C394.02 190.016 394.58 190.592 395.284 191.008C395.988 191.408 396.78 191.608 397.66 191.608ZM402.412 193V189.208L402.58 186.664L402.34 184.12V175.192H404.044V193H402.412Z" fill="#71AA91"/>
<rect width="224" height="32" transform="translate(347 80)" fill="#1E2C26"/>
<rect width="32" height="32" transform="translate(347 80)" fill="#1E2C26"/>
<path fill-rule="evenodd" clip-rule="evenodd" d="M351.453 94L357.226 84L363 94L358.226 94L358.226 108L356.226 108L356.226 94L351.453 94Z" fill="#354E43"/>
<path fill-rule="evenodd" clip-rule="evenodd" d="M374.547 98L368.774 108L363 98L367.774 98L367.774 84L369.774 84L369.774 98L374.547 98Z" fill="#354E43"/>
<rect x="347" y="80" width="32" height="32" stroke="#5A8C77" stroke-width="1.2"/>
<rect width="32" height="32" transform="translate(379 80)" fill="#1E2C26"/>
<path fill-rule="evenodd" clip-rule="evenodd" d="M383.453 94L389.226 84L395 94L390.226 94L390.226 108L388.226 108L388.226 94L383.453 94Z" fill="#354E43"/>
<path fill-rule="evenodd" clip-rule="evenodd" d="M406.547 98L400.774 108L395 98L399.774 98L399.774 84L401.774 84L401.774 98L406.547 98Z" fill="#354E43"/>
<rect x="379" y="80" width="32" height="32" stroke="#5A8C77" stroke-width="1.2"/>
<rect width="32" height="32" transform="translate(411 80)" fill="#1E2C26"/>
<path fill-rule="evenodd" clip-rule="evenodd" d="M415.453 94L421.226 84L427 94L422.226 94L422.226 108L420.226 108L420.226 94L415.453 94Z" fill="#354E43"/>
<path fill-rule="evenodd" clip-rule="evenodd" d="M438.547 98L432.774 108L427 98L431.774 98L431.774 84L433.774 84L433.774 98L438.547 98Z" fill="#354E43"/>
<rect x="411" y="80" width="32" height="32" stroke="#5A8C77" stroke-width="1.2"/>
<rect width="32" height="32" transform="translate(443 80)" fill="#1E2C26"/>
<path fill-rule="evenodd" clip-rule="evenodd" d="M447.453 94L453.226 84L459 94L454.226 94L454.226 108L452.226 108L452.226 94L447.453 94Z" fill="#354E43"/>
<path fill-rule="evenodd" clip-rule="evenodd" d="M470.547 98L464.774 108L459 98L463.774 98L463.774 84L465.774 84L465.774 98L470.547 98Z" fill="#354E43"/>
<rect x="443" y="80" width="32" height="32" stroke="#5A8C77" stroke-width="1.2"/>
<rect width="32" height="32" transform="translate(475 80)" fill="#1E2C26"/>
<path fill-rule="evenodd" clip-rule="evenodd" d="M479.453 94L485.226 84L491 94L486.226 94L486.226 108L484.226 108L484.226 94L479.453 94Z" fill="#354E43"/>
<path fill-rule="evenodd" clip-rule="evenodd" d="M502.547 98L496.774 108L491 98L495.774 98L495.774 84L497.774 84L497.774 98L502.547 98Z" fill="#354E43"/>
<rect x="475" y="80" width="32" height="32" stroke="#5A8C77" stroke-width="1.2"/>
<rect width="32" height="32" transform="translate(507 80)" fill="#1E2C26"/>
<path fill-rule="evenodd" clip-rule="evenodd" d="M511.453 94L517.226 84L523 94L518.226 94L518.226 108L516.226 108L516.226 94L511.453 94Z" fill="#354E43"/>
<path fill-rule="evenodd" clip-rule="evenodd" d="M534.547 98L528.774 108L523 98L527.774 98L527.774 84L529.774 84L529.774 98L534.547 98Z" fill="#354E43"/>
<rect x="507" y="80" width="32" height="32" stroke="#5A8C77" stroke-width="1.2"/>
<rect width="32" height="32" transform="translate(539 80)" fill="#1E2C26"/>
<path fill-rule="evenodd" clip-rule="evenodd" d="M543.453 94L549.226 84L555 94L550.226 94L550.226 108L548.226 108L548.226 94L543.453 94Z" fill="#354E43"/>
<path fill-rule="evenodd" clip-rule="evenodd" d="M566.547 98L560.774 108L555 98L559.774 98L559.774 84L561.774 84L561.774 98L566.547 98Z" fill="#354E43"/>
<rect x="539" y="80" width="32" height="32" stroke="#5A8C77" stroke-width="1.2"/>
<path d="M342.96 130.584V129.336L351.864 118.2H353.784L344.952 129.336L344.016 129.048H357.528V130.584H342.96ZM352.44 135V130.584L352.488 129.048V125.16H354.168V135H352.44ZM360.531 135V120.816C360.531 119.696 360.859 118.792 361.515 118.104C362.171 117.416 363.115 117.072 364.347 117.072C364.827 117.072 365.291 117.136 365.739 117.264C366.187 117.392 366.563 117.592 366.867 117.864L366.291 119.136C366.051 118.928 365.771 118.776 365.451 118.68C365.131 118.568 364.787 118.512 364.419 118.512C363.699 118.512 363.147 118.712 362.763 119.112C362.379 119.512 362.187 120.104 362.187 120.888V122.808L362.235 123.6V135H360.531ZM358.275 123.816V122.4H366.075V123.816H358.275Z" fill="#71AA91"/>
<rect width="32" height="32" transform="translate(690.5 196)" fill="#1E2C26"/>
<rect width="32" height="32" transform="translate(690.5 196)" fill="#1E2C26"/>
<path fill-rule="evenodd" clip-rule="evenodd" d="M694.953 210L700.726 200L706.5 210L701.726 210L701.726 224L699.726 224L699.726 210L694.953 210Z" fill="#354E43"/>
<path fill-rule="evenodd" clip-rule="evenodd" d="M718.047 214L712.274 224L706.5 214L711.274 214L711.274 200L713.274 200L713.274 214L718.047 214Z" fill="#354E43"/>
<rect x="690.5" y="196" width="32" height="32" stroke="#5A8C77" stroke-width="1.2"/>
<path d="M692.052 251.144C690.852 251.144 689.708 250.952 688.62 250.568C687.532 250.168 686.668 249.64 686.028 248.984L686.868 247.616C687.396 248.176 688.116 248.64 689.028 249.008C689.956 249.376 690.956 249.56 692.028 249.56C693.452 249.56 694.532 249.248 695.268 248.624C696.02 247.984 696.396 247.152 696.396 246.128C696.396 245.408 696.22 244.792 695.868 244.28C695.532 243.752 694.956 243.344 694.14 243.056C693.324 242.768 692.204 242.624 690.78 242.624H687.204L688.068 234.2H697.26V235.736H688.764L689.652 234.896L688.908 241.952L688.02 241.088H691.164C692.86 241.088 694.22 241.296 695.244 241.712C696.268 242.128 697.004 242.712 697.452 243.464C697.916 244.2 698.148 245.064 698.148 246.056C698.148 247 697.924 247.864 697.476 248.648C697.028 249.416 696.356 250.024 695.46 250.472C694.564 250.92 693.428 251.144 692.052 251.144ZM704.854 251.12C703.814 251.12 702.83 250.976 701.902 250.688C700.974 250.384 700.246 250.008 699.718 249.56L700.486 248.216C700.998 248.6 701.654 248.936 702.454 249.224C703.254 249.496 704.094 249.632 704.974 249.632C706.174 249.632 707.038 249.448 707.566 249.08C708.094 248.696 708.358 248.192 708.358 247.568C708.358 247.104 708.206 246.744 707.902 246.488C707.614 246.216 707.23 246.016 706.75 245.888C706.27 245.744 705.734 245.624 705.142 245.528C704.55 245.432 703.958 245.32 703.366 245.192C702.79 245.064 702.262 244.88 701.782 244.64C701.302 244.384 700.91 244.04 700.606 243.608C700.318 243.176 700.174 242.6 700.174 241.88C700.174 241.192 700.366 240.576 700.75 240.032C701.134 239.488 701.694 239.064 702.43 238.76C703.182 238.44 704.094 238.28 705.166 238.28C705.982 238.28 706.798 238.392 707.614 238.616C708.43 238.824 709.102 239.104 709.63 239.456L708.886 240.824C708.326 240.44 707.726 240.168 707.086 240.008C706.446 239.832 705.806 239.744 705.166 239.744C704.03 239.744 703.19 239.944 702.646 240.344C702.118 240.728 701.854 241.224 701.854 241.832C701.854 242.312 701.998 242.688 702.286 242.96C702.59 243.232 702.982 243.448 703.462 243.608C703.958 243.752 704.494 243.872 705.07 243.968C705.662 244.064 706.246 244.184 706.822 244.328C707.414 244.456 707.95 244.64 708.43 244.88C708.926 245.104 709.318 245.432 709.606 245.864C709.91 246.28 710.062 246.832 710.062 247.52C710.062 248.256 709.854 248.896 709.438 249.44C709.038 249.968 708.446 250.384 707.662 250.688C706.894 250.976 705.958 251.12 704.854 251.12Z" fill="#71AA91"/>
<rect width="96" height="32" transform="translate(658 138)" fill="#1E2C26"/>
<rect width="32" height="32" transform="translate(658 138)" fill="#1E2C26"/>
<path fill-rule="evenodd" clip-rule="evenodd" d="M662.453 152L668.226 142L674 152L669.226 152L669.226 166L667.226 166L667.226 152L662.453 152Z" fill="#354E43"/>
<path fill-rule="evenodd" clip-rule="evenodd" d="M685.547 156L679.774 166L674 156L678.774 156L678.774 142L680.774 142L680.774 156L685.547 156Z" fill="#354E43"/>
<rect x="658" y="138" width="32" height="32" stroke="#5A8C77" stroke-width="1.2"/>
<rect width="32" height="32" transform="translate(690 138)" fill="#1E2C26"/>
<path fill-rule="evenodd" clip-rule="evenodd" d="M694.453 152L700.226 142L706 152L701.226 152L701.226 166L699.226 166L699.226 152L694.453 152Z" fill="#354E43"/>
<path fill-rule="evenodd" clip-rule="evenodd" d="M717.547 156L711.774 166L706 156L710.774 156L710.774 142L712.774 142L712.774 156L717.547 156Z" fill="#354E43"/>
<rect x="690" y="138" width="32" height="32" stroke="#5A8C77" stroke-width="1.2"/>
<rect width="32" height="32" transform="translate(722 138)" fill="#1E2C26"/>
<path fill-rule="evenodd" clip-rule="evenodd" d="M726.453 152L732.226 142L738 152L733.226 152L733.226 166L731.226 166L731.226 152L726.453 152Z" fill="#354E43"/>
<path fill-rule="evenodd" clip-rule="evenodd" d="M749.547 156L743.774 166L738 156L742.774 156L742.774 142L744.774 142L744.774 156L749.547 156Z" fill="#354E43"/>
<rect x="722" y="138" width="32" height="32" stroke="#5A8C77" stroke-width="1.2"/>
<path d="M659.552 193.144C658.352 193.144 657.208 192.952 656.12 192.568C655.032 192.168 654.168 191.64 653.528 190.984L654.368 189.616C654.896 190.176 655.616 190.64 656.528 191.008C657.456 191.376 658.456 191.56 659.528 191.56C660.952 191.56 662.032 191.248 662.768 190.624C663.52 189.984 663.896 189.152 663.896 188.128C663.896 187.408 663.72 186.792 663.368 186.28C663.032 185.752 662.456 185.344 661.64 185.056C660.824 184.768 659.704 184.624 658.28 184.624H654.704L655.568 176.2H664.76V177.736H656.264L657.152 176.896L656.408 183.952L655.52 183.088H658.664C660.36 183.088 661.72 183.296 662.744 183.712C663.768 184.128 664.504 184.712 664.952 185.464C665.416 186.2 665.648 187.064 665.648 188.056C665.648 189 665.424 189.864 664.976 190.648C664.528 191.416 663.856 192.024 662.96 192.472C662.064 192.92 660.928 193.144 659.552 193.144ZM675.474 193.12C674.386 193.12 673.402 192.872 672.522 192.376C671.642 191.864 670.938 191.136 670.41 190.192C669.898 189.232 669.642 188.064 669.642 186.688C669.642 185.312 669.898 184.152 670.41 183.208C670.922 182.248 671.618 181.52 672.498 181.024C673.378 180.528 674.37 180.28 675.474 180.28C676.674 180.28 677.746 180.552 678.69 181.096C679.65 181.624 680.402 182.376 680.946 183.352C681.49 184.312 681.762 185.424 681.762 186.688C681.762 187.968 681.49 189.088 680.946 190.048C680.402 191.008 679.65 191.76 678.69 192.304C677.746 192.848 676.674 193.12 675.474 193.12ZM668.97 197.656V180.4H670.602V184.192L670.434 186.712L670.674 189.256V197.656H668.97ZM675.354 191.608C676.25 191.608 677.05 191.408 677.754 191.008C678.458 190.592 679.018 190.016 679.434 189.28C679.85 188.528 680.058 187.664 680.058 186.688C680.058 185.712 679.85 184.856 679.434 184.12C679.018 183.384 678.458 182.808 677.754 182.392C677.05 181.976 676.25 181.768 675.354 181.768C674.458 181.768 673.65 181.976 672.93 182.392C672.226 182.808 671.666 183.384 671.25 184.12C670.85 184.856 670.65 185.712 670.65 186.688C670.65 187.664 670.85 188.528 671.25 189.28C671.666 190.016 672.226 190.592 672.93 191.008C673.65 191.408 674.458 191.608 675.354 191.608Z" fill="#71AA91"/>
<rect width="160" height="32" transform="translate(626 80)" fill="#1E2C26"/>
<rect width="32" height="32" transform="translate(626 80)" fill="#1E2C26"/>
<path fill-rule="evenodd" clip-rule="evenodd" d="M630.453 94L636.226 84L642 94L637.226 94L637.226 108L635.226 108L635.226 94L630.453 94Z" fill="#354E43"/>
<path fill-rule="evenodd" clip-rule="evenodd" d="M653.547 98L647.774 108L642 98L646.774 98L646.774 84L648.774 84L648.774 98L653.547 98Z" fill="#354E43"/>
<rect x="626" y="80" width="32" height="32" stroke="#5A8C77" stroke-width="1.2"/>
<rect width="32" height="32" transform="translate(658 80)" fill="#1E2C26"/>
<path fill-rule="evenodd" clip-rule="evenodd" d="M662.453 94L668.226 84L674 94L669.226 94L669.226 108L667.226 108L667.226 94L662.453 94Z" fill="#354E43"/>
<path fill-rule="evenodd" clip-rule="evenodd" d="M685.547 98L679.774 108L674 98L678.774 98L678.774 84L680.774 84L680.774 98L685.547 98Z" fill="#354E43"/>
<rect x="658" y="80" width="32" height="32" stroke="#5A8C77" stroke-width="1.2"/>
<rect width="32" height="32" transform="translate(690 80)" fill="#1E2C26"/>
<path fill-rule="evenodd" clip-rule="evenodd" d="M694.453 94L700.226 84L706 94L701.226 94L701.226 108L699.226 108L699.226 94L694.453 94Z" fill="#354E43"/>
<path fill-rule="evenodd" clip-rule="evenodd" d="M717.547 98L711.774 108L706 98L710.774 98L710.774 84L712.774 84L712.774 98L717.547 98Z" fill="#354E43"/>
<rect x="690" y="80" width="32" height="32" stroke="#5A8C77" stroke-width="1.2"/>
<rect width="32" height="32" transform="translate(722 80)" fill="#1E2C26"/>
<path fill-rule="evenodd" clip-rule="evenodd" d="M726.453 94L732.226 84L738 94L733.226 94L733.226 108L731.226 108L731.226 94L726.453 94Z" fill="#354E43"/>
<path fill-rule="evenodd" clip-rule="evenodd" d="M749.547 98L743.774 108L738 98L742.774 98L742.774 84L744.774 84L744.774 98L749.547 98Z" fill="#354E43"/>
<rect x="722" y="80" width="32" height="32" stroke="#5A8C77" stroke-width="1.2"/>
<rect width="32" height="32" transform="translate(754 80)" fill="#1E2C26"/>
<path fill-rule="evenodd" clip-rule="evenodd" d="M758.453 94L764.226 84L770 94L765.226 94L765.226 108L763.226 108L763.226 94L758.453 94Z" fill="#354E43"/>
<path fill-rule="evenodd" clip-rule="evenodd" d="M781.547 98L775.774 108L770 98L774.774 98L774.774 84L776.774 84L776.774 98L781.547 98Z" fill="#354E43"/>
<rect x="754" y="80" width="32" height="32" stroke="#5A8C77" stroke-width="1.2"/>
<path d="M627.552 135.144C626.352 135.144 625.208 134.952 624.12 134.568C623.032 134.168 622.168 133.64 621.528 132.984L622.368 131.616C622.896 132.176 623.616 132.64 624.528 133.008C625.456 133.376 626.456 133.56 627.528 133.56C628.952 133.56 630.032 133.248 630.768 132.624C631.52 131.984 631.896 131.152 631.896 130.128C631.896 129.408 631.72 128.792 631.368 128.28C631.032 127.752 630.456 127.344 629.64 127.056C628.824 126.768 627.704 126.624 626.28 126.624H622.704L623.568 118.2H632.76V119.736H624.264L625.152 118.896L624.408 125.952L623.52 125.088H626.664C628.36 125.088 629.72 125.296 630.744 125.712C631.768 126.128 632.504 126.712 632.952 127.464C633.416 128.2 633.648 129.064 633.648 130.056C633.648 131 633.424 131.864 632.976 132.648C632.528 133.416 631.856 134.024 630.96 134.472C630.064 134.92 628.928 135.144 627.552 135.144ZM641.986 135.12C640.786 135.12 639.706 134.848 638.746 134.304C637.802 133.76 637.058 133.008 636.514 132.048C635.97 131.072 635.698 129.952 635.698 128.688C635.698 127.408 635.97 126.288 636.514 125.328C637.058 124.368 637.802 123.624 638.746 123.096C639.706 122.552 640.786 122.28 641.986 122.28C643.09 122.28 644.074 122.528 644.938 123.024C645.818 123.52 646.514 124.248 647.026 125.208C647.554 126.152 647.818 127.312 647.818 128.688C647.818 130.048 647.562 131.208 647.05 132.168C646.538 133.128 645.842 133.864 644.962 134.376C644.098 134.872 643.106 135.12 641.986 135.12ZM642.106 133.608C643.002 133.608 643.802 133.408 644.506 133.008C645.226 132.592 645.786 132.016 646.186 131.28C646.602 130.528 646.81 129.664 646.81 128.688C646.81 127.696 646.602 126.832 646.186 126.096C645.786 125.36 645.226 124.792 644.506 124.392C643.802 123.976 643.002 123.768 642.106 123.768C641.226 123.768 640.434 123.976 639.73 124.392C639.026 124.792 638.466 125.36 638.05 126.096C637.634 126.832 637.426 127.696 637.426 128.688C637.426 129.664 637.634 130.528 638.05 131.28C638.466 132.016 639.026 132.592 639.73 133.008C640.434 133.408 641.226 133.608 642.106 133.608ZM646.858 135V131.208L647.026 128.664L646.786 126.12V117.192H648.49V135H646.858Z" fill="#71AA91"/>
<rect width="224" height="32" transform="translate(594 22)" fill="#1E2C26"/>
<rect width="32" height="32" transform="translate(594 22)" fill="#1E2C26"/>
<path fill-rule="evenodd" clip-rule="evenodd" d="M598.453 36L604.226 26L610 36L605.226 36L605.226 50L603.226 50L603.226 36L598.453 36Z" fill="#354E43"/>
<path fill-rule="evenodd" clip-rule="evenodd" d="M621.547 40L615.774 50L610 40L614.774 40L614.774 26L616.774 26L616.774 40L621.547 40Z" fill="#354E43"/>
<rect x="594" y="22" width="32" height="32" stroke="#5A8C77" stroke-width="1.2"/>
<rect width="32" height="32" transform="translate(626 22)" fill="#1E2C26"/>
<path fill-rule="evenodd" clip-rule="evenodd" d="M630.453 36L636.226 26L642 36L637.226 36L637.226 50L635.226 50L635.226 36L630.453 36Z" fill="#354E43"/>
<path fill-rule="evenodd" clip-rule="evenodd" d="M653.547 40L647.774 50L642 40L646.774 40L646.774 26L648.774 26L648.774 40L653.547 40Z" fill="#354E43"/>
<rect x="626" y="22" width="32" height="32" stroke="#5A8C77" stroke-width="1.2"/>
<rect width="32" height="32" transform="translate(658 22)" fill="#1E2C26"/>
<path fill-rule="evenodd" clip-rule="evenodd" d="M662.453 36L668.226 26L674 36L669.226 36L669.226 50L667.226 50L667.226 36L662.453 36Z" fill="#354E43"/>
<path fill-rule="evenodd" clip-rule="evenodd" d="M685.547 40L679.774 50L674 40L678.774 40L678.774 26L680.774 26L680.774 40L685.547 40Z" fill="#354E43"/>
<rect x="658" y="22" width="32" height="32" stroke="#5A8C77" stroke-width="1.2"/>
<rect width="32" height="32" transform="translate(690 22)" fill="#1E2C26"/>
<path fill-rule="evenodd" clip-rule="evenodd" d="M694.453 36L700.226 26L706 36L701.226 36L701.226 50L699.226 50L699.226 36L694.453 36Z" fill="#354E43"/>
<path fill-rule="evenodd" clip-rule="evenodd" d="M717.547 40L711.774 50L706 40L710.774 40L710.774 26L712.774 26L712.774 40L717.547 40Z" fill="#354E43"/>
<rect x="690" y="22" width="32" height="32" stroke="#5A8C77" stroke-width="1.2"/>
<rect width="32" height="32" transform="translate(722 22)" fill="#1E2C26"/>
<path fill-rule="evenodd" clip-rule="evenodd" d="M726.453 36L732.226 26L738 36L733.226 36L733.226 50L731.226 50L731.226 36L726.453 36Z" fill="#354E43"/>
<path fill-rule="evenodd" clip-rule="evenodd" d="M749.547 40L743.774 50L738 40L742.774 40L742.774 26L744.774 26L744.774 40L749.547 40Z" fill="#354E43"/>
<rect x="722" y="22" width="32" height="32" stroke="#5A8C77" stroke-width="1.2"/>
<rect width="32" height="32" transform="translate(754 22)" fill="#1E2C26"/>
<path fill-rule="evenodd" clip-rule="evenodd" d="M758.453 36L764.226 26L770 36L765.226 36L765.226 50L763.226 50L763.226 36L758.453 36Z" fill="#354E43"/>
<path fill-rule="evenodd" clip-rule="evenodd" d="M781.547 40L775.774 50L770 40L774.774 40L774.774 26L776.774 26L776.774 40L781.547 40Z" fill="#354E43"/>
<rect x="754" y="22" width="32" height="32" stroke="#5A8C77" stroke-width="1.2"/>
<rect width="32" height="32" transform="translate(786 22)" fill="#1E2C26"/>
<path fill-rule="evenodd" clip-rule="evenodd" d="M790.453 36L796.226 26L802 36L797.226 36L797.226 50L795.226 50L795.226 36L790.453 36Z" fill="#354E43"/>
<path fill-rule="evenodd" clip-rule="evenodd" d="M813.547 40L807.774 50L802 40L806.774 40L806.774 26L808.774 26L808.774 40L813.547 40Z" fill="#354E43"/>
<rect x="786" y="22" width="32" height="32" stroke="#5A8C77" stroke-width="1.2"/>
<path d="M595.552 77.144C594.352 77.144 593.208 76.952 592.12 76.568C591.032 76.168 590.168 75.64 589.528 74.984L590.368 73.616C590.896 74.176 591.616 74.64 592.528 75.008C593.456 75.376 594.456 75.56 595.528 75.56C596.952 75.56 598.032 75.248 598.768 74.624C599.52 73.984 599.896 73.152 599.896 72.128C599.896 71.408 599.72 70.792 599.368 70.28C599.032 69.752 598.456 69.344 597.64 69.056C596.824 68.768 595.704 68.624 594.28 68.624H590.704L591.568 60.2H600.76V61.736H592.264L593.152 60.896L592.408 67.952L591.52 67.088H594.664C596.36 67.088 597.72 67.296 598.744 67.712C599.768 68.128 600.504 68.712 600.952 69.464C601.416 70.2 601.648 71.064 601.648 72.056C601.648 73 601.424 73.864 600.976 74.648C600.528 75.416 599.856 76.024 598.96 76.472C598.064 76.92 596.928 77.144 595.552 77.144ZM605.258 77V62.816C605.258 61.696 605.586 60.792 606.242 60.104C606.898 59.416 607.842 59.072 609.074 59.072C609.554 59.072 610.018 59.136 610.466 59.264C610.914 59.392 611.29 59.592 611.594 59.864L611.018 61.136C610.778 60.928 610.498 60.776 610.178 60.68C609.858 60.568 609.514 60.512 609.146 60.512C608.426 60.512 607.874 60.712 607.49 61.112C607.106 61.512 606.914 62.104 606.914 62.888V64.808L606.962 65.6V77H605.258ZM603.002 65.816V64.4H610.802V65.816H603.002Z" fill="#71AA91"/>
<rect width="32" height="32" transform="translate(1054 80)" fill="#1E2C26"/>
<rect width="32" height="32" transform="translate(1054 80)" fill="#1E2C26"/>
<path fill-rule="evenodd" clip-rule="evenodd" d="M1058.45 94L1064.23 84L1070 94L1065.23 94L1065.23 108L1063.23 108L1063.23 94L1058.45 94Z" fill="#354E43"/>
<path fill-rule="evenodd" clip-rule="evenodd" d="M1081.55 98L1075.77 108L1070 98L1074.77 98L1074.77 84L1076.77 84L1076.77 98L1081.55 98Z" fill="#354E43"/>
<rect x="1054" y="80" width="32" height="32" stroke="#5A8C77" stroke-width="1.2"/>
<path d="M1053.2 135L1060.45 118.968L1060.98 119.736H1050.58L1051.47 118.896V122.88H1049.77V118.2H1062.1V119.424L1055.07 135H1053.2ZM1068.17 135.12C1067.13 135.12 1066.14 134.976 1065.21 134.688C1064.29 134.384 1063.56 134.008 1063.03 133.56L1063.8 132.216C1064.31 132.6 1064.97 132.936 1065.77 133.224C1066.57 133.496 1067.41 133.632 1068.29 133.632C1069.49 133.632 1070.35 133.448 1070.88 133.08C1071.41 132.696 1071.67 132.192 1071.67 131.568C1071.67 131.104 1071.52 130.744 1071.21 130.488C1070.93 130.216 1070.54 130.016 1070.06 129.888C1069.58 129.744 1069.05 129.624 1068.45 129.528C1067.86 129.432 1067.27 129.32 1066.68 129.192C1066.1 129.064 1065.57 128.88 1065.09 128.64C1064.61 128.384 1064.22 128.04 1063.92 127.608C1063.63 127.176 1063.49 126.6 1063.49 125.88C1063.49 125.192 1063.68 124.576 1064.06 124.032C1064.45 123.488 1065.01 123.064 1065.74 122.76C1066.49 122.44 1067.41 122.28 1068.48 122.28C1069.29 122.28 1070.11 122.392 1070.93 122.616C1071.74 122.824 1072.41 123.104 1072.94 123.456L1072.2 124.824C1071.64 124.44 1071.04 124.168 1070.4 124.008C1069.76 123.832 1069.12 123.744 1068.48 123.744C1067.34 123.744 1066.5 123.944 1065.96 124.344C1065.43 124.728 1065.17 125.224 1065.17 125.832C1065.17 126.312 1065.31 126.688 1065.6 126.96C1065.9 127.232 1066.29 127.448 1066.77 127.608C1067.27 127.752 1067.81 127.872 1068.38 127.968C1068.97 128.064 1069.56 128.184 1070.13 128.328C1070.73 128.456 1071.26 128.64 1071.74 128.88C1072.24 129.104 1072.63 129.432 1072.92 129.864C1073.22 130.28 1073.37 130.832 1073.37 131.52C1073.37 132.256 1073.17 132.896 1072.75 133.44C1072.35 133.968 1071.76 134.384 1070.97 134.688C1070.21 134.976 1069.27 135.12 1068.17 135.12Z" fill="#71AA91"/>
<rect width="96" height="32" transform="translate(1024 22)" fill="#1E2C26"/>
<rect width="32" height="32" transform="translate(1024 22)" fill="#1E2C26"/>
<path fill-rule="evenodd" clip-rule="evenodd" d="M1028.45 36L1034.23 26L1040 36L1035.23 36L1035.23 50L1033.23 50L1033.23 36L1028.45 36Z" fill="#354E43"/>
<path fill-rule="evenodd" clip-rule="evenodd" d="M1051.55 40L1045.77 50L1040 40L1044.77 40L1044.77 26L1046.77 26L1046.77 40L1051.55 40Z" fill="#354E43"/>
<rect x="1024" y="22" width="32" height="32" stroke="#5A8C77" stroke-width="1.2"/>
<rect width="32" height="32" transform="translate(1056 22)" fill="#1E2C26"/>
<path fill-rule="evenodd" clip-rule="evenodd" d="M1060.45 36L1066.23 26L1072 36L1067.23 36L1067.23 50L1065.23 50L1065.23 36L1060.45 36Z" fill="#354E43"/>
<path fill-rule="evenodd" clip-rule="evenodd" d="M1083.55 40L1077.77 50L1072 40L1076.77 40L1076.77 26L1078.77 26L1078.77 40L1083.55 40Z" fill="#354E43"/>
<rect x="1056" y="22" width="32" height="32" stroke="#5A8C77" stroke-width="1.2"/>
<rect width="32" height="32" transform="translate(1088 22)" fill="#1E2C26"/>
<path fill-rule="evenodd" clip-rule="evenodd" d="M1092.45 36L1098.23 26L1104 36L1099.23 36L1099.23 50L1097.23 50L1097.23 36L1092.45 36Z" fill="#354E43"/>
<path fill-rule="evenodd" clip-rule="evenodd" d="M1115.55 40L1109.77 50L1104 40L1108.77 40L1108.77 26L1110.77 26L1110.77 40L1115.55 40Z" fill="#354E43"/>
<rect x="1088" y="22" width="32" height="32" stroke="#5A8C77" stroke-width="1.2"/>
<path d="M1023.2 77L1030.45 60.968L1030.98 61.736H1020.58L1021.47 60.896V64.88H1019.77V60.2H1032.1V61.424L1025.07 77H1023.2ZM1041.38 77.12C1040.29 77.12 1039.31 76.872 1038.43 76.376C1037.55 75.864 1036.84 75.136 1036.32 74.192C1035.8 73.232 1035.55 72.064 1035.55 70.688C1035.55 69.312 1035.8 68.152 1036.32 67.208C1036.83 66.248 1037.52 65.52 1038.4 65.024C1039.28 64.528 1040.28 64.28 1041.38 64.28C1042.58 64.28 1043.65 64.552 1044.6 65.096C1045.56 65.624 1046.31 66.376 1046.85 67.352C1047.4 68.312 1047.67 69.424 1047.67 70.688C1047.67 71.968 1047.4 73.088 1046.85 74.048C1046.31 75.008 1045.56 75.76 1044.6 76.304C1043.65 76.848 1042.58 77.12 1041.38 77.12ZM1034.88 81.656V64.4H1036.51V68.192L1036.34 70.712L1036.58 73.256V81.656H1034.88ZM1041.26 75.608C1042.16 75.608 1042.96 75.408 1043.66 75.008C1044.36 74.592 1044.92 74.016 1045.34 73.28C1045.76 72.528 1045.96 71.664 1045.96 70.688C1045.96 69.712 1045.76 68.856 1045.34 68.12C1044.92 67.384 1044.36 66.808 1043.66 66.392C1042.96 65.976 1042.16 65.768 1041.26 65.768C1040.36 65.768 1039.56 65.976 1038.84 66.392C1038.13 66.808 1037.57 67.384 1037.16 68.12C1036.76 68.856 1036.56 69.712 1036.56 70.688C1036.56 71.664 1036.76 72.528 1037.16 73.28C1037.57 74.016 1038.13 74.592 1038.84 75.008C1039.56 75.408 1040.36 75.608 1041.26 75.608Z" fill="#71AA91"/>
</svg>
