<svg>
<!-- Информационная иконка -->
	<symbol xmlns="http://www.w3.org/2000/svg" viewBox="0 0 28 28" id="info">
		<path d="M14 12.25C14.2321 12.25 14.4546 12.3422 14.6187 12.5063C14.7828 
			12.6704 14.875 12.8929 14.875 13.125V18.375C14.875 18.6071 14.7828 18.8296 
			14.6187 18.9937C14.4546 19.1578 14.2321 19.25 14 19.25C13.7679 19.25 13.5454 19.1578 13.3813 18.9937C13.2172 18.8296 13.125 18.6071 13.125 18.375V13.125C13.125 12.8929 13.2172 12.6704 13.3813 12.5063C13.5454 12.3422 13.7679 12.25 14 12.25Z
			M13.9992 10.9375C14.1716 10.9375 14.3423 10.9036 14.5015 10.8376C14.6607 10.7716 14.8054 10.675 14.9273 10.5531C15.0492 10.4312 15.1459 10.2865 15.2118 10.1273C15.2778 9.96803 15.3117 9.79736 15.3117 9.625C15.3117 9.45264 15.2778 9.28197 15.2118 9.12273C15.1459 8.96349 15.0492 8.8188 14.9273 8.69692C14.8054 8.57505 14.6607 8.47837 14.5015 8.41241C14.3423 8.34645 14.1716 8.3125 13.9992 8.3125C13.6516 8.3125 13.3182 8.4506 13.0724 8.69641C12.8266 8.94222 12.6885 9.27562 12.6885 9.62325C12.6885 9.97088 12.8266 10.3043 13.0724 10.5501C13.3182 10.7959 13.6516 10.934 13.9992 10.934V10.9375Z
			M3.5 14C3.5 12.6211 3.77159 11.2557 4.29926 9.98182C4.82694 8.70791 5.60036 7.55039 6.57538 6.57538C7.55039 5.60036 8.70791 4.82694 9.98182 4.29927C11.2557 3.77159 12.6211 3.5 14 3.5C15.3789 3.5 16.7443 3.77159 18.0182 4.29927C19.2921 4.82694 20.4496 5.60036 21.4246 6.57538C22.3996 7.55039 23.1731 8.70791 23.7007 9.98182C24.2284 11.2557 24.5 12.6211 24.5 14C24.5 16.7848 23.3938 19.4555 21.4246 21.4246C19.4555 23.3938 16.7848 24.5 14 24.5C11.2152 24.5 8.54451 23.3938 6.57538 21.4246C4.60625 19.4555 3.5 16.7848 3.5 14ZM14 5.25C11.6794 5.25 9.45376 6.17187 7.81282 7.81282C6.17187 9.45376 5.25 11.6794 5.25 14C5.25 16.3206 6.17187 18.5462 7.81282 20.1872C9.45376 21.8281 11.6794 22.75 14 22.75C16.3206 22.75 18.5462 21.8281 20.1872 20.1872C21.8281 18.5462 22.75 16.3206 22.75 14C22.75 11.6794 21.8281 9.45376 20.1872 7.81282C18.5462 6.17187 16.3206 5.25 14 5.25Z"  
		/>
	</symbol>

<!-- Иконка сообщения-->
	<symbol xmlns="http://www.w3.org/2000/svg" viewBox="0 0 27 27" id="message">
		<path d="M20.4312 8.75334H5.56788V7.23667H20.4312V8.75334Z" />
		<path d="M18.4595 14.6683H16.9429V18.9678L20.9873 21.1023L21.6952 19.761L18.4595 18.0533V14.6683Z" />
		<path fill-rule="evenodd" clip-rule="evenodd" d="M10.4708 20.5195H5.33992L0.866211 24.9922V1.92834C0.866211 1.34199 1.34153 0.866669 1.92788 0.866669H24.3745C24.9609 0.866669 25.4362 1.34199 25.4362 1.92834V14.7439C25.9227 15.7798 26.1945 16.9365 26.1945 18.1567C26.1945 22.5961 22.5957 26.195 18.1562 26.195C14.539 26.195 11.4799 23.8058 10.4708 20.5195ZM2.38288 21.3312V2.38334H23.9195V12.5532C22.4591 11.0513 20.4166 10.1183 18.1562 10.1183C15.6794 10.1183 13.4642 11.2386 11.9896 13H5.56788V14.5167H10.9873C10.4313 15.6095 10.1179 16.8465 10.1179 18.1567C10.1179 18.4424 10.1328 18.7247 10.1619 19.0028H4.7118L2.38288 21.3312ZM23.9195 15.1017V15.2271H23.9844C24.4281 16.1079 24.6779 17.1031 24.6779 18.1567C24.6779 21.7585 21.758 24.6783 18.1562 24.6783C14.5544 24.6783 11.6345 21.7585 11.6345 18.1567C11.6345 14.5549 14.5544 11.635 18.1562 11.635C20.6542 11.635 22.8241 13.0394 23.9195 15.1017Z" />
	</symbol>

<!-- Стрелка переключений экранов налево-->
	<symbol xmlns="http://www.w3.org/2000/svg" viewBox="0 0 22 22" id="arrow-left">
		<path d="M15.0996 2.5999L6.69961 10.9999L15.0996 19.3999" 
		stroke-width="2" stroke-linecap="round"  stroke-linejoin="round"
		fill="transparent"/>
	</symbol>

<!-- иконка масштабирования-->
	<symbol xmlns="http://www.w3.org/2000/svg" viewBox="0 0 18 18" id="scaling">
		<path d="M1.6875 16.2719L5.75 12.25
			M16.2719 1.6875L12.25 5.70937
			M15.1914 6.22125L11.5352 6.22125L11.5352 2.565
			M2.56543 11.73L6.22168 11.73L6.22168 15.3862"
		stroke-width="1.4" stroke-linecap="round" stroke-linejoin="round"/>
	</symbol>

<!-- иконки переключения этапов игры-->
	<!-- загадывание элемента-->
	<symbol xmlns="http://www.w3.org/2000/svg" viewBox="0 0 20 20" id="choose">
		<path fill-rule="evenodd" clip-rule="evenodd" d="M9.11604 0.573148C9.6042 0.0849913 10.3957 0.0849935 10.8838 0.573148L19.4267 9.11604C19.9149 9.60419 19.9149 10.3956 19.4267 10.8838L10.8838 19.4267C10.3956 19.9149 9.60419 19.9148 9.11604 19.4267L0.573148 10.8838C0.0849912 10.3956 0.0849936 9.60419 0.573148 9.11604L9.11604 0.573148ZM9.99992 1.81058L6.56058 5.24992L10.1249 8.81426L13.5643 5.37492L9.99992 1.81058ZM14.6249 6.43558L11.1856 9.87492L14.7499 13.4393L18.1893 9.99992L14.6249 6.43558ZM9.06426 9.87492L5.49992 6.31059L1.81059 9.99992L5.37493 13.5643L9.06426 9.87492ZM6.43559 14.6249L10.1249 10.9356L13.6893 14.4999L9.99992 18.1893L6.43559 14.6249Z"
 		/>
	</symbol>

	<!-- сделать выстрел-->
	<symbol xmlns="http://www.w3.org/2000/svg" viewBox="0 0 20 20" id="shoot">
		<path d="M10 11C10.5523 11 11 10.5523 11 10C11 9.44771 10.5523 9 10 9C9.44771 9 9 9.44771 9 10C9 10.5523 9.44771 11 10 11Z" 
		/>
		<path fill-rule="evenodd" clip-rule="evenodd" d="M17.7142 10.75C17.3607 14.4315 14.4315 17.3607 10.75 17.7142V20H9.25V17.7142C5.5685 17.3607 2.63935 14.4315 2.28582 10.75H0V9.25H2.28582C2.63935 5.5685 5.5685 2.63935 9.25 2.28582V0H10.75V2.28582C14.4315 2.63935 17.3607 5.5685 17.7142 9.25H20V10.75H17.7142ZM9.25 3.79454V6H10.75V3.79454C13.6023 4.13565 15.8644 6.39773 16.2055 9.25H14V10.75H16.2055C15.8644 13.6023 13.6023 15.8644 10.75 16.2055V14H9.25V16.2055C6.39773 15.8644 4.13565 13.6023 3.79454 10.75H6V9.25H3.79454C4.13565 6.39773 6.39773 4.13565 9.25 3.79454Z" 
		/>
	</symbol>

	<!-- отгадать элемент-->
	<symbol xmlns="http://www.w3.org/2000/svg" viewBox="0 0 20 20" id="guess">
		<path fill-rule="evenodd" clip-rule="evenodd" d="M0 1.25C0 0.559643 0.559645 0 1.25 0H18.75C19.4404 0 20 0.559645 20 1.25V18.75C20 19.4404 19.4404 20 18.75 20H1.25C0.559643 20 0 19.4404 0 18.75V1.25ZM1.5 7.5V12.375H6V7.5L1.5 7.5ZM1.5 6L6 6V1.5H1.5V6ZM7.5 7.5V12.375L12.5 12.375V7.5H7.5ZM12.5 6H7.5V1.5H12.5V6ZM14 7.5V12.375H18.5V7.5L14 7.5ZM18.5 6L14 6V1.5H18.5V6ZM1.5 18.5V13.875H6V18.5H1.5ZM7.5 18.5V13.875L12.5 13.875V18.5H7.5ZM14 18.5V13.875H18.5V18.5H14Z" 
		/>
	</symbol>

	<!-- значок выхода из игры - флажок-->
	<symbol xmlns="http://www.w3.org/2000/svg" viewBox="0 0 20 20" id="exit">
		<path d="M3.98438 18.75H2.5V2.24102L2.6832 2.0582C2.81797 1.92305 3.62422 1.25 6.25 1.25C7.70352 1.25 9.3293 1.82461 10.7637 2.33125C11.9187 2.73945 13.0098 3.125 13.75 3.125C15.423 3.125 16.5906 2.56836 16.6016 2.5625L17.5 2.12734V12.2613L17.1547 12.434C17.098 12.4609 15.7496 13.125 13.75 13.125C12.807 13.125 11.6258 12.8461 10.3754 12.5504C8.96992 12.2184 7.5168 11.875 6.25 11.875C4.80977 11.875 4.30703 12.093 3.98438 12.2309V18.75Z" 
		/>
	</symbol>

	<!-- значок выхода из игры -->
	<symbol xmlns="http://www.w3.org/2000/svg" viewBox="0 0 20 20" id="exit">
		<path d="M3.98438 18.75H2.5V2.24102L2.6832 2.0582C2.81797 1.92305 3.62422 1.25 6.25 1.25C7.70352 1.25 9.3293 1.82461 10.7637 2.33125C11.9187 2.73945 13.0098 3.125 13.75 3.125C15.423 3.125 16.5906 2.56836 16.6016 2.5625L17.5 2.12734V12.2613L17.1547 12.434C17.098 12.4609 15.7496 13.125 13.75 13.125C12.807 13.125 11.6258 12.8461 10.3754 12.5504C8.96992 12.2184 7.5168 11.875 6.25 11.875C4.80977 11.875 4.30703 12.093 3.98438 12.2309V18.75Z" 
		/>
	</symbol>

	<!-- крест закрытия -->
	<symbol xmlns="http://www.w3.org/2000/svg" viewBox="0 0 20 20" id="cross">
		<path d="M9.04462 7.96477L14.2286 2.78077C14.3451 2.64473 14.406 2.46974 14.3991 2.29077C14.3922 2.1118 14.318 1.94203 14.1913 1.81539C14.0647 1.68874 13.8949 1.61455 13.7159 1.60764C13.537 1.60073 13.362 1.6616 13.226 1.7781L8.04195 6.9621L2.85795 1.77099C2.72192 1.65449 2.54693 1.59362 2.36796 1.60053C2.18899 1.60744 2.01922 1.68163 1.89257 1.80828C1.76593 1.93492 1.69174 2.10469 1.68482 2.28366C1.67791 2.46263 1.73879 2.63762 1.85529 2.77366L7.03929 7.96477L1.84817 13.1488C1.77373 13.2125 1.71327 13.291 1.67059 13.3792C1.62791 13.4674 1.60392 13.5635 1.60014 13.6614C1.59636 13.7594 1.61286 13.857 1.64861 13.9483C1.68436 14.0395 1.73859 14.1224 1.80789 14.1917C1.87719 14.261 1.96007 14.3152 2.05132 14.351C2.14258 14.3867 2.24023 14.4032 2.33817 14.3995C2.4361 14.3957 2.5322 14.3717 2.62042 14.329C2.70864 14.2863 2.78709 14.2259 2.85084 14.1514L8.04195 8.96743L13.226 14.1514C13.362 14.2679 13.537 14.3288 13.7159 14.3219C13.8949 14.315 14.0647 14.2408 14.1913 14.1141C14.318 13.9875 14.3922 13.8177 14.3991 13.6388C14.406 13.4598 14.3451 13.2848 14.2286 13.1488L9.04462 7.96477Z" 
		/>
	</symbol>

	<!-- иконка корабля -->
	<symbol xmlns="http://www.w3.org/2000/svg" viewBox="0 0 119 55" id="ship">
		<path d="M18.8219 3.46265L13.7421 6.09385V36.2925H4.13281C4.70438 46.6252 6.7259 47.1055 13.4297 51.2635H101.899C105.189 44.4178 113.78 45.2685 115.677 36.2925H35.3517V16.2762H18.8033L18.8219 3.46265ZM42.5884 10.675C41.7669 10.6751 41.1009 11.3317 41.1009 12.1416V32.5833C41.101 33.3933 41.7669 34.05 42.5884 34.05H104.766C105.587 34.0499 106.253 33.3933 106.253 32.5833V12.1416C106.253 11.3317 105.587 10.675 104.766 10.675H63.3019H42.5884ZM44.0759 13.6083H61.833V31.1166H44.0759V13.6083ZM64.808 13.6083H82.565V31.1166H64.808V13.6083ZM85.54 13.6083H103.297V31.1166H85.54V13.6083ZM52.9563 15.3907C52.5796 15.3906 52.2315 15.589 52.0433 15.9106L49.5949 20.0943C49.1892 20.7873 49.6965 21.6533 50.5079 21.6533H51.9024V28.312C51.922 29.6782 53.9912 29.6782 54.0109 28.312L54.0102 21.6533H55.4062C56.2176 21.6534 56.7249 20.7873 56.3192 20.0943L53.8692 15.9106C53.6809 15.589 53.333 15.3907 52.9563 15.3907ZM73.6883 15.3907C73.3116 15.3906 72.9635 15.589 72.7754 15.9106L70.3262 20.0943C69.9205 20.7873 70.4278 21.6533 71.2392 21.6533H72.6344V28.312C72.654 29.6782 74.7225 29.6782 74.7422 28.312V21.6533H76.1375C76.9489 21.6534 77.4562 20.7873 77.0505 20.0943L74.6013 15.9106C74.4129 15.589 74.065 15.3907 73.6883 15.3907ZM94.4204 15.3907C94.0437 15.3906 93.6956 15.589 93.5074 15.9106L91.0582 20.0943C90.6525 20.7873 91.1598 21.6533 91.9712 21.6533H93.3665V28.312C93.3861 29.6782 95.4546 29.6782 95.4743 28.312V21.6533H96.8695C97.681 21.6534 98.1882 20.7873 97.7825 20.0943L95.3333 15.9106C95.145 15.589 94.7971 15.3907 94.4204 15.3907ZM18.9669 20.0767H24.1769V25.2137H18.9669V20.0767ZM26.7317 20.0767H31.9416V25.2137H26.7317V20.0767Z" 
		/>	
	</symbol>

	<!-- иконка повтора -->
	<symbol xmlns="http://www.w3.org/2000/svg" viewBox="0 0 31 33" id="repeat">
		<path d="M24.6392 11.712L30.5792 6.25601L24.6392 0.800049V5.21127H4.12607V14.9839H6.28607V7.37127H24.6392V11.712Z" />
		<path d="M26.9309 28.3608V18.5882H24.7709V26.2008H6.60547L6.60547 21.68L0.699219 27.136L6.60547 32.592L6.60547 28.3608H26.9309Z"/>
	</symbol>

	<!-- иконка баллонов -->
	<symbol xmlns="http://www.w3.org/2000/svg" viewBox="0 0 36 36" id="ballons">
		<path fill-rule="evenodd" clip-rule="evenodd" d="M29.2 4.79999V6.95479H31.8V8.03147H29.2V9.15274C30.6756 9.40904 31.8 10.7376 31.8 12.3381V13.4147H25.56V12.3381C25.56 10.7376 26.6844 9.40904 28.16 9.15274V8.03147H27.0312C26.8171 8.65867 26.2392 9.10812 25.56 9.10812C24.6984 9.10812 24 8.38504 24 7.49311C24 6.60119 24.6984 5.87814 25.56 5.87814C26.2392 5.87814 26.8171 6.32754 27.0312 6.95479H28.16V4.79999H29.2ZM25.56 14.4914V32.4617C25.56 32.7589 25.7928 33 26.08 33H31.28C31.5672 33 31.8 32.7589 31.8 32.4617V14.4914H25.56ZM25.56 6.95479C25.2728 6.95479 25.04 7.19581 25.04 7.49311C25.04 7.79042 25.2728 8.03147 25.56 8.03147C25.8472 8.03147 26.08 7.79042 26.08 7.49311C26.08 7.19581 25.8472 6.95479 25.56 6.95479Z" />
		<path fill-rule="evenodd" clip-rule="evenodd" d="M18.4002 4.79999V6.95479H21.0002V8.03147H18.4002V9.15274C19.8758 9.40904 21.0002 10.7376 21.0002 12.3381V13.4147H14.7602V12.3381C14.7602 10.7376 15.8846 9.40904 17.3602 9.15274V8.03147H16.2314C16.0173 8.65867 15.4394 9.10812 14.7602 9.10812C13.8986 9.10812 13.2002 8.38504 13.2002 7.49311C13.2002 6.60119 13.8986 5.87814 14.7602 5.87814C15.4394 5.87814 16.0173 6.32754 16.2314 6.95479H17.3602V4.79999H18.4002ZM14.7602 14.4914V32.4617C14.7602 32.7589 14.993 33 15.2802 33H20.4802C20.7674 33 21.0002 32.7589 21.0002 32.4617V14.4914H14.7602ZM14.7602 6.95479C14.473 6.95479 14.2402 7.19581 14.2402 7.49311C14.2402 7.79042 14.473 8.03147 14.7602 8.03147C15.0474 8.03147 15.2802 7.79042 15.2802 7.49311C15.2802 7.19581 15.0474 6.95479 14.7602 6.95479Z" />
		<path fill-rule="evenodd" clip-rule="evenodd" d="M7.60039 4.79999V6.95479H10.2004V8.03147H7.60039V9.15274C9.07599 9.40904 10.2004 10.7376 10.2004 12.3381V13.4147H3.96039V12.3381C3.96039 10.7376 5.08479 9.40904 6.56039 9.15274V8.03147H5.43163C5.21749 8.65867 4.63961 9.10812 3.96039 9.10812C3.09883 9.10812 2.40039 8.38504 2.40039 7.49311C2.40039 6.60119 3.09883 5.87814 3.96039 5.87814C4.63961 5.87814 5.21749 6.32754 5.43163 6.95479H6.56039V4.79999H7.60039ZM3.96039 14.4914V32.4617C3.96039 32.7589 4.19319 33 4.48039 33H9.68039C9.96759 33 10.2004 32.7589 10.2004 32.4617V14.4914H3.96039ZM3.96039 6.95479C3.6732 6.95479 3.44039 7.19581 3.44039 7.49311C3.44039 7.79042 3.6732 8.03147 3.96039 8.03147C4.24759 8.03147 4.48039 7.79042 4.48039 7.49311C4.48039 7.19581 4.24759 6.95479 3.96039 6.95479Z" />
	</symbol>
	
		<!-- иконка широких баллонов -->
	<symbol xmlns="http://www.w3.org/2000/svg"  viewBox="0 0 27 14" id="ballons-wide">
		<path fill-rule="evenodd" clip-rule="evenodd" d="M6.95026 1.98415V0.700012H6.29693V1.98415H5.58783C5.45331 1.61034 5.09029 1.34253 4.66359 1.34253C4.12236 1.34253 3.68359 1.77342 3.68359 2.30496C3.68359 2.83649 4.12236 3.26741 4.66359 3.26741C5.09029 3.26741 5.45331 2.99956 5.58783 2.62578H6.29693V3.294C5.36995 3.44674 4.66359 4.2385 4.66359 5.19227V5.83389H8.58359V5.19227C8.58359 4.2385 7.87724 3.44674 6.95026 3.294V2.62578H8.58359V1.98415H6.95026ZM4.33693 2.30496C4.33693 2.12778 4.48318 1.98415 4.66359 1.98415C4.84401 1.98415 4.99026 2.12778 4.99026 2.30496C4.99026 2.48214 4.84401 2.62578 4.66359 2.62578C4.48318 2.62578 4.33693 2.48214 4.33693 2.30496Z" />
		<path d="M4.66359 13.2125V6.47551H8.58359V13.2125C8.58359 13.3897 8.43735 13.5333 8.25693 13.5333H4.99026C4.80984 13.5333 4.66359 13.3897 4.66359 13.2125Z" />
		<path fill-rule="evenodd" clip-rule="evenodd" d="M13.9503 0.700012V1.98415H15.5836V2.62578H13.9503V3.294C14.8772 3.44674 15.5836 4.2385 15.5836 5.19227V5.83389H11.6636V5.19227C11.6636 4.2385 12.3699 3.44674 13.2969 3.294V2.62578H12.5878C12.4533 2.99956 12.0903 3.26741 11.6636 3.26741C11.1224 3.26741 10.6836 2.83649 10.6836 2.30496C10.6836 1.77342 11.1224 1.34253 11.6636 1.34253C12.0903 1.34253 12.4533 1.61034 12.5878 1.98415H13.2969V0.700012H13.9503ZM11.6636 1.98415C11.4832 1.98415 11.3369 2.12778 11.3369 2.30496C11.3369 2.48214 11.4832 2.62578 11.6636 2.62578C11.844 2.62578 11.9903 2.48214 11.9903 2.30496C11.9903 2.12778 11.844 1.98415 11.6636 1.98415Z" />
		<path d="M11.6636 6.47551V13.2125C11.6636 13.3897 11.8098 13.5333 11.9903 13.5333H15.2569C15.4373 13.5333 15.5836 13.3897 15.5836 13.2125V6.47551H11.6636Z" />
		<path fill-rule="evenodd" clip-rule="evenodd" d="M20.9503 0.700012V1.98415H22.5836V2.62578H20.9503V3.294C21.8772 3.44674 22.5836 4.2385 22.5836 5.19227V5.83389H18.6636V5.19227C18.6636 4.2385 19.3699 3.44674 20.2969 3.294V2.62578H19.5878C19.4533 2.99956 19.0903 3.26741 18.6636 3.26741C18.1224 3.26741 17.6836 2.83649 17.6836 2.30496C17.6836 1.77342 18.1224 1.34253 18.6636 1.34253C19.0903 1.34253 19.4533 1.61034 19.5878 1.98415H20.2969V0.700012H20.9503ZM18.6636 1.98415C18.4832 1.98415 18.3369 2.12778 18.3369 2.30496C18.3369 2.48214 18.4832 2.62578 18.6636 2.62578C18.844 2.62578 18.9903 2.48214 18.9903 2.30496C18.9903 2.12778 18.844 1.98415 18.6636 1.98415Z" />
		<path d="M18.6636 6.47551V13.2125C18.6636 13.3897 18.8098 13.5333 18.9903 13.5333H22.2569C22.4373 13.5333 22.5836 13.3897 22.5836 13.2125V6.47551H18.6636Z" />
	</symbol>

	<symbol xmlns="http://www.w3.org/2000/svg"  viewBox="0 0 30 30" id="play">
		<path d="M12.1196 10.3234C12.1196 10.0261 12.4595 9.85691 12.6967 10.0362L18.9367 14.7527C19.1281 14.8974 19.1271 15.1854 18.9345 15.3287L12.6945 19.9722C12.457 20.1489 12.1196 19.9794 12.1196 19.6833V10.3234Z" />
		<path fill-rule="evenodd" clip-rule="evenodd" d="M2.39961 0.599976C1.4055 0.599976 0.599609 1.40586 0.599609 2.39998V27.6C0.599609 28.5941 1.4055 29.4 2.39961 29.4H27.5996C28.5937 29.4 29.3996 28.5941 29.3996 27.6V2.39998C29.3996 1.40586 28.5937 0.599976 27.5996 0.599976H2.39961ZM2.75961 27.24V2.75998H27.2396V27.24H2.75961Z" />
	</symbol>

</svg>


