<svg>
<!-- Информационная иконка -->
	<symbol xmlns="http://www.w3.org/2000/svg" viewBox="0 0 28 28" id="info">
		<path d="M14 12.25C14.2321 12.25 14.4546 12.3422 14.6187 12.5063C14.7828 
			12.6704 14.875 12.8929 14.875 13.125V18.375C14.875 18.6071 14.7828 18.8296 
			14.6187 18.9937C14.4546 19.1578 14.2321 19.25 14 19.25C13.7679 19.25 13.5454 19.1578 13.3813 18.9937C13.2172 18.8296 13.125 18.6071 13.125 18.375V13.125C13.125 12.8929 13.2172 12.6704 13.3813 12.5063C13.5454 12.3422 13.7679 12.25 14 12.25Z
			M13.9992 10.9375C14.1716 10.9375 14.3423 10.9036 14.5015 10.8376C14.6607 10.7716 14.8054 10.675 14.9273 10.5531C15.0492 10.4312 15.1459 10.2865 15.2118 10.1273C15.2778 9.96803 15.3117 9.79736 15.3117 9.625C15.3117 9.45264 15.2778 9.28197 15.2118 9.12273C15.1459 8.96349 15.0492 8.8188 14.9273 8.69692C14.8054 8.57505 14.6607 8.47837 14.5015 8.41241C14.3423 8.34645 14.1716 8.3125 13.9992 8.3125C13.6516 8.3125 13.3182 8.4506 13.0724 8.69641C12.8266 8.94222 12.6885 9.27562 12.6885 9.62325C12.6885 9.97088 12.8266 10.3043 13.0724 10.5501C13.3182 10.7959 13.6516 10.934 13.9992 10.934V10.9375Z
			M3.5 14C3.5 12.6211 3.77159 11.2557 4.29926 9.98182C4.82694 8.70791 5.60036 7.55039 6.57538 6.57538C7.55039 5.60036 8.70791 4.82694 9.98182 4.29927C11.2557 3.77159 12.6211 3.5 14 3.5C15.3789 3.5 16.7443 3.77159 18.0182 4.29927C19.2921 4.82694 20.4496 5.60036 21.4246 6.57538C22.3996 7.55039 23.1731 8.70791 23.7007 9.98182C24.2284 11.2557 24.5 12.6211 24.5 14C24.5 16.7848 23.3938 19.4555 21.4246 21.4246C19.4555 23.3938 16.7848 24.5 14 24.5C11.2152 24.5 8.54451 23.3938 6.57538 21.4246C4.60625 19.4555 3.5 16.7848 3.5 14ZM14 5.25C11.6794 5.25 9.45376 6.17187 7.81282 7.81282C6.17187 9.45376 5.25 11.6794 5.25 14C5.25 16.3206 6.17187 18.5462 7.81282 20.1872C9.45376 21.8281 11.6794 22.75 14 22.75C16.3206 22.75 18.5462 21.8281 20.1872 20.1872C21.8281 18.5462 22.75 16.3206 22.75 14C22.75 11.6794 21.8281 9.45376 20.1872 7.81282C18.5462 6.17187 16.3206 5.25 14 5.25Z"  
		/>
	</symbol>

<!-- Иконка сообщения-->
	<symbol xmlns="http://www.w3.org/2000/svg" viewBox="0 0 27 27" id="message">
		<path d="M20.4312 8.75334H5.56788V7.23667H20.4312V8.75334Z" />
		<path d="M18.4595 14.6683H16.9429V18.9678L20.9873 21.1023L21.6952 19.761L18.4595 18.0533V14.6683Z" />
		<path fill-rule="evenodd" clip-rule="evenodd" d="M10.4708 20.5195H5.33992L0.866211 24.9922V1.92834C0.866211 1.34199 1.34153 0.866669 1.92788 0.866669H24.3745C24.9609 0.866669 25.4362 1.34199 25.4362 1.92834V14.7439C25.9227 15.7798 26.1945 16.9365 26.1945 18.1567C26.1945 22.5961 22.5957 26.195 18.1562 26.195C14.539 26.195 11.4799 23.8058 10.4708 20.5195ZM2.38288 21.3312V2.38334H23.9195V12.5532C22.4591 11.0513 20.4166 10.1183 18.1562 10.1183C15.6794 10.1183 13.4642 11.2386 11.9896 13H5.56788V14.5167H10.9873C10.4313 15.6095 10.1179 16.8465 10.1179 18.1567C10.1179 18.4424 10.1328 18.7247 10.1619 19.0028H4.7118L2.38288 21.3312ZM23.9195 15.1017V15.2271H23.9844C24.4281 16.1079 24.6779 17.1031 24.6779 18.1567C24.6779 21.7585 21.758 24.6783 18.1562 24.6783C14.5544 24.6783 11.6345 21.7585 11.6345 18.1567C11.6345 14.5549 14.5544 11.635 18.1562 11.635C20.6542 11.635 22.8241 13.0394 23.9195 15.1017Z" />
	</symbol>

<!-- Стрелка переключений экранов налево-->
	<symbol xmlns="http://www.w3.org/2000/svg" viewBox="0 0 22 22" id="arrow-left">
		<path d="M15.0996 2.5999L6.69961 10.9999L15.0996 19.3999" 
		stroke-width="2" stroke-linecap="round"  stroke-linejoin="round"
		fill="transparent"/>
	</symbol>

<!-- иконка масштабирования-->
	<symbol xmlns="http://www.w3.org/2000/svg" viewBox="0 0 18 18" id="scaling">
		<path d="M1.6875 16.2719L5.75 12.25
			M16.2719 1.6875L12.25 5.70937
			M15.1914 6.22125L11.5352 6.22125L11.5352 2.565
			M2.56543 11.73L6.22168 11.73L6.22168 15.3862"
		stroke-width="1.4" stroke-linecap="round" stroke-linejoin="round"/>
	</symbol>

<!-- иконки переключения этапов игры-->
	<!-- загадывание элемента-->
	<symbol xmlns="http://www.w3.org/2000/svg" viewBox="0 0 20 20" id="choose">
		<path fill-rule="evenodd" clip-rule="evenodd" d="M9.11604 0.573148C9.6042 0.0849913 10.3957 0.0849935 10.8838 0.573148L19.4267 9.11604C19.9149 9.60419 19.9149 10.3956 19.4267 10.8838L10.8838 19.4267C10.3956 19.9149 9.60419 19.9148 9.11604 19.4267L0.573148 10.8838C0.0849912 10.3956 0.0849936 9.60419 0.573148 9.11604L9.11604 0.573148ZM9.99992 1.81058L6.56058 5.24992L10.1249 8.81426L13.5643 5.37492L9.99992 1.81058ZM14.6249 6.43558L11.1856 9.87492L14.7499 13.4393L18.1893 9.99992L14.6249 6.43558ZM9.06426 9.87492L5.49992 6.31059L1.81059 9.99992L5.37493 13.5643L9.06426 9.87492ZM6.43559 14.6249L10.1249 10.9356L13.6893 14.4999L9.99992 18.1893L6.43559 14.6249Z"
 		/>
	</symbol>

	<!-- сделать выстрел-->
	<symbol xmlns="http://www.w3.org/2000/svg" viewBox="0 0 20 20" id="shoot">
		<path d="M10 11C10.5523 11 11 10.5523 11 10C11 9.44771 10.5523 9 10 9C9.44771 9 9 9.44771 9 10C9 10.5523 9.44771 11 10 11Z" 
		/>
		<path fill-rule="evenodd" clip-rule="evenodd" d="M17.7142 10.75C17.3607 14.4315 14.4315 17.3607 10.75 17.7142V20H9.25V17.7142C5.5685 17.3607 2.63935 14.4315 2.28582 10.75H0V9.25H2.28582C2.63935 5.5685 5.5685 2.63935 9.25 2.28582V0H10.75V2.28582C14.4315 2.63935 17.3607 5.5685 17.7142 9.25H20V10.75H17.7142ZM9.25 3.79454V6H10.75V3.79454C13.6023 4.13565 15.8644 6.39773 16.2055 9.25H14V10.75H16.2055C15.8644 13.6023 13.6023 15.8644 10.75 16.2055V14H9.25V16.2055C6.39773 15.8644 4.13565 13.6023 3.79454 10.75H6V9.25H3.79454C4.13565 6.39773 6.39773 4.13565 9.25 3.79454Z" 
		/>
	</symbol>

	<!-- отгадать элемент-->
	<symbol xmlns="http://www.w3.org/2000/svg" viewBox="0 0 20 20" id="guess">
		<path fill-rule="evenodd" clip-rule="evenodd" d="M0 1.25C0 0.559643 0.559645 0 1.25 0H18.75C19.4404 0 20 0.559645 20 1.25V18.75C20 19.4404 19.4404 20 18.75 20H1.25C0.559643 20 0 19.4404 0 18.75V1.25ZM1.5 7.5V12.375H6V7.5L1.5 7.5ZM1.5 6L6 6V1.5H1.5V6ZM7.5 7.5V12.375L12.5 12.375V7.5H7.5ZM12.5 6H7.5V1.5H12.5V6ZM14 7.5V12.375H18.5V7.5L14 7.5ZM18.5 6L14 6V1.5H18.5V6ZM1.5 18.5V13.875H6V18.5H1.5ZM7.5 18.5V13.875L12.5 13.875V18.5H7.5ZM14 18.5V13.875H18.5V18.5H14Z" 
		/>
	</symbol>

	<!-- значок выхода из игры -->
	<symbol xmlns="http://www.w3.org/2000/svg" viewBox="0 0 20 20" id="exit">
		<path d="M3.98438 18.75H2.5V2.24102L2.6832 2.0582C2.81797 1.92305 3.62422 1.25 6.25 1.25C7.70352 1.25 9.3293 1.82461 10.7637 2.33125C11.9187 2.73945 13.0098 3.125 13.75 3.125C15.423 3.125 16.5906 2.56836 16.6016 2.5625L17.5 2.12734V12.2613L17.1547 12.434C17.098 12.4609 15.7496 13.125 13.75 13.125C12.807 13.125 11.6258 12.8461 10.3754 12.5504C8.96992 12.2184 7.5168 11.875 6.25 11.875C4.80977 11.875 4.30703 12.093 3.98438 12.2309V18.75Z" 
		/>
	</symbol>

</svg>





