<svg width="27" height="27" viewBox="0 0 27 27" fill="none" xmlns="http://www.w3.org/2000/svg">
<path d="M20.4312 8.75334H5.56788V7.23667H20.4312V8.75334Z" fill="#96C2AF"/>
<path d="M18.4595 14.6683H16.9429V18.9678L20.9873 21.1023L21.6952 19.761L18.4595 18.0533V14.6683Z" fill="#96C2AF"/>
<path fill-rule="evenodd" clip-rule="evenodd" d="M10.4708 20.5195H5.33992L0.866211 24.9922V1.92834C0.866211 1.34199 1.34153 0.866669 1.92788 0.866669H24.3745C24.9609 0.866669 25.4362 1.34199 25.4362 1.92834V14.7439C25.9227 15.7798 26.1945 16.9365 26.1945 18.1567C26.1945 22.5961 22.5957 26.195 18.1562 26.195C14.539 26.195 11.4799 23.8058 10.4708 20.5195ZM2.38288 21.3312V2.38334H23.9195V12.5532C22.4591 11.0513 20.4166 10.1183 18.1562 10.1183C15.6794 10.1183 13.4642 11.2386 11.9896 13H5.56788V14.5167H10.9873C10.4313 15.6095 10.1179 16.8465 10.1179 18.1567C10.1179 18.4424 10.1328 18.7247 10.1619 19.0028H4.7118L2.38288 21.3312ZM23.9195 15.1017V15.2271H23.9844C24.4281 16.1079 24.6779 17.1031 24.6779 18.1567C24.6779 21.7585 21.758 24.6783 18.1562 24.6783C14.5544 24.6783 11.6345 21.7585 11.6345 18.1567C11.6345 14.5549 14.5544 11.635 18.1562 11.635C20.6542 11.635 22.8241 13.0394 23.9195 15.1017Z" fill="#96C2AF"/>
</svg>
