<svg width="20" height="20" viewBox="0 0 20 20" fill="none" xmlns="http://www.w3.org/2000/svg">
<path fill-rule="evenodd" clip-rule="evenodd" d="M0 1.25C0 0.559643 0.559645 0 1.25 0H18.75C19.4404 0 20 0.559645 20 1.25V18.75C20 19.4404 19.4404 20 18.75 20H1.25C0.559643 20 0 19.4404 0 18.75V1.25ZM1.5 7.5V12.375H6V7.5L1.5 7.5ZM1.5 6L6 6V1.5H1.5V6ZM7.5 7.5V12.375L12.5 12.375V7.5H7.5ZM12.5 6H7.5V1.5H12.5V6ZM14 7.5V12.375H18.5V7.5L14 7.5ZM18.5 6L14 6V1.5H18.5V6ZM1.5 18.5V13.875H6V18.5H1.5ZM7.5 18.5V13.875L12.5 13.875V18.5H7.5ZM14 18.5V13.875H18.5V18.5H14Z" fill="#9CDF9A"/>
</svg>
