<svg width="37" height="36" viewBox="0 0 37 36" fill="none" xmlns="http://www.w3.org/2000/svg">
<path d="M33.68 1.5H3.32C2.58987 1.5 2 2.08987 2 2.82V33.18C2 33.9101 2.58987 34.5 3.32 34.5H33.68C34.4101 34.5 35 33.9101 35 33.18V2.82C35 2.08987 34.4101 1.5 33.68 1.5ZM33.1713 32.6713H3.8287V3.3287H33.1713V32.6713Z" fill="#96C2AF"/>
<path fill-rule="evenodd" clip-rule="evenodd" d="M6.55371 15.75L11.7499 6.75L16.946 15.75L12.6499 15.75L12.6499 28.5L10.8499 28.5L10.8499 15.75L6.55371 15.75Z" fill="#96C2AF"/>
<path fill-rule="evenodd" clip-rule="evenodd" d="M20.0537 19.5L25.2499 28.5L30.446 19.5L26.1499 19.5L26.1499 6.75L24.3499 6.75L24.3499 19.5L20.0537 19.5Z" fill="#96C2AF"/>
</svg>
