<svg width="20" height="20" viewBox="0 0 20 20" fill="none" xmlns="http://www.w3.org/2000/svg">
<path fill-rule="evenodd" clip-rule="evenodd" d="M9.11604 0.573148C9.6042 0.0849913 10.3957 0.0849935 10.8838 0.573148L19.4267 9.11604C19.9149 9.60419 19.9149 10.3956 19.4267 10.8838L10.8838 19.4267C10.3956 19.9149 9.60419 19.9148 9.11604 19.4267L0.573148 10.8838C0.0849912 10.3956 0.0849936 9.60419 0.573148 9.11604L9.11604 0.573148ZM9.99992 1.81058L6.56058 5.24992L10.1249 8.81426L13.5643 5.37492L9.99992 1.81058ZM14.6249 6.43558L11.1856 9.87492L14.7499 13.4393L18.1893 9.99992L14.6249 6.43558ZM9.06426 9.87492L5.49992 6.31059L1.81059 9.99992L5.37493 13.5643L9.06426 9.87492ZM6.43559 14.6249L10.1249 10.9356L13.6893 14.4999L9.99992 18.1893L6.43559 14.6249Z" fill="#40843C"/>
</svg>
