<svg width="20" height="20" viewBox="0 0 20 20" fill="none" xmlns="http://www.w3.org/2000/svg">
<path d="M10 11C10.5523 11 11 10.5523 11 10C11 9.44771 10.5523 9 10 9C9.44771 9 9 9.44771 9 10C9 10.5523 9.44771 11 10 11Z" fill="#40843C"/>
<path fill-rule="evenodd" clip-rule="evenodd" d="M17.7142 10.75C17.3607 14.4315 14.4315 17.3607 10.75 17.7142V20H9.25V17.7142C5.5685 17.3607 2.63935 14.4315 2.28582 10.75H0V9.25H2.28582C2.63935 5.5685 5.5685 2.63935 9.25 2.28582V0H10.75V2.28582C14.4315 2.63935 17.3607 5.5685 17.7142 9.25H20V10.75H17.7142ZM9.25 3.79454V6H10.75V3.79454C13.6023 4.13565 15.8644 6.39773 16.2055 9.25H14V10.75H16.2055C15.8644 13.6023 13.6023 15.8644 10.75 16.2055V14H9.25V16.2055C6.39773 15.8644 4.13565 13.6023 3.79454 10.75H6V9.25H3.79454C4.13565 6.39773 6.39773 4.13565 9.25 3.79454Z" fill="#40843C"/>
</svg>
