<svg width="33" height="36" viewBox="0 0 33 36" fill="none" xmlns="http://www.w3.org/2000/svg">
<path d="M12.4408 0.900024C12.2594 0.900024 12.0854 0.972089 11.9571 1.10036C11.8289 1.22864 11.7568 1.40262 11.7568 1.58402V2.95202C11.7568 3.13343 11.8289 3.30741 11.9571 3.43569C12.0854 3.56396 12.2594 3.63602 12.4408 3.63602H13.4668V5.44691C6.06729 6.29849 0.299805 12.5995 0.299805 20.223C0.299805 28.4252 6.97462 35.1 15.1768 35.1C23.379 35.1 30.0538 28.4252 30.0538 20.223C30.0562 17.4157 29.259 14.6657 27.7556 12.2948L29.205 11.1214L29.8507 11.9189C29.9072 11.9888 29.9769 12.0468 30.0558 12.0897C30.1347 12.1326 30.2213 12.1595 30.3106 12.169C30.4 12.1784 30.4903 12.1702 30.5764 12.1447C30.6626 12.1192 30.7429 12.077 30.8127 12.0205L31.8763 11.1593C32.0171 11.0451 32.1068 10.8796 32.1257 10.6993C32.1445 10.519 32.091 10.3385 31.9769 10.1976L28.5336 5.94452C28.4771 5.87468 28.4074 5.81665 28.3285 5.77375C28.2496 5.73084 28.163 5.7039 28.0736 5.69447C27.9843 5.68504 27.894 5.6933 27.8078 5.71877C27.7217 5.74425 27.6414 5.78644 27.5716 5.84295L26.508 6.70411C26.3672 6.81834 26.2775 6.98381 26.2586 7.16415C26.2398 7.34448 26.2933 7.52492 26.4074 7.66581L27.0534 8.46335L25.6102 9.63094C23.3062 7.36075 20.2668 5.83679 16.8868 5.4476V3.63602H17.9128C18.0942 3.63602 18.2682 3.56396 18.3965 3.43569C18.5247 3.30741 18.5968 3.13343 18.5968 2.95202V1.58402C18.5968 1.40262 18.5247 1.22864 18.3965 1.10036C18.2682 0.972089 18.0942 0.900024 17.9128 0.900024H12.4408ZM15.1768 7.74002C22.0852 7.74002 27.6598 13.3146 27.6598 20.223C27.6598 27.1314 22.0852 32.706 15.1768 32.706C8.26841 32.706 2.69381 27.1314 2.69381 20.223C2.69381 13.3146 8.26841 7.74002 15.1768 7.74002ZM15.1775 10.2855L15.1768 20.223L23.1228 26.1899C24.2312 24.7138 24.9066 22.9582 25.0732 21.1199C25.2398 19.2815 24.891 17.4331 24.0661 15.7818C23.2411 14.1306 21.9726 12.7418 20.4026 11.771C18.8326 10.8003 17.0233 10.286 15.1775 10.2859V10.2855Z" fill="#96C2AF"/>
</svg>
