<svg width="23" height="19" viewBox="0 0 23 19" fill="none" xmlns="http://www.w3.org/2000/svg">
<path d="M0.650391 18.5V17.6H4.25039V18.5H0.650391Z" fill="#79CF76"/>
<path d="M3.35039 7.7V5H1.55039V7.7L0.650391 9.05V16.7H4.25039V9.05L3.35039 7.7Z" fill="#79CF76"/>
<path d="M2.45039 0.5C2.45039 0.5 1.55039 1.4 1.55039 3.2V4.1H3.35039V3.2C3.35039 3.2 3.35039 1.4 2.45039 0.5Z" fill="#79CF76"/>
<path d="M10.0104 18.5V17.6H13.6104V18.5H10.0104Z" fill="#79CF76"/>
<path d="M12.7104 7.7V5H10.9104V7.7L10.0104 9.05V16.7H13.6104V9.05L12.7104 7.7Z" fill="#79CF76"/>
<path d="M11.8104 0.5C11.8104 0.5 10.9104 1.4 10.9104 3.2V4.1H12.7104V3.2C12.7104 3.2 12.7104 1.4 11.8104 0.5Z" fill="#79CF76"/>
<path d="M19.3704 17.6V18.5H22.9704V17.6H19.3704Z" fill="#79CF76"/>
<path d="M22.0704 5V7.7L22.9704 9.05V16.7H19.3704V9.05L20.2704 7.7V5H22.0704Z" fill="#79CF76"/>
<path d="M20.2704 3.2C20.2704 1.4 21.1704 0.5 21.1704 0.5C22.0704 1.4 22.0704 3.2 22.0704 3.2V4.1H20.2704V3.2Z" fill="#79CF76"/>
</svg>
