<svg width="48" height="48" viewBox="0 0 48 48" fill="none" xmlns="http://www.w3.org/2000/svg">
<path d="M19.8182 33.9361L31.7822 24.5341C31.8622 24.4706 31.9268 24.3899 31.9712 24.2979C32.0156 24.206 32.0386 24.1052 32.0386 24.0031C32.0386 23.901 32.0156 23.8002 31.9712 23.7083C31.9268 23.6163 31.8622 23.5356 31.7822 23.4721L19.8182 14.0641C19.3742 13.7161 18.7202 14.0281 18.7202 14.5921V33.4021C18.7202 33.9661 19.3742 34.2841 19.8182 33.9361Z" fill="#163914"/>
<path d="M46.08 0H1.92C0.858 0 0 0.858 0 1.92V46.08C0 47.142 0.858 48 1.92 48H46.08C47.142 48 48 47.142 48 46.08V1.92C48 0.858 47.142 0 46.08 0ZM43.68 43.68H4.32V4.32H43.68V43.68Z" fill="#163914"/>
</svg>
