<svg width="33" height="19" viewBox="0 0 33 19" fill="none" xmlns="http://www.w3.org/2000/svg">
<path fill-rule="evenodd" clip-rule="evenodd" d="M22.607 0.536279C22.4984 0.646967 22.4893 0.692701 22.4893 1.12323V1.5901H22.0314C21.6092 1.5901 21.5644 1.59944 21.4559 1.71018C21.3001 1.86899 21.3001 2.0938 21.4559 2.25261C21.5644 2.36335 21.6092 2.37269 22.0314 2.37269H22.4893V3.15529H22.0314C21.6092 3.15529 21.5644 3.16463 21.4559 3.27537C21.3816 3.35104 21.3381 3.45131 21.3381 3.54659C21.3381 3.64187 21.3816 3.74214 21.4559 3.81781C21.5644 3.92855 21.6092 3.93789 22.0314 3.93789H22.4893V5.11179H21.3381V6.67698H22.4893V8.24218H19.6549L19.5372 8.36226C19.463 8.43793 19.4195 8.5382 19.4195 8.63348C19.4195 8.72876 19.463 8.82903 19.5372 8.9047C19.6458 9.01544 19.6906 9.02478 20.1128 9.02478H20.5707V9.80738H25.1753V9.02478H25.6332C26.0553 9.02478 26.1002 9.01544 26.2087 8.9047C26.283 8.82903 26.3265 8.72876 26.3265 8.63348C26.3265 8.5382 26.283 8.43793 26.2087 8.36226L26.091 8.24218H23.2567V6.67698H24.4079V5.11179H23.2567V3.93789H23.7145C24.1367 3.93789 24.1816 3.92855 24.2901 3.81781C24.4459 3.65899 24.4459 3.43419 24.2901 3.27537C24.1816 3.16463 24.1367 3.15529 23.7145 3.15529H23.2567V2.37269H23.7145C24.1367 2.37269 24.1816 2.36335 24.2901 2.25261C24.3644 2.17695 24.4079 2.07668 24.4079 1.98139C24.4079 1.88611 24.3644 1.78584 24.2901 1.71018C24.1816 1.59944 24.1367 1.5901 23.7145 1.5901H23.2567V1.12323C23.2567 0.692701 23.2476 0.646967 23.139 0.536279C23.0648 0.460562 22.9664 0.416199 22.873 0.416199C22.7796 0.416199 22.6812 0.460562 22.607 0.536279ZM0.768146 7.97096C0.693895 8.04663 0.650391 8.1469 0.650391 8.24218C0.650391 8.33746 0.693895 8.43773 0.768146 8.5134C0.884174 8.63177 0.897844 8.63348 1.72745 8.63348H2.569V9.41608H6.02251V7.85088H0.885853L0.768146 7.97096ZM0.670728 10.284C0.685549 10.3312 1.11517 11.6465 1.62538 13.2068L2.55313 16.0437L30.9094 16.0684L31.0912 15.518C31.1912 15.2153 31.4479 14.4284 31.6617 13.7693L32.0504 12.5709L30.5337 12.544V11.7639H30.9916C31.4137 11.7639 31.4586 11.7545 31.5671 11.6438C31.7229 11.485 31.7229 11.2602 31.5671 11.1014C31.4526 10.9845 31.4302 10.9813 30.7256 10.9813C30.021 10.9813 29.9986 10.9845 29.884 11.1014C29.7706 11.217 29.7663 11.2457 29.7663 11.884V12.5465H8.71658L7.95709 10.2231L4.30041 10.2106C0.83146 10.1987 0.645114 10.2025 0.670728 10.284ZM19.8032 11.7639H25.9428V10.59H19.8032V11.7639ZM2.85766 16.8874C2.85809 16.9076 2.96381 17.2543 3.0925 17.6578L3.32652 18.3915L30.1419 18.4162L30.3858 17.6701C30.5199 17.2598 30.6297 16.9075 30.6297 16.8874C30.6297 16.8672 23.7699 16.8508 18.652 16.8508C13.5341 16.8508 2.85718 16.8672 2.85766 16.8874Z" fill="#9CDF9A"/>
</svg>
