<svg width="197" height="64" viewBox="0 0 197 64" fill="none" xmlns="http://www.w3.org/2000/svg">
<g clip-path="url(#clip0_2577_13895)">
<path d="M75.1983 39.9153L81.2922 39.9028L82.2358 38.9593L83.1778 39.8989L89.3078 39.8864L89.282 34.4631L89.2748 32.96L90.7798 32.9569L92.899 32.9526L94.4042 32.9495L94.403 34.4528L94.3903 50.9351C94.3902 50.9966 94.4007 51.0226 94.4053 51.0329C94.4104 51.0442 94.4277 51.0788 94.4884 51.1343C94.627 51.2612 94.9499 51.4568 95.6069 51.6262L97.2018 52.0376L96.6437 53.5855L94.5649 59.3509C94.6894 59.4059 94.8435 59.4648 95.0314 59.5258C95.9863 59.8359 97.1851 60.0082 98.6575 60.0052C100.13 60.0021 101.329 59.825 102.286 59.5107C102.478 59.4476 102.635 59.3867 102.761 59.3301L100.69 53.5702L100.136 52.029L101.722 51.6136C102.379 51.4413 102.705 51.2439 102.845 51.1146C102.939 51.0285 102.947 50.9875 102.947 50.9091L102.96 34.4268L102.961 32.932L104.458 32.9289L106.577 32.9246L108.09 32.9215L108.081 34.433L108.047 39.848L114.171 39.8354L115.114 38.8919L116.056 39.8316L122.156 39.8191L122.16 34.3875L122.162 32.8926L123.658 32.8896L125.135 32.8866C125.144 32.8865 125.15 32.8861 125.154 32.8857C125.159 32.8823 125.169 32.8743 125.184 32.8591C125.201 32.8424 125.21 32.8306 125.214 32.8243C125.219 32.8182 125.22 32.8149 125.221 32.8136C125.221 32.8123 125.222 32.809 125.224 32.802C125.225 32.7947 125.228 32.7805 125.228 32.7573C125.229 32.7527 125.228 32.7489 125.228 32.7459C125.224 32.7402 125.216 32.7309 125.204 32.7183C125.199 32.7141 125.196 32.7107 125.193 32.7079C125.19 32.708 125.187 32.7081 125.183 32.7082L125.131 32.7108L125.078 32.7098L123.634 32.6807L122.162 32.651L122.163 31.1808L122.167 25.7274L116.074 25.7693L115.13 26.7136L114.188 25.774L108.085 25.7865L108.051 31.2584L108.042 32.745L106.553 32.7481L104.498 32.7523L102.997 32.7554L102.994 31.256L102.972 18.8462L102.972 18.8327L102.972 18.8193C102.972 18.8147 102.972 18.81 102.973 18.8051C102.976 18.7468 102.981 18.6581 102.691 18.4892C102.283 18.2521 101.5 18.0171 100.178 17.909L98.7987 17.7961L98.7998 16.4138L98.8045 10.2569L98.8053 9.25162L99.7369 8.87078C100.146 8.7035 100.467 8.48823 100.721 8.23377C101.295 7.6601 101.559 7.01336 101.553 6.20813C101.546 5.38832 101.273 4.74139 100.711 4.1809C100.15 3.6209 99.5113 3.35727 98.7096 3.35891C97.9078 3.36055 97.2663 3.62706 96.7013 4.1921C96.1363 4.75713 95.8703 5.39813 95.8696 6.19893C95.869 6.9939 96.1351 7.63824 96.7113 8.2129C96.984 8.48488 97.3158 8.71636 97.7216 8.90263L98.5964 9.30423L98.5957 10.2658L98.5909 16.4227L98.5899 17.7972L97.2186 17.915C95.897 18.0286 95.1117 18.2668 94.702 18.5067C94.4067 18.6797 94.4113 18.7718 94.4143 18.8315C94.4146 18.8363 94.4148 18.8408 94.4148 18.8452L94.415 18.8568L94.415 18.8683L94.4055 31.2461L94.4043 32.7181L92.9307 32.7437L90.8436 32.7801L89.3237 32.8066L89.3165 31.2883L89.2908 25.823L83.226 25.8061L82.2511 26.781L81.3083 25.8405L75.2092 25.8235L75.205 31.2854L75.2038 32.7488L73.739 32.7829L72.2299 32.818L72.1782 32.8193L72.1266 32.8169C72.1219 32.8167 72.1178 32.8166 72.1142 32.8166C72.1024 32.8286 72.0971 32.8361 72.0954 32.8386C72.0937 32.8411 72.0939 32.8412 72.0945 32.8398C72.095 32.8384 72.0941 32.8401 72.0928 32.8469C72.0915 32.854 72.0893 32.8694 72.0893 32.8951L70.6011 32.894L72.0893 32.8951C72.0892 32.9209 72.0914 32.9361 72.0927 32.9429C72.0931 32.9452 72.0935 32.9469 72.0938 32.948C72.0952 32.95 72.1007 32.9578 72.1136 32.9707C72.1264 32.9835 72.1354 32.9908 72.1404 32.9944C72.1442 32.9948 72.1497 32.9951 72.1573 32.9951L73.6985 32.9919L75.2036 32.9888L75.2025 34.4921L75.1983 39.9153ZM89.682 39.8856L89.6828 39.8856L89.6834 40.1841L89.6828 39.8856C89.6826 39.8856 89.6823 39.8856 89.682 39.8856ZM115.883 39.8319L115.884 39.8319C115.883 39.8319 115.883 39.8319 115.883 39.8319L115.884 40.2438L115.883 39.8319Z" stroke="#A0B09F" stroke-width="3"/>
</g>
<defs>
<clipPath id="clip0_2577_13895">
<rect width="71.4203" height="64" fill="white" transform="translate(134.21 64) rotate(-180)"/>
</clipPath>
</defs>
</svg>
