<svg width="190" height="80" viewBox="0 0 190 80" fill="none" xmlns="http://www.w3.org/2000/svg">
	<line x1="-1.31134e-07" y1="39.5" x2="59.2899" y2="39.5" stroke="#61C35A" stroke-width="3" stroke-dasharray="5 5"/>
	<g clip-path="url(#clip0_2630_13849)" filter="url(#filter0_d_2630_13849)">
	<path d="M80.0907 59.527L83.3834 54.3992L83.1019 53.0949L84.4022 52.8125L87.7143 47.6544L83.1429 44.7365L81.8759 43.9278L82.689 42.6613L83.834 40.8782L84.6473 39.6116L85.91 40.4274L99.7541 49.3722C99.8057 49.4056 99.8333 49.4109 99.8443 49.4126C99.8566 49.4144 99.8951 49.4186 99.9746 49.3978C100.156 49.35 100.496 49.1847 100.994 48.7244L102.205 47.6071L103.203 48.9152L106.921 53.7872C107.035 53.7124 107.168 53.6148 107.321 53.49C108.099 52.8556 108.894 51.9416 109.689 50.7026C110.485 49.4637 110.986 48.3597 111.24 47.3857C111.291 47.1901 111.325 47.0251 111.346 46.8883L105.383 45.5066L103.788 45.1369L104.298 43.5789C104.51 42.9329 104.52 42.5527 104.488 42.3642C104.466 42.2388 104.436 42.2098 104.37 42.1673L90.5263 33.2225L89.2708 32.4113L90.0795 31.1519L91.2245 29.3687L92.0423 28.0951L93.3074 28.9225L97.8394 31.8863L101.148 26.7332L100.867 25.4289L102.167 25.1466L105.463 20.0137L100.901 17.066L99.6452 16.2548L100.454 14.9953L101.252 13.7525C101.257 13.7451 101.26 13.7397 101.261 13.7363C101.261 13.7304 101.26 13.7174 101.255 13.6963C101.251 13.6733 101.245 13.6594 101.243 13.6524C101.24 13.6455 101.238 13.6425 101.237 13.6413C101.236 13.6401 101.234 13.6372 101.229 13.6322C101.224 13.6269 101.213 13.6172 101.194 13.6042C101.19 13.6016 101.187 13.5996 101.184 13.598C101.177 13.5986 101.165 13.6001 101.148 13.6039C101.142 13.6052 101.137 13.6064 101.133 13.6075C101.131 13.6098 101.13 13.6126 101.128 13.6157L101.102 13.661L101.073 13.7045L100.265 14.9029L99.4423 16.1237L98.2074 15.3258L93.6269 12.3663L90.3593 17.5094L90.641 18.8148L89.3408 19.0972L86.0437 24.2319L90.6235 27.2266L91.8678 28.0402L91.0635 29.2928L89.9532 31.0219L89.142 32.2852L87.8805 31.4748L77.4397 24.7671L77.4283 24.7598L77.4171 24.7523C77.4134 24.7498 77.4095 24.747 77.4055 24.7441C77.3584 24.7098 77.2866 24.6575 76.9874 24.8098C76.5672 25.0236 75.9451 25.5547 75.1377 26.6068L74.2952 27.7049L73.1341 26.9547L67.9628 23.6135L67.1184 23.0679L67.3033 22.0786C67.3845 21.644 67.3774 21.2579 67.3015 20.9062C67.1304 20.1131 66.7303 19.5402 66.0501 19.1092C65.3576 18.6704 64.6659 18.5493 63.8903 18.7177C63.1154 18.8859 62.5477 19.2796 62.1146 19.9542C61.6813 20.6289 61.5576 21.3124 61.7261 22.0935C61.8947 22.8746 62.2892 23.4456 62.9618 23.8802C63.6295 24.3116 64.3152 24.4372 65.1104 24.2646C65.4868 24.1829 65.8612 24.0295 66.2377 23.7894L67.0494 23.2719L67.857 23.7938L73.0284 27.135L74.1829 27.881L73.5386 29.0972C72.9177 30.2694 72.6922 31.0583 72.6718 31.5327C72.657 31.8746 72.737 31.9207 72.7888 31.9505C72.7929 31.9529 72.7969 31.9552 72.8006 31.9575L72.8104 31.9636L72.82 31.9699L83.2166 38.6872L84.453 39.486L83.6757 40.7383L82.575 42.5119L81.7734 43.8035L80.4937 42.9866L75.8869 40.0457L72.5854 45.1332L72.8762 46.4808L71.5747 46.7634L68.2546 51.8796L72.8422 54.8437L74.0713 55.6378L73.306 56.8873L72.5175 58.1745L72.4905 58.2186L72.4606 58.2608C72.4579 58.2646 72.4555 58.268 72.4536 58.271C72.4573 58.2874 72.4607 58.2959 72.4619 58.2987C72.4631 58.3015 72.4632 58.3014 72.4624 58.3001C72.4615 58.2989 72.4625 58.3006 72.4675 58.3054C72.4727 58.3103 72.4845 58.3205 72.5061 58.3345L71.6985 59.5845L72.5061 58.3345C72.5277 58.3485 72.5417 58.3549 72.5481 58.3575C72.5503 58.3584 72.5519 58.359 72.553 58.3593C72.5554 58.3593 72.5649 58.3589 72.5828 58.355C72.6004 58.3512 72.6115 58.3475 72.6172 58.3454C72.6196 58.3424 72.6228 58.3379 72.6269 58.3315L73.4596 57.0347L74.2729 55.7681L75.5356 56.5839L80.0907 59.527ZM87.9165 47.3395L87.917 47.3388L88.1681 47.5001L87.917 47.3388C87.9168 47.3391 87.9167 47.3393 87.9165 47.3395ZM102.073 25.2925L102.074 25.2918C102.074 25.2921 102.073 25.2923 102.073 25.2925L102.42 25.515L102.073 25.2925Z" stroke="#61C35A" stroke-width="3"/>
	<path d="M115.355 48.0184C117.489 51.9234 114.202 57.2049 109.767 56.9968" stroke="#61C35A" stroke-width="3" stroke-miterlimit="16" stroke-linecap="round"/>
	<path d="M121.707 49.3955C124.744 54.9543 120.065 62.4725 113.752 62.1764" stroke="#61C35A" stroke-width="3" stroke-miterlimit="16" stroke-linecap="round"/>
	<path d="M127.441 50.3749C131.51 57.8229 125.241 67.8961 116.783 67.4994" stroke="#61C35A" stroke-width="3" stroke-miterlimit="16" stroke-linecap="round"/>
	</g>

	<defs>
		<filter id="filter0_d_2630_13849" x="49.291" y="-1" width="91.4199" height="84" filterUnits="userSpaceOnUse" color-interpolation-filters="sRGB">
		<feFlood flood-opacity="0" result="BackgroundImageFix"/>
		<feColorMatrix in="SourceAlpha" type="matrix" values="0 0 0 0 0 0 0 0 0 0 0 0 0 0 0 0 0 0 127 0" result="hardAlpha"/>
		<feOffset/>
		<feGaussianBlur stdDeviation="5"/>
		<feColorMatrix type="matrix" values="0 0 0 0 0.307287 0 0 0 0 0.641667 0 0 0 0 0.283403 0 0 0 0.5 0"/>
		<feBlend mode="normal" in2="BackgroundImageFix" result="effect1_dropShadow_2630_13849"/>
		<feBlend mode="normal" in="SourceGraphic" in2="effect1_dropShadow_2630_13849" result="shape"/>
		</filter>
	<clipPath id="clip0_2630_13849">
		<rect width="71.4203" height="64" fill="white" transform="translate(130.711 73) rotate(-180)"/>
	</clipPath>
	</defs>
</svg>
