<svg width="100" height="100" viewBox="0 0 100 100" fill="none" xmlns="http://www.w3.org/2000/svg">
<path d="M63 22.5L60.8787 20.3787C60.3161 20.9413 60 21.7044 60 22.5H63ZM73 12.5H76V5.25736L70.8787 10.3787L73 12.5ZM73 27.5H70C70 29.1569 71.3431 30.5 73 30.5V27.5ZM87.5 27.5L89.6213 29.6213L94.7426 24.5H87.5V27.5ZM78 37V40C78.7956 40 79.5587 39.6839 80.1213 39.1213L78 37ZM52.1213 52.1213L65.1213 39.1213L60.8787 34.8787L47.8787 47.8787L52.1213 52.1213ZM66 37V22.5H60V37H66ZM65.1213 24.6213L75.1213 14.6213L70.8787 10.3787L60.8787 20.3787L65.1213 24.6213ZM70 12.5V27.5H76V12.5H70ZM73 30.5H87.5V24.5H73V30.5ZM85.3787 25.3787L75.8787 34.8787L80.1213 39.1213L89.6213 29.6213L85.3787 25.3787ZM78 34H63V40H78V34Z" fill="#96C2AF"/>
<circle cx="50" cy="50" r="7" fill="#96C2AF"/>
<path d="M55 25.5001C53.3844 25.1722 51.7123 25 50 25C36.1929 25 25 36.1929 25 50C25 63.8071 36.1929 75 50 75C63.8071 75 75 63.8071 75 50C75 48.2877 74.8279 46.6155 74.4999 45H68.3352C68.7687 46.5931 69 48.2696 69 50C69 60.4934 60.4934 69 50 69C39.5066 69 31 60.4934 31 50C31 39.5066 39.5066 31 50 31C51.7304 31 53.4069 31.2313 55 31.6648V25.5001Z" fill="#96C2AF"/>
<path d="M62.2694 11.9169C58.4032 10.6722 54.2801 10 50 10C27.9086 10 10 27.9086 10 50C10 72.0914 27.9086 90 50 90C72.0914 90 90 72.0914 90 50C90 45.8598 89.371 41.8664 88.2033 38.1104C86.5743 39.7394 85.0116 41.4885 83.2806 43.0096C83.7521 45.2657 84 47.6039 84 50C84 68.7777 68.7777 84 50 84C31.2223 84 16 68.7777 16 50C16 31.2223 31.2223 16 50 16C52.5352 16 55.0056 16.2775 57.3825 16.8037L62.2694 11.9169Z" fill="#96C2AF"/>
</svg>
